<svg width="33" height="21" viewBox="0 0 40 42" fill="none" xmlns="http://www.w3.org/2000/svg">
<g clip-path="url(#clip0_603_223)">
<path fill-rule="evenodd" clip-rule="evenodd" d="M0 0H40V41.8391H0V0Z" fill="white"/>
<path fill-rule="evenodd" clip-rule="evenodd" d="M1.76057 38.5709H1.64622C1.64622 38.5112 1.61759 38.4213 1.61759 38.3912C1.61759 38.3614 1.61759 38.3017 1.53168 38.3017H1.35985V38.5709H1.27394V37.9423H1.53168C1.64622 37.9423 1.73193 37.9725 1.73193 38.0918C1.73193 38.1817 1.70329 38.2119 1.67486 38.2414C1.7035 38.2716 1.73193 38.3015 1.73193 38.3614V38.481C1.73193 38.5112 1.73193 38.5112 1.76057 38.5112V38.5709ZM1.64622 38.122C1.64622 38.0321 1.58895 38.0321 1.56031 38.0321H1.35985V38.2119H1.53168C1.58895 38.2119 1.64622 38.1817 1.64622 38.122V38.122ZM2.13285 38.2416C2.13285 37.8826 1.84669 37.5828 1.4744 37.5828C1.13096 37.5828 0.844589 37.8826 0.844589 38.2416C0.844589 38.6308 1.13096 38.9305 1.4744 38.9305C1.84648 38.9303 2.13285 38.6308 2.13285 38.2416ZM2.04694 38.2416C2.04694 38.5711 1.78941 38.8105 1.4744 38.8105C1.15939 38.8105 0.930501 38.5709 0.930501 38.2416C0.930501 37.9423 1.1596 37.6727 1.4744 37.6727C1.7892 37.6727 2.04694 37.9423 2.04694 38.2416ZM37.3152 26.1448C37.3152 27.0432 36.7713 27.4619 35.7978 27.4619H33.9374V26.5635H35.7978C35.9696 26.5635 36.1128 26.5338 36.1703 26.4741C36.2274 26.4139 36.2846 26.3241 36.2846 26.2045C36.2846 26.0844 36.2276 25.9648 36.1703 25.9052C36.1128 25.845 35.9985 25.8153 35.8266 25.8153C34.9395 25.7851 33.8229 25.845 33.8229 24.5277C33.8229 23.9286 34.1949 23.2699 35.1968 23.2699H37.1147V24.1683H35.3398C35.1684 24.1683 35.0536 24.1683 34.9677 24.228C34.8818 24.3178 34.8247 24.4077 34.8247 24.5574C34.8247 24.7072 34.9107 24.7971 35.025 24.8572C35.1398 24.8869 35.2543 24.9169 35.3975 24.9169H35.9126C36.4565 24.9169 36.8001 25.0365 37.0292 25.2464C37.2006 25.4558 37.3152 25.7256 37.3152 26.1448V26.1448ZM33.2788 25.2464C33.0497 25.0365 32.706 24.9169 32.1621 24.9169H31.6471C31.5041 24.9169 31.3893 24.8867 31.275 24.8572C31.1602 24.7971 31.0747 24.7072 31.0747 24.5574C31.0747 24.4077 31.1032 24.3178 31.2177 24.228C31.3036 24.1683 31.418 24.1683 31.5898 24.1683H33.3647V23.2699H31.4468C30.4161 23.2699 30.0724 23.9286 30.0724 24.5277C30.0724 25.8448 31.1891 25.7851 32.0766 25.8153C32.248 25.8153 32.3628 25.845 32.4198 25.9052C32.4769 25.9648 32.5346 26.0844 32.5346 26.2045C32.5346 26.3241 32.4771 26.4139 32.4198 26.4741C32.3339 26.5338 32.2196 26.5635 32.0478 26.5635H30.187V27.4619H32.0478C33.0208 27.4619 33.5649 27.043 33.5649 26.1448C33.5649 25.7256 33.4506 25.4558 33.2788 25.2464V25.2464ZM29.6144 26.5939H27.3533V25.7554H29.5574V24.9173H27.3533V24.1385H29.6144V23.2703H26.4085V27.4621H29.6144V26.5939ZM25.3778 23.48C25.0628 23.3003 24.6907 23.2701 24.2041 23.2701H22V27.4619H22.9731V25.9349H24.0038C24.347 25.9349 24.5477 25.9651 24.6909 26.1146C24.8627 26.3241 24.8627 26.6835 24.8627 26.9531V27.4619H25.8071V26.6534C25.8071 26.2642 25.7787 26.0844 25.6642 25.875C25.5782 25.755 25.4068 25.6054 25.1777 25.5155C25.4351 25.4261 25.8648 25.0667 25.8648 24.4077C25.8646 23.9288 25.6928 23.6593 25.3778 23.48V23.48ZM19.9388 23.2701H16.8756L15.6446 24.6475L14.4709 23.2701H10.6064V27.4619H14.4139L15.6449 26.0844L16.8186 27.4619H18.6794V26.0549H19.8817C20.7118 26.0549 21.5423 25.8153 21.5423 24.6475C21.5421 23.5097 20.6831 23.2701 19.9388 23.2701ZM24.6048 25.007C24.4618 25.0667 24.3186 25.0667 24.1468 25.0667L22.9731 25.0968V24.1383H24.1468C24.3186 24.1383 24.4904 24.1383 24.6048 24.2282C24.7195 24.2883 24.805 24.4079 24.805 24.5876C24.805 24.7673 24.7195 24.9171 24.6048 25.007V25.007ZM19.9388 25.2164H18.6792V24.1383H19.9388C20.2824 24.1383 20.5113 24.2883 20.5113 24.6475C20.5113 25.007 20.2822 25.2164 19.9388 25.2164ZM16.2458 25.366L17.7343 23.7194V27.1029L16.2458 25.366ZM13.927 26.5939H11.551V25.7554H13.6693V24.9173H11.551V24.1385H13.9557L15.0148 25.3662L13.927 26.5939V26.5939ZM34.6527 20.2458H33.2788L31.4752 17.1017V20.2458H29.5289L29.1564 19.3175H27.1527L26.7806 20.2458H25.6639C25.206 20.2458 24.6048 20.126 24.2616 19.7666C23.9465 19.4073 23.7747 18.9283 23.7747 18.1797C23.7747 17.5508 23.8606 16.9819 24.2898 16.5328C24.5759 16.2033 25.0914 16.0538 25.7497 16.0538H26.6656V16.9522H25.7497C25.4064 16.9522 25.2058 17.0121 25.0055 17.1918C24.8337 17.3716 24.7478 17.7008 24.7478 18.1499C24.7478 18.599 24.8337 18.9285 25.0055 19.1382C25.1485 19.2877 25.4064 19.3476 25.6637 19.3476H26.0933L27.4673 16.054H28.8987L30.5018 20.0064V16.0538H31.9905L33.6795 18.9582V16.0538H34.6525V20.2458H34.6527V20.2458ZM23.2881 16.0538H22.315V20.2458H23.2881V16.0538V16.0538ZM21.2555 16.2335C20.9405 16.0538 20.5972 16.0538 20.1106 16.0538H17.9062V20.2458H18.8508V18.7186H19.8813C20.2249 18.7186 20.454 18.7486 20.597 18.8983C20.7688 19.108 20.74 19.4675 20.74 19.7069V20.2458H21.713V19.4073C21.713 19.0481 21.6846 18.8684 21.5416 18.6587C21.4557 18.5389 21.2839 18.3891 21.0836 18.2995C21.341 18.1797 21.7707 17.8504 21.7707 17.1916C21.7709 16.7126 21.5703 16.443 21.2555 16.2335ZM17.2191 19.3776H14.9862V18.5391H17.1904V17.6709H14.9862V16.9222H17.2191V16.054H14.0129V20.246H17.2191V19.3776ZM13.2972 16.0538H11.7228L10.5491 18.8983L9.28946 16.0538H7.74367V20.0062L6.11197 16.0538H4.68073L2.96312 20.2458H3.99365L4.36572 19.3175H6.3695L6.74158 20.2458H8.68829V16.9522L10.0909 20.2458H10.921L12.3238 16.9522V20.2458H13.297V16.0538H13.2972ZM28.8132 18.4193L28.1546 16.7725L27.4963 18.4193H28.8132ZM20.5113 17.7607C20.3683 17.8506 20.2252 17.8506 20.0247 17.8506H18.8508V16.9225H20.0245C20.1963 16.9225 20.3964 16.9225 20.5111 16.9824C20.6255 17.0722 20.6829 17.192 20.6829 17.3716C20.6829 17.5511 20.6257 17.7006 20.5113 17.7607V17.7607ZM4.70916 18.4193L5.36761 16.7725L6.02606 18.4193H4.70916V18.4193ZM37.0863 2.90881H2.93428V18.0001L4.10799 15.2155H6.59839L6.94204 15.9042V15.2155H9.862L10.5204 16.7126L11.1503 15.2155H20.454C20.8832 15.2155 21.2553 15.3054 21.5418 15.5448V15.2155H24.0895V15.5448C24.5187 15.3052 25.0626 15.2155 25.6926 15.2155H29.3853L29.729 15.9042V15.2155H32.4485L32.8494 15.9042V15.2155H35.5114V21.0843H32.8208L32.3057 20.1861V21.0843H28.9562L28.5841 20.1262H27.7536L27.3816 21.0843H25.6355C24.9484 21.0843 24.433 20.9046 24.0897 20.7251V21.0843H19.9388V19.7368C19.9388 19.5571 19.9101 19.5271 19.7956 19.5271H19.6526V21.0841H11.6369V20.3355L11.3507 21.0841H9.66175L9.37558 20.3654V21.0841H6.14061L5.79717 20.126H4.9669L4.59482 21.0841H2.93428V38.7806H37.0863V28.0308C36.7142 28.2105 36.1987 28.3004 35.6835 28.3004H33.1928V27.9409C32.9067 28.1808 32.3912 28.3004 31.9048 28.3004H24.0609V26.9531C24.0609 26.7734 24.0325 26.7734 23.8891 26.7734H23.7461V28.3004H21.1696V26.7135C20.7404 26.9229 20.2536 26.9229 19.8242 26.9229H19.5379V28.3004H16.389L15.6449 27.402L14.8148 28.3004H9.74745V22.4318H14.9003L15.6446 23.3298L16.4463 22.4318H19.9101C20.3106 22.4318 20.9693 22.4915 21.2555 22.7908V22.4318H24.347C24.6621 22.4318 25.2634 22.4915 25.6639 22.7908V22.4318H30.3302V22.791C30.5879 22.5514 31.0747 22.432 31.5039 22.432H34.1088V22.791C34.3954 22.5816 34.7959 22.432 35.3114 22.432H37.0863V2.90881V2.90881Z" fill="#A9A9B2"/>
</g>
<defs>
<clipPath id="clip0_603_223">
<rect width="40" height="41.8391" fill="white"/>
</clipPath>
</defs>
</svg>
