<svg width="50" height="40" viewBox="0 0 50 40" fill="none" xmlns="http://www.w3.org/2000/svg">
<g clip-path="url(#clip0_4209_249)">
<path fill-rule="evenodd" clip-rule="evenodd" d="M0 0H50V40H0V0Z" fill="white"/>
<path fill-rule="evenodd" clip-rule="evenodd" d="M2.20063 36.8754H2.05771C2.05771 36.8183 2.02191 36.7324 2.02191 36.7036C2.02191 36.6751 2.02191 36.6181 1.91452 36.6181H1.69974V36.8754H1.59235V36.2744H1.91452C2.05771 36.2744 2.16484 36.3033 2.16484 36.4174C2.16484 36.5033 2.12904 36.5321 2.0935 36.5604C2.1293 36.5892 2.16484 36.6179 2.16484 36.6751V36.7895C2.16484 36.8183 2.16484 36.8183 2.20063 36.8183V36.8754ZM2.05771 36.4463C2.05771 36.3603 1.98611 36.3603 1.95032 36.3603H1.69974V36.5321H1.91452C1.98611 36.5321 2.05771 36.5033 2.05771 36.4463ZM2.66599 36.5606C2.66599 36.2173 2.30828 35.9308 1.84293 35.9308C1.41363 35.9308 1.05566 36.2173 1.05566 36.5606C1.05566 36.9327 1.41363 37.2193 1.84293 37.2193C2.30802 37.219 2.66599 36.9327 2.66599 36.5606ZM2.5586 36.5606C2.5586 36.8756 2.23669 37.1045 1.84293 37.1045C1.44917 37.1045 1.16305 36.8754 1.16305 36.5606C1.16305 36.2744 1.44943 36.0167 1.84293 36.0167C2.23643 36.0167 2.5586 36.2744 2.5586 36.5606ZM46.644 24.9955C46.644 25.8544 45.964 26.2547 44.747 26.2547H42.4217V25.3958H44.747C44.962 25.3958 45.141 25.3674 45.2127 25.3103C45.284 25.2528 45.3557 25.1669 45.3557 25.0526C45.3557 24.9378 45.2843 24.8235 45.2127 24.7664C45.141 24.7089 44.998 24.6805 44.7833 24.6805C43.6743 24.6517 42.2783 24.7089 42.2783 23.4495C42.2783 22.8767 42.7437 22.2469 43.996 22.2469H46.3933V23.1059H44.1747C43.9603 23.1059 43.817 23.1059 43.7097 23.1629C43.6023 23.2488 43.531 23.3347 43.531 23.4779C43.531 23.6211 43.6383 23.707 43.7813 23.7645C43.9247 23.7929 44.0677 23.8216 44.2467 23.8216H44.8907C45.5703 23.8216 46 23.9359 46.2863 24.1366C46.5007 24.3369 46.644 24.5948 46.644 24.9955ZM41.5983 24.1366C41.312 23.9359 40.8823 23.8216 40.2027 23.8216H39.5587C39.38 23.8216 39.2367 23.7927 39.0937 23.7645C38.9503 23.707 38.8433 23.6211 38.8433 23.4779C38.8433 23.3347 38.879 23.2488 39.022 23.1629C39.1293 23.1059 39.2723 23.1059 39.487 23.1059H41.7057V22.2469H39.3083C38.02 22.2469 37.5903 22.8767 37.5903 23.4495C37.5903 24.7087 38.9863 24.6517 40.0957 24.6805C40.31 24.6805 40.4533 24.7089 40.5247 24.7664C40.596 24.8235 40.6683 24.9378 40.6683 25.0526C40.6683 25.1669 40.5963 25.2528 40.5247 25.3103C40.4173 25.3674 40.2743 25.3958 40.0597 25.3958H37.7337V26.2547H40.0597C41.276 26.2547 41.956 25.8542 41.956 24.9955C41.956 24.5948 41.813 24.3369 41.5983 24.1366ZM37.018 25.4249H34.1917V24.6232H36.9467V23.822H34.1917V23.0774H37.018V22.2474H33.0106V26.2549H37.018V25.4249ZM31.7221 22.4478C31.3284 22.276 30.8633 22.2471 30.255 22.2471H27.5V26.2547H28.7163V24.7948H30.0047C30.4337 24.7948 30.6846 24.8237 30.8636 24.9667C31.0783 25.1669 31.0783 25.5105 31.0783 25.7683V26.2547H32.2588V25.4817C32.2588 25.1096 32.2233 24.9378 32.0801 24.7375C31.9727 24.6228 31.7585 24.4798 31.4721 24.3939C31.7937 24.3084 32.331 23.9648 32.331 23.3347C32.3307 22.877 32.1159 22.6192 31.7221 22.4478ZM24.9234 22.2471H21.0945L19.5557 23.5641L18.0886 22.2471H13.2579V26.2547H18.0173L19.556 24.9378L21.0231 26.2547H23.3491V24.9096H24.8521C25.8896 24.9096 26.9277 24.6805 26.9277 23.5641C26.9275 22.4763 25.8539 22.2471 24.9234 22.2471ZM30.7559 23.9077C30.5772 23.9648 30.3982 23.9648 30.1834 23.9648L28.7163 23.9936V23.0772H30.1834C30.3982 23.0772 30.613 23.0772 30.7559 23.1631C30.8993 23.2206 31.0062 23.3349 31.0062 23.5068C31.0062 23.6786 30.8993 23.8218 30.7559 23.9077ZM24.9234 24.1079H23.3489V23.0772H24.9234C25.353 23.0772 25.6391 23.2206 25.6391 23.5641C25.6391 23.9077 25.3527 24.1079 24.9234 24.1079ZM20.3072 24.2509L22.1678 22.6767V25.9115L20.3072 24.2509ZM17.4087 25.4249H14.4386V24.6232H17.0866V23.822H14.4386V23.0774H17.4445L18.7685 24.2511L17.4087 25.4249ZM43.3157 19.3558H41.5983L39.344 16.3499V19.3558H36.911L36.4453 18.4683H33.9407L33.4757 19.3558H32.0799C31.5074 19.3558 30.7559 19.2413 30.3269 18.8976C29.9331 18.5542 29.7183 18.0962 29.7183 17.3805C29.7183 16.7793 29.8257 16.2354 30.3621 15.8061C30.7198 15.4911 31.3642 15.3481 32.187 15.3481H33.332V16.207H32.187C31.7579 16.207 31.5071 16.2643 31.2568 16.4361C31.042 16.6079 30.9346 16.9227 30.9346 17.3521C30.9346 17.7814 31.042 18.0964 31.2568 18.2969C31.4355 18.4399 31.7579 18.4971 32.0796 18.4971H32.6165L34.334 15.3483H36.1233L38.127 19.1269V15.3481H39.988L42.0993 18.1249V15.3481H43.3157V19.3558ZM29.11 15.3481H27.8937V19.3558H29.11V15.3481ZM26.5693 15.5199C26.1755 15.3481 25.7465 15.3481 25.1382 15.3481H22.3826V19.3558H23.5634V17.8957H24.8515C25.2811 17.8957 25.5675 17.9244 25.7462 18.0676C25.961 18.268 25.9249 18.6117 25.9249 18.8406V19.3558H27.1412V18.5542C27.1412 18.2107 27.1057 18.0389 26.927 17.8385C26.8196 17.7239 26.6048 17.5807 26.3545 17.495C26.6761 17.3805 27.2133 17.0657 27.2133 16.4359C27.2136 15.9779 26.9628 15.7201 26.5693 15.5199ZM21.5238 18.5258H18.7327V17.7241H21.488V16.8941H18.7327V16.1783H21.5238V15.3483H17.5161V19.356H21.5238V18.5258ZM16.6215 15.3481H14.6534L13.1863 18.0676L11.6118 15.3481H9.67953V19.1267L7.6399 15.3481H5.85083L3.70383 19.3558H4.992L5.45707 18.4683H7.9618L8.4269 19.3558H10.8603V16.207L12.6135 19.3558H13.6511L15.4046 16.207V19.3558H16.6212V15.3481H16.6215ZM36.0163 17.6096L35.193 16.0351L34.3703 17.6096H36.0163ZM25.6391 16.98C25.4603 17.0659 25.2814 17.0659 25.0308 17.0659H23.5634V16.1785H25.0305C25.2453 16.1785 25.4954 16.1785 25.6388 16.2358C25.7817 16.3217 25.8536 16.4363 25.8536 16.6079C25.8536 16.7795 25.782 16.9225 25.6391 16.98ZM5.88637 17.6096L6.70943 16.0351L7.5325 17.6096H5.88637ZM46.3577 2.78088H3.66777V17.2089L5.1349 14.5467H8.24793L8.67747 15.2051V14.5467H12.3274L13.1505 15.9779L13.9378 14.5467H25.5675C26.1039 14.5467 26.569 14.6325 26.9272 14.8615V14.5467H30.1118V14.8615C30.6483 14.6323 31.3281 14.5467 32.1157 14.5467H36.7317L37.161 15.2051V14.5467H40.5607L41.0617 15.2051V14.5467H44.3893V20.1575H41.026L40.382 19.2988V20.1575H36.195L35.73 19.2415H34.692L34.227 20.1575H32.0443C31.1855 20.1575 30.5411 19.9857 30.1121 19.814V20.1575H24.9234V18.8692C24.9234 18.6974 24.8876 18.6687 24.7444 18.6687H24.5657V20.1573H14.546V19.4415L14.1883 20.1573H12.0771L11.7194 19.4702V20.1573H7.6757L7.2464 19.2413H6.20857L5.74347 20.1573H3.66777V37.0759H46.3577V26.7986C45.8927 26.9704 45.2483 27.0563 44.6043 27.0563H41.491V26.7127C41.1333 26.942 40.489 27.0563 39.881 27.0563H30.076V25.7683C30.076 25.5965 30.0405 25.5965 29.8612 25.5965H29.6825V27.0563H26.4619V25.5392C25.9254 25.7395 25.3169 25.7395 24.7802 25.7395H24.4222V27.0563H20.4862L19.556 26.1974L18.5184 27.0563H12.1842V21.4457H18.6253L19.5557 22.3042L20.5578 21.4457H24.8876C25.3882 21.4457 26.2116 21.5028 26.5693 21.7889V21.4457H30.4337C30.8275 21.4457 31.5792 21.5028 32.0799 21.7889V21.4457H37.9127V21.7892C38.2347 21.5601 38.8433 21.4459 39.3797 21.4459H42.636V21.7892C42.9943 21.5889 43.4947 21.4459 44.139 21.4459H46.3577V2.78088Z" fill="#0077A6"/>
</g>
<defs>
<clipPath id="clip0_4209_249">
<rect width="50" height="40" fill="white"/>
</clipPath>
</defs>
</svg>
