<svg width="2280" height="1738" viewBox="0 0 2280 1738" fill="none" xmlns="http://www.w3.org/2000/svg">
<path fill-rule="evenodd" clip-rule="evenodd" d="M0.294922 414.293L974 800.105L0.294922 340.819V414.293ZM0.294922 495.652L968.747 810.597L0.294922 426.108V495.652ZM0.294922 1587.46L983.183 962.836L0.294922 1504.8V1587.46ZM0.294922 573.082L966.127 821.103L0.294922 507.468V573.082ZM0.294922 329.004L977.93 789.612L0.294922 251.574V329.004ZM33.0955 61.2949L996.308 760.741L93.4697 14.059C69.8518 24.5645 48.8537 40.2968 33.0955 61.2949V61.2949ZM220.755 0.933594L1010.74 743.673L313.93 0.933594H220.755V0.933594ZM106.595 8.80625L1004.18 751.559L205.01 0.933594H155.154C138.073 0.933594 121.018 4.86344 106.595 8.80625V8.80625ZM0.294922 141.344L989.745 769.924L26.5457 70.4905C12.1104 91.4885 2.92778 115.106 0.294922 141.344V141.344ZM0.294922 238.462L983.183 779.119L0.294922 154.47V238.462ZM0.294922 647.891L962.185 831.608L0.294922 584.897V647.891ZM0.294922 1401.12L974 943.161L0.294922 1328.96V1401.12V1401.12ZM0.294922 721.378L960.875 843.411L0.294922 659.694V721.378ZM0.294922 1315.83L968.747 932.643L0.294922 1247.59V1315.83V1315.83ZM0.294922 1158.36L962.185 910.348L0.294922 1094.05V1158.36ZM0.294922 1491.69L977.93 953.641L0.294922 1414.25V1491.69V1491.69ZM329.675 0.933594L1019.93 735.801L411.034 0.933594H329.675V0.933594ZM0.294922 1235.78L966.127 922.163L0.294922 1170.18V1235.78V1235.78ZM0.294922 793.542L959.565 853.903L0.294922 733.181V793.542V793.542ZM0.294922 865.719H958.255L0.294922 805.357V865.719ZM0.294922 1010.09L959.565 888.04L0.294922 948.401V1010.09ZM0.294922 937.882L958.255 877.521H0.294922V937.882ZM0.294922 1082.25L960.875 899.842L0.294922 1020.56V1082.25V1082.25ZM426.78 0.933594L1029.12 727.928L498.956 0.933594H426.78V0.933594ZM1426.74 0.933594L1199.71 701.69L1477.91 0.933594H1426.74V0.933594ZM1198.4 0.933594L1156.41 689.875L1241.7 0.933594H1198.4V0.933594ZM1367.7 0.933594L1189.21 697.747L1414.91 0.933594H1367.7V0.933594ZM514.702 0.933594L1036.98 721.378L580.316 0.933594H514.702V0.933594ZM1311.25 0.933594L1178.71 695.127L1355.86 0.933594H1311.25V0.933594ZM1488.39 0.933594L1211.53 705.62L1542.21 0.933594H1488.39V0.933594ZM1865.02 0.933594L1258.76 735.801L1947.71 0.933594H1865.02V0.933594ZM1778.42 0.933594L1249.57 727.928L1850.59 0.933594H1778.42V0.933594ZM1555.34 0.933594L1220.72 710.873L1610.44 0.933594H1555.34V0.933594ZM1698.37 0.933594L1240.4 721.378L1763.98 0.933594H1698.37V0.933594ZM1623.56 0.933594L1231.2 716.125L1683.93 0.933594H1623.56V0.933594ZM1253.52 0.933594L1166.91 692.507L1298.13 0.933594H1253.52V0.933594ZM735.175 0.933594L1067.17 705.62L788.96 0.933594H735.175V0.933594ZM862.46 0.933594L1088.16 697.747L909.696 0.933594H862.46V0.933594ZM1144.59 0.933594V687.255L1186.6 0.933594H1144.59V0.933594ZM668.238 0.933594L1056.67 710.873L723.346 0.933594H668.238V0.933594ZM593.441 0.933594L1047.49 716.125L653.802 0.933594H593.441V0.933594ZM800.776 0.933594L1077.67 701.69L850.645 0.933594H800.776V0.933594ZM1090.79 0.933594L1132.79 691.184V0.933594H1090.79V0.933594ZM1034.36 0.933594L1122.28 691.184L1077.67 0.933594H1034.36V0.933594ZM921.511 0.933594L1099.98 695.127L967.437 0.933594H921.511V0.933594ZM977.93 0.933594L1110.48 692.507L1022.56 0.933594H977.93V0.933594ZM502.886 1737.08L1029.12 1014.01L429.4 1737.08H502.886V1737.08ZM2279.71 1020.56L1317.82 899.842L2279.71 1083.57V1020.56ZM2279.71 948.401L1319.13 888.04L2279.71 1010.09V948.401ZM2279.71 877.521H1319.13L2279.71 937.882V877.521ZM2279.71 1095.37L1315.18 910.348L2279.71 1158.36V1095.37ZM2279.71 733.181L1319.13 853.903L2279.71 793.542V733.181ZM2279.71 805.357L1319.13 865.719H2279.71V805.357ZM2279.71 1414.25L1299.45 953.641L2279.71 1491.69V1414.25ZM2279.71 1504.8L1294.18 962.836L2279.71 1588.78V1504.8ZM2279.71 1170.18L1312.58 922.163L2279.71 1235.78V1170.18ZM2279.71 1328.96L1304.69 943.161L2279.71 1402.45V1328.96ZM2279.71 1247.59L1308.62 932.643L2279.71 1317.16V1247.59V1247.59ZM2279.71 426.108L1308.62 810.597L2279.71 494.342V426.108ZM27.8557 1671.47L989.745 973.329L0.294922 1600.59C4.23773 1626.84 13.4203 1650.47 27.8557 1671.47V1671.47ZM2279.71 154.47L1294.18 779.107L2279.71 237.139V157.09V154.47V154.47ZM2185.22 14.059L1282.38 760.741L2245.59 59.9849C2229.82 40.2968 2208.85 23.2416 2185.22 14.059V14.059ZM1963.44 0.933594L1266.65 743.673L2056.61 0.933594H1963.44ZM2073.68 0.933594L1274.5 751.559L2172.1 8.80625C2157.66 3.55349 2141.93 0.933594 2124.85 0.933594H2073.68V0.933594ZM2253.47 69.1675L1288.94 769.911L2279.72 141.331C2277.15 115.458 2268.12 90.6439 2253.47 69.1675V69.1675ZM2279.71 506.158L1312.58 821.103L2279.71 573.082V506.158ZM2279.71 583.587L1315.18 831.608L2279.71 647.891V583.587V583.587ZM2279.71 250.264L1299.45 789.612L2279.71 327.694V250.264V250.264ZM2279.71 340.819L1304.69 800.105L2279.71 412.983V340.819ZM2278.38 1601.91L1288.93 973.329L2250.82 1672.76C2266.43 1652.17 2275.97 1627.63 2278.38 1601.91V1601.91ZM2279.71 659.694L1317.82 843.411L2279.71 721.378V659.694ZM1036.98 1020.56L517.335 1737.08H582.936L1036.98 1020.56ZM656.435 1737.08L1047.49 1027.13L596.061 1737.08H656.435V1737.08ZM724.669 1737.08L1056.67 1032.38L669.548 1737.08H724.669ZM317.86 1737.08L1012.05 999.58L224.685 1737.08H317.86V1737.08ZM414.977 1737.08L1019.94 1006.14L333.618 1737.08H414.977V1737.08ZM97.3996 1726.56L996.308 982.524L34.4054 1680.63C51.5678 1700.61 73.1314 1716.33 97.3996 1726.56ZM207.63 1737.08L1004.18 990.41L109.215 1730.52C123.65 1735.76 139.396 1737.08 155.154 1737.08H207.63V1737.08ZM2244.27 1680.63L1282.38 982.524L2182.61 1726.56C2206.22 1717.39 2228.54 1701.63 2244.27 1680.63ZM1945.07 1737.08L1258.76 1006.14L1863.71 1737.08H1945.07ZM1847.98 1737.08L1249.57 1014.01L1775.78 1737.08H1847.98ZM1761.37 1737.08L1240.4 1020.58L1695.73 1737.08H1761.37ZM1682.62 1737.08L1231.2 1027.13L1622.24 1737.07H1682.62V1737.08ZM2054.01 1737.08L1266.65 999.58L1960.83 1737.08H2054.01ZM2169.49 1730.52L1274.5 990.41L2069.72 1737.08H2124.85C2140.6 1737.08 2155.05 1735.76 2169.49 1730.52ZM1220.72 1032.38L1552.72 1737.08H1609.14L1220.72 1032.38V1032.38ZM1540.91 1737.08L1211.53 1037.62L1488.41 1737.08H1540.91ZM1476.59 1737.08L1199.71 1041.58L1426.74 1737.08H1476.59ZM1414.91 1737.08L1189.21 1044.18L1367.7 1737.08H1414.91ZM1355.86 1737.08L1178.71 1048.14L1309.93 1737.08H1355.86ZM1243.01 1737.08L1156.39 1050.75L1199.71 1737.08H1243.01ZM1187.88 1737.08L1144.59 1052.07V1737.08H1187.88ZM1298.13 1737.08L1166.91 1049.45L1254.81 1737.08H1298.13ZM1023.87 1737.08L1110.48 1049.45L979.253 1737.08H1023.87ZM967.437 1737.08L1099.98 1048.14L922.821 1737.08H967.437V1737.08ZM911.006 1737.08L1088.16 1044.18L863.77 1737.08H911.006ZM851.955 1737.08L1077.65 1041.58L802.086 1737.08H851.955ZM790.283 1737.08L1067.17 1037.62L737.795 1737.08H790.283ZM1078.98 1737.08L1122.28 1050.75L1035.67 1737.08H1078.98ZM1132.79 1052.06L1090.79 1737.08H1132.79V1052.06V1052.06Z" fill="#DCDCDD"/>
</svg>
