<svg height="648" viewBox="0 -.05 1945.001 536.86609369" width="2500" xmlns="http://www.w3.org/2000/svg"><path d="m372.69 504c137.75.659 263.48-112.341 263.48-249.81 0-150.33-125.73-254.24-263.48-254.19h-118.55c-139.4-.05-254.14 103.891-254.14 254.19 0 137.499 114.74 250.47 254.14 249.81z" fill="#0079be"/><path d="m254.701 20.83c-127.38.04-230.6 103.29-230.63 230.721.03 127.409 103.249 230.649 230.63 230.689 127.41-.04 230.651-103.28 230.669-230.689-.019-127.431-103.259-230.681-230.669-230.721zm-146.19 230.721c.12-62.27 39.01-115.37 93.85-136.471v272.91c-54.84-21.089-93.731-74.16-93.85-136.439zm198.51 136.499v-272.979c54.86 21.05 93.81 74.18 93.91 136.48-.1 62.319-39.05 115.409-93.91 136.499z" fill="#fff"/><g fill="#211e1f"><path d="m716.953 108.431c0-23.841-12.431-22.271-24.351-22.53v-6.89c10.33.51 20.92.51 31.271.51 11.13 0 26.24-.51 45.859-.51 68.62 0 105.99 45.84 105.99 92.779 0 26.25-15.359 92.24-109.18 92.24-13.51 0-25.98-.521-38.43-.521-11.92 0-23.59.261-35.511.521v-6.88c15.891-1.601 23.591-2.13 24.351-20.16v-128.559zm25.98 124.329c0 20.41 14.59 22.79 27.57 22.79 57.26 0 76.06-43.21 76.06-82.71 0-49.55-31.81-85.33-82.949-85.33-10.88 0-15.88.78-20.68 1.061zm142.089 24.391h5.02c7.41 0 12.721 0 12.721-8.771v-71.819c0-11.649-3.971-13.27-13.78-18.54v-4.25c12.45-3.74 27.311-8.74 28.35-9.54 1.87-1.06 3.45-1.34 4.78-1.34 1.311 0 1.86 1.6 1.86 3.73v101.759c0 8.771 5.83 8.771 13.25 8.771h4.5v6.89c-9.021 0-18.3-.529-27.82-.529-9.54 0-19.09.26-28.88.529v-6.89zm28.35-155.071c-6.899 0-12.979-6.359-12.979-13.25 0-6.64 6.36-12.75 12.979-12.75 6.87 0 12.99 5.591 12.99 12.75 0 7.16-5.849 13.25-12.99 13.25zm53.529 76.061c0-9.8-2.931-12.44-15.36-17.48v-5.029c11.39-3.71 22.241-7.16 34.969-12.74.791 0 1.57.54 1.57 2.65v17.239c15.131-10.859 28.121-19.89 45.9-19.89 22.5 0 30.449 16.439 30.449 37.109v68.381c0 8.77 5.83 8.77 13.26 8.77h4.771v6.89c-9.301 0-18.57-.529-28.09-.529-9.551 0-19.102.26-28.631.529v-6.89h4.76c7.439 0 12.711 0 12.711-8.77v-68.631c0-15.13-9.23-22.54-24.361-22.54-8.469 0-21.99 6.891-30.77 12.73v78.439c0 8.771 5.859 8.771 13.291 8.771h4.76v6.89c-9.271 0-18.561-.53-28.1-.53-9.531 0-19.09.261-28.621.53v-6.89h4.78c7.42 0 12.71 0 12.71-8.771v-70.238zm135.709 12.739c-.551 2.391-.551 6.36 0 15.38 1.561 25.17 17.77 45.841 38.939 45.841 14.59 0 26.01-7.95 35.801-17.75l3.699 3.72c-12.199 16.16-27.301 29.939-49.02 29.939-42.15 0-50.631-40.83-50.631-57.779 0-51.961 34.98-67.341 53.52-67.341 21.48 0 44.551 13.511 44.801 41.61 0 1.61 0 3.18-.25 4.79l-2.4 1.59zm46.92-8.489c6.609 0 7.391-3.45 7.391-6.62 0-13.521-8.211-24.391-23.061-24.391-16.15 0-27.281 11.91-30.461 31.011zm36.291 74.76h7.16c7.398 0 12.699 0 12.699-8.771v-74.47c0-8.21-9.789-9.81-13.779-11.93v-3.96c19.35-8.23 29.959-15.13 32.369-15.13 1.57 0 2.35.8 2.35 3.46v23.85h.561c6.609-10.33 17.76-27.31 33.91-27.31 6.629 0 15.1 4.5 15.1 14.05 0 7.16-5.02 13.54-12.439 13.54-8.25 0-8.25-6.38-17.51-6.38-4.51 0-19.34 6.1-19.34 22.01v62.27c0 8.77 5.289 8.77 12.719 8.77h14.83v6.891c-14.58-.271-25.67-.53-37.09-.53-10.859 0-22 .26-31.539.53v-6.89zm102.039-29.971c3.451 17.5 14.041 32.351 33.4 32.351 15.6 0 21.439-9.54 21.439-18.82 0-31.28-57.76-21.21-57.76-63.88 0-14.85 11.939-33.94 41.08-33.94 8.471 0 19.859 2.4 30.189 7.71l1.881 27.011h-6.109c-2.641-16.681-11.91-26.23-28.891-26.23-10.6 0-20.66 6.101-20.66 17.49 0 31.04 61.48 21.47 61.48 63.08 0 17.49-14.051 36.06-45.59 36.06-10.6 0-23.051-3.71-32.32-9l-2.92-30.489zm315.361-100.19h-6.611c-5.039-31-27.039-43.47-56.709-43.47-30.5 0-74.76 20.399-74.76 84.01 0 53.58 38.189 91.999 78.99 91.999 26.229 0 47.979-18.02 53.279-45.859l6.08 1.58-6.08 38.699c-11.131 6.91-41.08 14.061-58.59 14.061-62 0-101.211-40.029-101.211-99.67 0-54.34 48.49-93.32 100.43-93.32 21.461 0 42.131 6.92 62.541 14.08zm9.561 130.161h5.02c7.43 0 12.75 0 12.75-8.771v-147.619c0-17.24-3.98-17.771-14.061-20.681v-4.24c10.6-3.439 21.73-8.22 27.301-11.409 2.889-1.58 5.029-2.921 5.809-2.921 1.621 0 2.15 1.601 2.15 3.73v183.14c0 8.771 5.82 8.771 13.25 8.771h4.471v6.89c-8.971 0-18.25-.53-27.801-.53-9.529 0-19.07.261-28.891.53v-6.89zm170.166-7.71c0 4.79 2.9 5.05 7.4 5.05 3.189 0 7.15-.26 10.609-.26v5.58c-11.408 1.05-33.139 6.62-38.18 8.2l-1.33-.801v-21.449c-15.879 12.979-28.09 22.25-46.92 22.25-14.309 0-29.148-9.271-29.148-31.521v-67.88c0-6.89-1.051-13.521-15.871-14.84v-5.04c9.551-.26 30.711-1.851 34.17-1.851 2.941 0 2.941 1.851 2.941 7.681v68.369c0 7.971 0 30.76 23.039 30.76 9.01 0 20.93-6.89 32.051-16.14v-71.34c0-5.28-12.711-8.19-22.23-10.851v-4.77c23.82-1.6 38.689-3.71 41.32-3.71 2.148 0 2.148 1.85 2.148 4.78v97.783zm52.734-87.46c10.59-9.011 24.898-19.09 39.488-19.09 30.75 0 49.281 26.8 49.281 55.669 0 34.721-25.43 69.45-63.352 69.45-19.6 0-29.93-6.37-36.83-9.271l-7.939 6.08-5.549-2.899c2.35-15.64 3.699-31.02 3.699-47.18v-113.98c0-17.239-4-17.77-14.061-20.68v-4.24c10.631-3.439 21.73-8.22 27.301-11.41 2.92-1.58 5.029-2.92 5.85-2.92 1.58 0 2.109 1.601 2.109 3.73v96.74h.003zm0 72.09c0 10.08 9.529 27.06 27.289 27.06 28.359 0 40.279-27.85 40.279-51.449 0-28.62-21.709-52.47-42.389-52.47-9.83 0-18.031 6.37-25.18 12.479v64.38zm-1143.383 184.079h2.03c5.18 0 10.66-.699 10.66-8.21v-75.56c0-7.521-5.48-8.23-10.66-8.23h-2.03v-4.33c5.63 0 14.28.57 21.37.57 7.2 0 15.84-.57 22.62-.57v4.33h-2.03c-5.17 0-10.659.71-10.659 8.23v75.56c0 7.511 5.489 8.21 10.659 8.21h2.03v4.351c-6.92 0-15.59-.57-22.78-.57-7.069 0-15.58.57-21.21.57z"/><path d="m736.293 423.111c-6.97 0-15.609-.58-22.79-.58-7.05 0-15.529.58-21.2.58h-.619v-5.58h2.64c5.229-.12 9.99-.54 10.04-7.59v-75.561c-.05-7.05-4.81-7.521-10.04-7.62h-2.64v-5.58h.619c5.671 0 14.311.57 21.36.57 7.18 0 15.811-.57 22.63-.57h.641v5.58h-2.661c-5.23.1-10.021.57-10.05 7.62v75.561c.029 7.05 4.819 7.47 10.05 7.59h2.66v5.58zm-.62-1.231v-3.08h-1.399c-5.15 0-11.28-.89-11.311-8.859v-75.561c.03-7.97 6.16-8.87 11.311-8.87h1.399v-3.06c-6.66 0-15.01.56-22.01.56-6.85 0-15.14-.52-20.72-.56v3.06h1.38c5.14 0 11.29.9 11.29 8.87v75.561c0 7.97-6.15 8.859-11.29 8.859h-1.38v3.08c5.58-.06 13.729-.58 20.56-.58 7.02 0 15.37.54 22.17.58zm99.69-27.81.289-.28v-54.08c0-11.84-8.229-13.56-12.549-13.56h-3.181v-4.331c6.79 0 13.42.57 20.19.57 5.909 0 11.85-.57 17.75-.57v4.331h-2.16c-6.07 0-12.85 1.149-12.85 18.31v65.64c0 5.041.149 10.08.859 14.551h-5.489l-74.25-82.79v59.43c0 12.55 2.43 16.86 13.55 16.86h2.439v4.35c-6.189 0-12.38-.57-18.59-.57-6.47 0-13.109.57-19.609.57v-4.35h2.02c9.95 0 12.971-6.761 12.971-18.29v-60.75c0-8.07-6.65-12.96-13.11-12.96h-1.88v-4.33c5.479 0 11.1.569 16.57.569 4.329 0 8.52-.569 12.839-.569z"/><path d="m843.708 425.281-5.949-.221-73.181-81.569v57.8c.17 12.54 2.08 16.101 12.94 16.24h3.09v5.58h-.64c-6.24 0-12.45-.58-18.601-.58-6.46 0-13.08.58-19.62.58h-.63v-5.58h2.66c9.53-.05 12.25-6.17 12.36-17.67v-60.74c-.021-7.68-6.32-12.34-12.5-12.36h-2.521v-5.56h.63c5.511 0 11.16.55 16.57.55 4.29 0 8.471-.55 13.33-.34l63.38 71.351v-53.04c-.08-11.48-7.729-12.86-11.93-12.961h-3.82v-5.56h.64c6.811 0 13.45.55 20.19.55 5.87 0 11.78-.55 17.74-.55h.63v5.559h-2.78c-5.95.171-12.06.69-12.229 17.7v65.63c0 5.04.149 10.08.85 14.45l.14.74h-.749zm-5.479-1.271h4.77c-.649-4.33-.76-9.13-.76-13.92v-65.63c0-17.31 7.25-18.949 13.46-18.949h1.52v-3.061c-5.68.04-11.38.56-17.109.56-6.6 0-13.02-.52-19.55-.56l-.01 3.061h2.55c4.43 0 13.18 1.979 13.18 14.21l-.2 54.499-.29.301-.489.45-64.131-72.521c-4.279 0-8.46.56-12.85.56-5.29 0-10.7-.52-15.93-.56l-.03 3.06h1.28c6.77 0 13.72 5.17 13.72 13.61v60.74c0 11.529-3.21 18.909-13.58 18.949l-1.39-.04v3.11c6.25-.06 12.67-.58 18.979-.58 6.021 0 12.011.521 17.97.58v-3.07h-1.819c-11.351-.04-14.17-4.979-14.181-17.52v-61.05zm-2.871-29.95.46-.42zm-.33-.279v-.05l-.12-.101zm44.421-64.761c-10.83 0-11.24 2.601-13.4 13.12h-4.33c.57-4.03 1.29-8.06 1.73-12.26.579-4.04.859-8.061.859-12.24h3.47c1.16 4.33 4.761 4.18 8.671 4.18h74.39c3.899 0 7.5-.14 7.8-4.479l3.439.58c-.56 3.899-1.14 7.79-1.58 11.689-.26 3.891-.26 7.79-.26 11.67l-4.34 1.61c-.3-5.33-1.02-13.87-10.67-13.87h-23.65v76.74c0 11.12 5.051 12.391 11.95 12.391h2.75v4.35c-5.62 0-15.729-.57-23.5-.57-8.649 0-18.76.57-24.39.57v-4.35h2.75c7.95 0 11.97-.711 11.97-12.091v-77.04z"/><path d="m936.301 423.111c-5.681 0-15.771-.58-23.521-.58-8.64 0-18.729.58-24.39.58h-.6v-5.58h3.35c7.95-.19 11.149-.29 11.33-11.471v-76.409h-23.02v-1.271h24.271v77.68c0 11.57-4.66 12.74-12.58 12.75h-2.12v3.04c5.69-.029 15.39-.55 23.76-.55 7.521 0 17.16.521 22.86.55v-3.04h-2.11c-6.97-.01-12.58-1.72-12.58-13.05v-77.38h24.28c9.68.04 10.94 8.27 11.26 13.62l3.11-1.15c0-3.76.02-7.53.28-11.33.42-3.71.95-7.39 1.49-11.07l-2.201-.37c-.669 4.2-4.72 4.41-8.35 4.37h-75.12c-3.39 0-7.1-.16-8.39-4.189h-2.38a85.256 85.256 0 0 1 -.851 11.699c-.42 3.961-1.08 7.771-1.62 11.581h3.091c1.899-10.051 3.14-13.311 13.899-13.16v1.27c-10.66.19-10.439 1.99-12.79 12.65l-.109.49h-5.55l.08-.75c.58-4.04 1.311-8.061 1.74-12.261.6-4 .88-8 .88-12.14v-.63h4.57l.1.45c.99 3.64 3.66 3.66 7.33 3.72h75.12c4.021-.06 6.94-.12 7.19-3.891l.06-.68.65.14 4.07.641-.091.63c-.58 3.86-1.149 7.76-1.569 11.63-.29 3.84-.29 7.74-.29 11.63v.45l-.4.16-5.11 1.859-.039-.84c-.381-5.42-.951-13.26-10.061-13.26h-23.02v76.11c.13 10.88 4.449 11.63 11.319 11.77h3.38v5.58zm30.39-4.961h2.03c5.181 0 10.669-.699 10.669-8.21v-75.56c0-7.521-5.488-8.23-10.669-8.23h-2.03v-4.33c8.78 0 23.801.57 35.889.57 12.141 0 27.111-.57 36.91-.57-.238 6.19-.109 15.73.32 22.061l-4.35 1.159c-.689-9.369-2.42-16.859-17.57-16.859h-20.029v37.77h17.141c8.648 0 10.539-4.89 11.389-12.699h4.32c-.279 5.649-.43 11.27-.43 16.89 0 5.49.15 10.96.43 16.44l-4.32.859c-.85-8.649-1.289-14.27-11.25-14.27h-17.279v33.59c0 9.39 8.33 9.39 17.57 9.39 17.309 0 24.939-1.17 29.27-17.59l4.041.99c-1.891 7.66-3.611 15.29-4.891 22.95-9.24 0-25.83-.57-38.791-.57-13 0-30.148.57-38.37.57z"/><path d="m1043.838 423.111c-9.26 0-25.84-.591-38.789-.591-12.99 0-30.131.591-38.361.591h-.609v-5.58h2.63c5.229-.08 9.969-.54 10.04-7.59v-75.561c-.07-7.04-4.811-7.51-10.04-7.62h-2.63v-5.559h.609c8.8 0 23.8.55 35.89.55 12.129 0 27.09-.55 36.91-.55h.65l-.031.64c-.1 2.17-.139 4.729-.139 7.45 0 4.989.139 10.439.43 14.55l.02.52-.48.141-5.07 1.32-.029-.74c-.85-9.36-2.1-16.15-16.949-16.29h-19.43l-.021 36.51h16.561c8.301-.08 9.789-4.33 10.77-12.1l.051-.57h5.53l-.01.649c-.279 5.62-.461 11.24-.461 16.86 0 5.46.182 10.93.461 16.42l.01.511-.52.119-5.01 1-.051-.68c-.99-8.8-1.061-13.62-10.641-13.729l-16.67-.011v32.99c.012 8.76 7.57 8.71 16.971 8.76 17.359-.1 24.32-.939 28.67-17.14l.141-.58.609.11 4.621 1.189-.141.601c-1.859 7.64-3.59 15.26-4.881 22.899l-.119.511zm-.529-1.26c1.25-7.271 2.898-14.57 4.67-21.831l-2.85-.72c-4.32 16.141-12.682 17.58-29.701 17.471-9.08 0-18.18 0-18.221-10.011v-34.22h17.922c10.068-.11 11.1 5.97 11.809 14.18l3.121-.649a301.996 301.996 0 0 1 -.41-15.931c0-5.43.129-10.829.41-16.26h-3.121c-.799 7.51-3.15 12.79-11.939 12.69h-17.791v-39.04h20.682c15-.101 17.488 7.64 18.129 16.71l3.111-.84c-.25-4.07-.422-9.29-.422-14.11 0-2.47.061-4.8.141-6.84-9.799.04-24.4.56-36.27.56-11.85 0-26.439-.52-35.27-.56v3.06h1.399c5.14 0 11.281.9 11.3 8.87v75.561c-.02 7.95-6.16 8.83-11.3 8.87h-1.399v3.04c8.411-.011 25.071-.55 37.739-.55 12.72 0 28.96.539 38.261.55zm24.893-84.751c0-10.52-5.76-10.95-10.25-10.95h-2.59v-4.34c4.619 0 13.549.58 22.35.58 8.65 0 15.58-.58 23.211-.58 18.158 0 34.33 4.91 34.33 25.41 0 12.95-8.65 20.89-20.041 25.38l24.65 36.9c4.039 6.1 6.91 7.81 13.99 8.649v4.351c-4.76 0-9.381-.57-14.131-.57-4.469 0-9.1.57-13.551.57-11.1-14.57-20.639-30.15-30.01-46.75h-9.488v30.88c0 11.12 5.17 11.52 11.799 11.52h2.6v4.351c-8.24 0-16.568-.57-24.799-.57-6.93 0-13.711.57-20.91.57v-4.351h2.59c5.359 0 10.25-2.42 10.25-7.77zm18.468 33.46h7.041c14.43 0 22.199-5.479 22.199-22.5 0-12.82-8.209-21.05-21.059-21.05-4.33 0-6.17.45-8.182.58v42.97z"/><path d="m1153.852 423.111c-4.83 0-9.42-.58-14.16-.58-4.4 0-9 .58-14.029.34-11.061-14.51-20.541-30-29.861-46.48h-8.52v30.221c.15 10.85 4.51 10.76 11.18 10.92h3.23v5.58h-.641c-8.24 0-16.609-.58-24.799-.58-6.891 0-13.65.58-20.891.58h-.631v-5.58h3.221c5.199-.03 9.58-2.29 9.6-7.15v-73.279c-.109-10.24-5.119-10.181-9.6-10.33h-3.221v-5.59h.631c4.67 0 13.57.569 22.35.569 8.609 0 15.541-.569 23.221-.569 18.17.04 34.91 5.06 34.959 26 0 13.03-8.609 21.159-19.74 25.7l24.23 36.279c4.031 5.98 6.541 7.471 13.561 8.37l.529.08v5.5h-.619zm-67.199-47.981h9.859l.17.32c9.4 16.57 18.869 32.13 29.49 46.43 4.4 0 9.029-.59 13.52-.59 4.609 0 9.049.5 13.539.57v-3.16c-6.77-.84-9.939-2.86-13.879-8.85l-25.09-37.551.709-.29c11.281-4.439 19.631-12.149 19.641-24.83-.01-20.01-15.551-24.649-33.68-24.729-7.611 0-14.531.57-23.221.57-8.469 0-17.02-.53-21.74-.57v3.06h1.98c4.48.011 10.859.75 10.859 11.591v73.279c0 5.79-5.43 8.43-10.859 8.44h-1.98v3.039c6.941-.02 13.51-.569 20.281-.569 8.068 0 16.199.55 24.18.569v-3.039h-1.971c-6.58-.011-12.439-.83-12.439-12.21v-31.48h.629zm0-3.96h-.631v-44.16l.549-.05c1.971-.149 3.922-.56 8.281-.56 13.141 0 21.68 8.54 21.699 21.689-.039 17.22-8.299 23.07-22.84 23.08h-7.058zm7.058-1.239c14.279-.121 21.461-5.08 21.611-21.841-.08-12.6-7.91-20.42-20.471-20.47-3.9 0-5.73.36-7.57.521v41.79zm158.051 24.139.26-.28v-54.08c0-11.84-8.209-13.56-12.529-13.56h-3.16v-4.331c6.77 0 13.391.57 20.18.57 5.92 0 11.811-.57 17.76-.57v4.331h-2.17c-6.059 0-12.84 1.149-12.84 18.31v65.64c0 5.041.141 10.08.85 14.551h-5.469l-74.26-82.79v59.43c0 12.55 2.449 16.86 13.549 16.86h2.451v4.35c-6.191 0-12.4-.57-18.59-.57-6.512 0-13.141.57-19.621.57v-4.35h2c9.961 0 12.99-6.761 12.99-18.29v-60.75c0-8.07-6.631-12.96-13.109-12.96h-1.881v-4.33c5.461 0 11.111.569 16.58.569 4.301 0 8.5-.569 12.83-.569z"/><path d="m1260.118 425.27-5.939-.2-73.189-81.579v57.79c.17 12.55 2.07 16.109 12.949 16.25h3.051v5.58h-.631c-6.238 0-12.42-.591-18.6-.591-6.439 0-13.1.591-19.59.591h-.65v-5.58h2.65c9.52-.04 12.25-6.17 12.34-17.71v-60.71c-.01-7.681-6.299-12.34-12.459-12.351h-2.531v-5.579h.65c5.5 0 11.141.569 16.58.569 4.24 0 8.42-.569 13.26-.37l63.391 71.381v-53.061c-.041-11.46-7.721-12.88-11.91-12.939h-3.811v-5.58h.631c6.82 0 13.459.569 20.199.569 5.881 0 11.791-.569 17.73-.569h.629v5.58h-2.77c-5.949.16-12.08.689-12.23 17.7v65.629c0 5.04.131 10.04.861 14.48l.08.7zm-5.479-1.26h4.74c-.631-4.33-.771-9.13-.771-13.92v-65.63c.01-17.311 7.311-18.91 13.49-18.96h1.51v-3.05c-5.66.04-11.369.56-17.1.56-6.619 0-13.051-.52-19.58-.56v3.05h2.561c4.439.05 13.18 1.99 13.18 14.2l-.199 54.52-.281.3-.439.46-64.18-72.529c-4.281 0-8.461.56-12.82.56-5.34 0-10.73-.52-15.98-.56v3.05h1.279c6.771.05 13.721 5.16 13.721 13.61v60.709c0 11.58-3.26 18.95-13.6 18.99l-1.4-.01v3.05c6.23-.03 12.66-.55 18.99-.55 6.051 0 12.041.52 18 .55v-3.04h-1.82c-11.359-.01-14.199-4.979-14.219-17.53v-61.02zm-2.881-29.95.439-.41zm-.359-.27v-.051l-.111-.109zm46.062 8.08c-1.459 4.89-3.199 8.67-3.199 11.24 0 4.34 6.07 5.04 10.811 5.04h1.609v4.35c-5.779-.311-11.67-.57-17.48-.57-5.189 0-10.35.261-15.549.57v-4.35h.869c5.619 0 10.391-3.311 12.52-9.38l23.1-66.181c1.861-5.34 4.48-12.55 5.352-17.899 4.59-1.57 10.369-4.45 13.1-6.19.449-.149.699-.3 1.15-.3.43 0 .709 0 1.029.45.42 1.14.84 2.45 1.301 3.6l26.529 75.44c1.73 5.04 3.439 10.37 5.311 14.71 1.74 4.04 4.779 5.75 9.549 5.75h.85v4.35c-6.488-.31-12.988-.569-19.889-.569-7.07 0-14.301.26-21.65.569v-4.35h1.6c3.301 0 8.941-.56 8.941-4.17 0-1.87-1.301-5.76-2.91-10.39l-5.611-16.73h-32.729zm21.041-63.9h-.291l-13.41 40.82h26.951z"/><path d="m1374.272 423.111c-6.49-.29-12.98-.591-19.85-.591-7.07 0-14.25.301-21.631.591l-.65.04v-5.64h2.221c3.34 0 8.299-.76 8.299-3.529.041-1.641-1.26-5.601-2.85-10.19l-5.49-16.31h-31.809l-4.48 14.569c-1.461 4.92-3.189 8.73-3.18 11.08.049 3.521 5.439 4.38 10.219 4.38h2.221v5.64l-.65-.04c-5.77-.29-11.66-.591-17.41-.591-5.17 0-10.369.301-15.539.591l-.67.04v-5.64h1.49c5.369-.02 9.85-3.069 11.93-8.939l23.09-66.19c1.891-5.35 4.49-12.54 5.74-18.29 4.52-1.53 10.309-4.43 13.09-6.19.4-.13.801-.33 1.391-.33.35-.01 1.129.08 1.59.841.41 1.189.859 2.47 1.299 3.64l26.561 75.431c1.701 5.06 3.42 10.39 5.301 14.649 1.67 3.851 4.32 5.36 8.959 5.38h1.471v5.64zm-40.871-1.29c7.141-.25 14.131-.53 21.021-.53 6.699 0 12.969.28 19.238.53v-3.011h-.199c-4.939.03-8.35-1.909-10.121-6.159-1.879-4.38-3.639-9.73-5.328-14.78l-26.551-75.42c-.439-1.15-.859-2.46-1.24-3.48-.119-.14-.09-.14-.209-.14h-.262c-.299 0-.469.09-.84.19-2.779 1.81-8.568 4.64-12.84 5.77-.889 5.46-3.479 12.66-5.359 18l-23.08 66.2c-2.199 6.26-7.25 9.83-13.119 9.819h-.23v3.011c4.939-.25 9.939-.53 14.949-.53 5.57 0 11.27.28 16.77.53v-3.011h-.93c-4.689-.06-11.25-.59-11.43-5.68.01-2.88 1.781-6.569 3.189-11.439l.631.189-.631-.21 4.75-15.42h33.621l5.789 17.141c1.621 4.63 2.93 8.47 2.93 10.59-.199 4.43-6.289 4.74-9.559 4.83h-.961v3.01zm-29.479-42.411 13.809-42.07h.781v.63l-.16.03.16-.03v-.63h.43l13.689 42.07zm1.729-1.25h25.24l-12.551-38.65zm12.23-40.009.33-.11zm62.772-9.131c-10.82 0-11.25 2.601-13.422 13.12h-4.33c.57-4.03 1.301-8.06 1.752-12.26.578-4.04.84-8.061.84-12.24h3.479c1.15 4.33 4.771 4.18 8.641 4.18h74.43c3.871 0 7.471-.14 7.771-4.479l3.449.58c-.551 3.899-1.119 7.79-1.561 11.689-.309 3.891-.309 7.79-.309 11.67l-4.32 1.61c-.271-5.33-.99-13.87-10.66-13.87h-23.65v76.74c0 11.12 5.061 12.391 11.961 12.391h2.738v4.35c-5.619 0-15.699-.57-23.5-.57-8.639 0-18.75.57-24.369.57v-4.35h2.73c7.949 0 11.99-.711 11.99-12.091v-77.04z"/><path d="m1437.463 423.111c-5.66 0-15.76-.58-23.5-.58-8.621 0-18.721.58-24.371.58h-.639v-5.58h3.369c7.949-.19 11.141-.29 11.34-11.471l-.02-76.409h-22.99v-1.271h24.26v77.68c0 11.57-4.67 12.71-12.59 12.74h-2.119v3.08c5.709-.061 15.389-.58 23.76-.58 7.529 0 17.17.521 22.869.58v-3.08h-2.129c-6.932-.03-12.551-1.7-12.57-13.04v-77.38h24.279c9.68.04 10.949 8.27 11.221 13.62l3.15-1.15c0-3.76.01-7.53.289-11.31.4-3.71.939-7.41 1.471-11.091l-2.18-.37c-.66 4.2-4.73 4.431-8.32 4.37h-75.161c-3.4.04-7.08-.16-8.391-4.21h-2.359c-.041 4-.311 7.881-.881 11.721-.379 3.97-1.09 7.79-1.629 11.58h3.09c1.91-10.051 3.16-13.311 13.939-13.16v1.27c-10.689.181-10.449 1.99-12.811 12.65l-.109.49h-5.561l.09-.721c.6-4.069 1.32-8.09 1.74-12.26.59-4.03.871-8.03.871-12.17v-.63h4.558l.121.45c1.01 3.64 3.639 3.66 7.33 3.72l.729.02h74.432c3.98-.079 6.889-.14 7.139-3.899l.041-.69.68.141 4.09.64-.109.63c-.59 3.86-1.141 7.76-1.58 11.63-.291 3.84-.291 7.75-.291 11.63v.45l-.408.16-5.111 1.86-.029-.841c-.371-5.419-.941-13.26-10.051-13.26h-23.029v76.11c.15 10.88 4.459 11.63 11.32 11.77h3.379v5.58zm31.125-4.961h2.021c5.209 0 10.658-.699 10.658-8.21v-75.56c0-7.521-5.449-8.23-10.658-8.23h-2.021v-4.33c5.631 0 14.271.57 21.32.57 7.24 0 15.891-.57 22.67-.57v4.33h-2.02c-5.189 0-10.689.71-10.689 8.23v75.56c0 7.511 5.5 8.21 10.689 8.21h2.02v4.351c-6.93 0-15.59-.57-22.779-.57-7.08 0-15.58.57-21.211.57z"/><path d="m1512.583 423.111c-6.969 0-15.6-.591-22.789-.591-7.051 0-15.57.591-21.201.591h-.629v-5.58h2.65c5.209-.08 9.99-.53 10.01-7.59v-75.561c-.02-7.04-4.801-7.521-10.01-7.62h-2.65v-5.559h.629c5.631 0 14.291.55 21.32.55 7.191 0 15.84-.55 22.67-.55h.611v5.559h-2.631c-5.27.1-10 .58-10.07 7.62v75.561c.07 7.06 4.801 7.51 10.07 7.59h2.631v5.58zm-.649-1.26v-3.051h-1.371c-5.17 0-11.289-.909-11.289-8.859v-75.561c0-7.97 6.119-8.87 11.289-8.87h1.371v-3.06c-6.66.04-14.99.56-22.021.56-6.83 0-15.1-.52-20.689-.56v3.06h1.391c5.129 0 11.27.9 11.289 8.87v75.561c-.02 7.949-6.16 8.859-11.289 8.859h-1.391v3.051c5.561-.061 13.721-.551 20.57-.551 6.99 0 15.34.521 22.139.551zm58.154-102.191c30.74 0 55.24 19.06 55.24 49.77 0 33.181-23.791 55.23-54.49 55.23-30.6 0-53.939-20.771-53.939-51.78 0-29.99 23.199-53.22 53.189-53.22zm2.18 98.65c27.98 0 32.85-24.68 32.85-45.71 0-21.08-11.359-46.6-35.309-46.6-25.24 0-32.73 22.5-32.73 41.81 0 25.82 11.82 50.5 35.189 50.5z"/><path d="m1516.252 372.88c.061-30.34 23.541-53.81 53.83-53.85v1.239c-29.639 0-52.58 22.931-52.609 52.61.07 30.66 23.08 51.12 53.361 51.13 30.398-.01 53.85-21.75 53.898-54.609-.029-30.32-24.16-49.091-54.648-49.131v-1.239c30.979.02 55.809 19.27 55.869 50.37-.029 33.529-24.131 55.81-55.119 55.869-30.842-.06-54.521-21.04-54.58-52.39h-.002zm20.202-5.07c.039-19.399 7.619-42.46 33.359-42.46 24.48.061 35.91 26.061 35.949 47.25-.039 21.03-4.988 46.311-33.488 46.311v-1.221c27.42-.039 32.17-24.06 32.238-45.09 0-20.909-11.26-45.939-34.699-45.97-24.74.03-32.061 21.97-32.109 41.18.02 25.69 11.73 49.82 34.57 49.88v1.221c-23.941-.031-35.781-25.13-35.82-51.101zm186.054 26.26.291-.28v-54.08c0-11.84-8.24-13.56-12.57-13.56h-3.121v-4.331c6.76 0 13.391.57 20.15.57 5.93 0 11.84-.57 17.76-.57v4.331h-2.18c-6.041 0-12.83 1.149-12.83 18.31v65.64c0 5.041.141 10.08.871 14.551h-5.471l-74.281-82.79v59.43c0 12.55 2.441 16.86 13.541 16.86h2.469v4.35c-6.209 0-12.398-.57-18.6-.57-6.49 0-13.139.57-19.629.57v-4.35h2.029c9.971 0 12.961-6.761 12.961-18.29v-60.75c0-8.07-6.602-12.96-13.111-12.96h-1.879v-4.33c5.479 0 11.109.569 16.58.569 4.33 0 8.5-.569 12.84-.569z"/><path d="m1730.889 425.27-5.969-.21-73.17-81.57v57.801c.158 12.54 2.068 16.09 12.898 16.22h3.121v5.6h-.631c-6.25 0-12.439-.58-18.6-.58-6.471 0-13.09.58-19.641.58h-.6v-5.6h2.641c9.51-.029 12.24-6.149 12.359-17.65v-60.75c-.02-7.68-6.311-12.34-12.51-12.35h-2.49v-5.56h.6c5.531 0 11.15.551 16.59.551 4.281 0 8.441-.551 13.32-.34l63.361 71.35v-53.04c-.041-11.479-7.721-12.86-11.941-12.96h-3.789v-5.559h.65c6.789 0 13.439.55 20.148.55 5.92 0 11.801-.55 17.781-.55h.619v5.559h-2.801c-5.93.17-12.068.71-12.189 17.7v65.63c0 5.04.109 10.069.811 14.479l.119.7h-.687zm-5.478-1.26h4.719c-.629-4.33-.74-9.13-.74-13.92v-65.63c0-17.34 7.271-18.91 13.451-18.96h1.559v-3.05c-5.689.04-11.389.56-17.158.56-6.561 0-13.012-.52-19.541-.56v3.05h2.529c4.471.05 13.17 2.021 13.17 14.22l-.158 54.5-.271.301-.459.459-64.18-72.529c-4.25 0-8.461.56-12.84.56-5.311 0-10.721-.52-15.971-.56v3.05h1.27c6.771.05 13.74 5.16 13.74 13.61v60.75c0 11.53-3.219 18.91-13.59 18.95l-1.42-.011v3.051c6.26-.03 12.68-.55 19.02-.55 6.01 0 11.98.52 17.971.55v-3.04h-1.861c-11.318-.011-14.148-4.98-14.148-17.521v-61.05zm-2.901-29.95.459-.41zm-.34-.27v-.051l-.121-.109zm46.022 8.08c-1.41 4.89-3.16 8.67-3.16 11.24 0 4.34 6.07 5.04 10.801 5.04h1.609v4.35c-5.77-.311-11.689-.57-17.459-.57-5.211 0-10.381.261-15.551.57v-4.35h.82c5.65 0 10.43-3.311 12.561-9.38l23.1-66.181c1.859-5.34 4.469-12.55 5.311-17.899 4.619-1.57 10.379-4.45 13.148-6.19.41-.149.701-.3 1.141-.3.43 0 .699 0 .99.45.439 1.14.891 2.45 1.32 3.6l26.52 75.44c1.73 5.04 3.451 10.37 5.35 14.71 1.73 4.04 4.77 5.75 9.51 5.75h.881v4.35c-6.5-.31-12.99-.569-19.92-.569-7.051 0-14.27.26-21.631.569v-4.35h1.602c3.289 0 8.949-.56 8.949-4.17 0-1.87-1.311-5.76-2.92-10.39l-5.6-16.73h-32.74zm21.08-63.9h-.289l-13.43 40.82h26.988z"/><path d="m1845.022 423.111c-6.49-.26-12.969-.58-19.859-.58-7.031 0-14.25.32-21.611.58l-.639.04v-5.62h2.189c3.359 0 8.33-.78 8.34-3.55.029-1.641-1.27-5.57-2.879-10.19l-5.48-16.31h-31.83l-4.461 14.569c-1.439 4.94-3.16 8.73-3.129 11.061 0 3.54 5.398 4.42 10.17 4.42h2.199v5.62l-.639-.04c-5.771-.26-11.672-.58-17.41-.58-5.17 0-10.352.32-15.551.58l-.631.04v-5.62h1.451c5.379-.021 9.879-3.11 11.98-8.96l23.08-66.19c1.84-5.35 4.439-12.54 5.719-18.27 4.531-1.57 10.32-4.45 13.121-6.211.379-.13.77-.3 1.359-.3.381-.04 1.119.05 1.58.84.43 1.131.85 2.44 1.33 3.61l26.52 75.431c1.721 5.06 3.451 10.39 5.32 14.68 1.689 3.82 4.32 5.33 8.92 5.37h1.5v5.62zm-40.869-1.271c7.129-.27 14.15-.55 21.01-.55 6.709 0 13 .28 19.279.53l-.02-3.011h-.24c-4.881.011-8.289-1.909-10.08-6.159-1.9-4.38-3.619-9.73-5.34-14.761l-26.541-75.439c-.43-1.15-.869-2.46-1.219-3.44-.121-.18-.109-.18-.221-.18h-.27c-.299 0-.461.1-.811.2-2.809 1.77-8.59 4.649-12.859 5.76-.891 5.46-3.51 12.65-5.369 18l-23.09 66.2c-2.191 6.26-7.23 9.83-13.131 9.819h-.211v3.011c4.961-.25 9.92-.53 14.941-.53 5.59 0 11.279.28 16.83.53v-3.011h-.98c-4.689-.06-11.27-.569-11.439-5.699.029-2.86 1.818-6.53 3.209-11.42l.59.189-.59-.21 4.75-15.42h33.631l5.779 17.14c1.59 4.641 2.9 8.471 2.9 10.591-.211 4.43-6.26 4.739-9.561 4.829h-.949v3.031zm-29.461-42.439 13.83-42.061h.75v.63l-.15.03.15-.03v-.63h.451l13.629 42.061zm1.73-1.241h25.221l-12.541-38.63zm12.25-40.009.289-.11zm92.748 70.209c0 5.771 4 7.49 8.621 8.08 5.91.44 12.4.44 19.061-.29 6.039-.729 11.24-4.189 13.818-7.79 2.301-3.18 3.602-7.22 4.471-10.39h4.18c-1.58 8.22-3.6 16.32-5.34 24.53-12.66 0-25.379-.57-38.051-.57-12.709 0-25.379.57-38.068.57v-4.351h1.979c5.221 0 10.861-.699 10.861-9.649v-74.12c0-7.521-5.641-8.23-10.861-8.23h-1.979v-4.33c7.619 0 15.129.57 22.76.57 7.379 0 14.58-.57 21.939-.57v4.33h-3.631c-5.459 0-9.76.16-9.76 7.78z"/><path d="m1926.231 423.111c-12.709 0-25.398-.58-38.049-.58-12.701 0-25.391.58-38.1.58h-.611v-5.58h2.621c5.23-.12 10.17-.48 10.23-9.03v-74.149c-.061-7.01-4.971-7.49-10.23-7.591h-2.621v-5.559h.611c7.67 0 15.18.55 22.799.55 7.32 0 14.521-.55 21.93-.55h.592v5.559h-4.211c-5.59.16-9.07-.1-9.18 7.171v74.43c.039 5.37 3.561 6.82 8.061 7.45 2.549.18 5.219.29 8 .29 3.529 0 7.199-.17 10.92-.57 5.879-.689 10.939-4.08 13.42-7.52 2.219-3.08 3.5-7.04 4.359-10.19l.131-.479h5.43l-.131.76c-1.629 8.25-3.609 16.31-5.359 24.52l-.119.49h-.493zm-.52-1.26c1.67-7.82 3.561-15.471 5.111-23.271h-2.961c-.9 3.14-2.18 7.01-4.449 10.16-2.691 3.74-8.031 7.26-14.281 8.03-3.779.39-7.52.59-11.059.59-2.791 0-5.5-.13-8.111-.311-4.689-.52-9.24-2.52-9.219-8.689v-74.43c0-8.01 5.068-8.42 10.449-8.42h2.98v-3.06c-7.109.04-14.109.569-21.291.569-7.469 0-14.77-.529-22.17-.569v3.06h1.381c5.15 0 11.449.9 11.449 8.84v74.15c0 9.33-6.27 10.3-11.449 10.3h-1.381v3.05c12.471-.01 24.941-.55 37.471-.55s25.052.54 37.53.551zm4.11-104.131c8.689 0 15.18 6.68 15.18 15.24 0 8.52-6.49 15.14-15.18 15.14-8.691 0-15.191-6.62-15.191-15.14-.001-8.559 6.499-15.24 15.191-15.24zm0 27.55c6.789 0 12.01-5.8 12.01-12.31 0-6.55-5.141-12.4-12.01-12.4-6.83 0-12.051 5.851-12.051 12.4 0 6.51 5.221 12.31 12.051 12.31zm-7.561-4.31v-.75c1.869-.26 2.209-.2 2.209-1.36v-11.24c0-1.579-.17-2.119-2.139-2.04v-.77h7.77c2.68 0 5.129 1.27 5.129 4.03 0 2.26-1.5 3.93-3.59 4.58l2.49 3.479c1.17 1.58 2.48 3.061 3.35 3.58v.49h-2.959c-1.42 0-2.66-2.99-5.461-7h-1.68v5.05c0 1 .35.94 2.221 1.2v.75h-7.34zm5.119-8h1.791c1.959 0 2.879-1.49 2.879-3.88 0-2.42-1.42-3.271-2.979-3.271h-1.691z"/></g><path d="m372.69 504c137.75.659 263.48-112.341 263.48-249.81 0-150.33-125.73-254.24-263.48-254.19h-118.55c-139.4-.05-254.14 103.891-254.14 254.19 0 137.499 114.74 250.47 254.14 249.81z" fill="#0079be"/><path d="m254.701 20.83c-127.38.04-230.6 103.29-230.63 230.721.03 127.409 103.249 230.649 230.63 230.689 127.41-.04 230.651-103.28 230.669-230.689-.019-127.431-103.259-230.681-230.669-230.721zm-146.19 230.721c.12-62.27 39.01-115.37 93.85-136.471v272.91c-54.84-21.089-93.731-74.16-93.85-136.439zm198.51 136.499v-272.979c54.86 21.05 93.81 74.18 93.91 136.48-.1 62.319-39.05 115.409-93.91 136.499z" fill="#fff"/><g fill="#211e1f"><path d="m716.953 108.431c0-23.841-12.431-22.271-24.351-22.53v-6.89c10.33.51 20.92.51 31.271.51 11.13 0 26.24-.51 45.859-.51 68.62 0 105.99 45.84 105.99 92.779 0 26.25-15.359 92.24-109.18 92.24-13.51 0-25.98-.521-38.43-.521-11.92 0-23.59.261-35.511.521v-6.88c15.891-1.601 23.591-2.13 24.351-20.16v-128.559zm25.98 124.329c0 20.41 14.59 22.79 27.57 22.79 57.26 0 76.06-43.21 76.06-82.71 0-49.55-31.81-85.33-82.949-85.33-10.88 0-15.88.78-20.68 1.061zm142.089 24.391h5.02c7.41 0 12.721 0 12.721-8.771v-71.819c0-11.649-3.971-13.27-13.78-18.54v-4.25c12.45-3.74 27.311-8.74 28.35-9.54 1.87-1.06 3.45-1.34 4.78-1.34 1.311 0 1.86 1.6 1.86 3.73v101.759c0 8.771 5.83 8.771 13.25 8.771h4.5v6.89c-9.021 0-18.3-.529-27.82-.529-9.54 0-19.09.26-28.88.529v-6.89zm28.35-155.071c-6.899 0-12.979-6.359-12.979-13.25 0-6.64 6.36-12.75 12.979-12.75 6.87 0 12.99 5.591 12.99 12.75 0 7.16-5.849 13.25-12.99 13.25zm53.529 76.061c0-9.8-2.931-12.44-15.36-17.48v-5.029c11.39-3.71 22.241-7.16 34.969-12.74.791 0 1.57.54 1.57 2.65v17.239c15.131-10.859 28.121-19.89 45.9-19.89 22.5 0 30.449 16.439 30.449 37.109v68.381c0 8.77 5.83 8.77 13.26 8.77h4.771v6.89c-9.301 0-18.57-.529-28.09-.529-9.551 0-19.102.26-28.631.529v-6.89h4.76c7.439 0 12.711 0 12.711-8.77v-68.631c0-15.13-9.23-22.54-24.361-22.54-8.469 0-21.99 6.891-30.77 12.73v78.439c0 8.771 5.859 8.771 13.291 8.771h4.76v6.89c-9.271 0-18.561-.53-28.1-.53-9.531 0-19.09.261-28.621.53v-6.89h4.78c7.42 0 12.71 0 12.71-8.771v-70.238zm135.709 12.739c-.551 2.391-.551 6.36 0 15.38 1.561 25.17 17.77 45.841 38.939 45.841 14.59 0 26.01-7.95 35.801-17.75l3.699 3.72c-12.199 16.16-27.301 29.939-49.02 29.939-42.15 0-50.631-40.83-50.631-57.779 0-51.961 34.98-67.341 53.52-67.341 21.48 0 44.551 13.511 44.801 41.61 0 1.61 0 3.18-.25 4.79l-2.4 1.59zm46.92-8.489c6.609 0 7.391-3.45 7.391-6.62 0-13.521-8.211-24.391-23.061-24.391-16.15 0-27.281 11.91-30.461 31.011zm36.291 74.76h7.16c7.398 0 12.699 0 12.699-8.771v-74.47c0-8.21-9.789-9.81-13.779-11.93v-3.96c19.35-8.23 29.959-15.13 32.369-15.13 1.57 0 2.35.8 2.35 3.46v23.85h.561c6.609-10.33 17.76-27.31 33.91-27.31 6.629 0 15.1 4.5 15.1 14.05 0 7.16-5.02 13.54-12.439 13.54-8.25 0-8.25-6.38-17.51-6.38-4.51 0-19.34 6.1-19.34 22.01v62.27c0 8.77 5.289 8.77 12.719 8.77h14.83v6.891c-14.58-.271-25.67-.53-37.09-.53-10.859 0-22 .26-31.539.53v-6.89zm102.039-29.971c3.451 17.5 14.041 32.351 33.4 32.351 15.6 0 21.439-9.54 21.439-18.82 0-31.28-57.76-21.21-57.76-63.88 0-14.85 11.939-33.94 41.08-33.94 8.471 0 19.859 2.4 30.189 7.71l1.881 27.011h-6.109c-2.641-16.681-11.91-26.23-28.891-26.23-10.6 0-20.66 6.101-20.66 17.49 0 31.04 61.48 21.47 61.48 63.08 0 17.49-14.051 36.06-45.59 36.06-10.6 0-23.051-3.71-32.32-9l-2.92-30.489zm315.361-100.19h-6.611c-5.039-31-27.039-43.47-56.709-43.47-30.5 0-74.76 20.399-74.76 84.01 0 53.58 38.189 91.999 78.99 91.999 26.229 0 47.979-18.02 53.279-45.859l6.08 1.58-6.08 38.699c-11.131 6.91-41.08 14.061-58.59 14.061-62 0-101.211-40.029-101.211-99.67 0-54.34 48.49-93.32 100.43-93.32 21.461 0 42.131 6.92 62.541 14.08zm9.561 130.161h5.02c7.43 0 12.75 0 12.75-8.771v-147.619c0-17.24-3.98-17.771-14.061-20.681v-4.24c10.6-3.439 21.73-8.22 27.301-11.409 2.889-1.58 5.029-2.921 5.809-2.921 1.621 0 2.15 1.601 2.15 3.73v183.14c0 8.771 5.82 8.771 13.25 8.771h4.471v6.89c-8.971 0-18.25-.53-27.801-.53-9.529 0-19.07.261-28.891.53v-6.89zm170.166-7.71c0 4.79 2.9 5.05 7.4 5.05 3.189 0 7.15-.26 10.609-.26v5.58c-11.408 1.05-33.139 6.62-38.18 8.2l-1.33-.801v-21.449c-15.879 12.979-28.09 22.25-46.92 22.25-14.309 0-29.148-9.271-29.148-31.521v-67.88c0-6.89-1.051-13.521-15.871-14.84v-5.04c9.551-.26 30.711-1.851 34.17-1.851 2.941 0 2.941 1.851 2.941 7.681v68.369c0 7.971 0 30.76 23.039 30.76 9.01 0 20.93-6.89 32.051-16.14v-71.34c0-5.28-12.711-8.19-22.23-10.851v-4.77c23.82-1.6 38.689-3.71 41.32-3.71 2.148 0 2.148 1.85 2.148 4.78v97.783zm52.734-87.46c10.59-9.011 24.898-19.09 39.488-19.09 30.75 0 49.281 26.8 49.281 55.669 0 34.721-25.43 69.45-63.352 69.45-19.6 0-29.93-6.37-36.83-9.271l-7.939 6.08-5.549-2.899c2.35-15.64 3.699-31.02 3.699-47.18v-113.98c0-17.239-4-17.77-14.061-20.68v-4.24c10.631-3.439 21.73-8.22 27.301-11.41 2.92-1.58 5.029-2.92 5.85-2.92 1.58 0 2.109 1.601 2.109 3.73v96.74h.003zm0 72.09c0 10.08 9.529 27.06 27.289 27.06 28.359 0 40.279-27.85 40.279-51.449 0-28.62-21.709-52.47-42.389-52.47-9.83 0-18.031 6.37-25.18 12.479v64.38zm-1143.383 184.079h2.03c5.18 0 10.66-.699 10.66-8.21v-75.56c0-7.521-5.48-8.23-10.66-8.23h-2.03v-4.33c5.63 0 14.28.57 21.37.57 7.2 0 15.84-.57 22.62-.57v4.33h-2.03c-5.17 0-10.659.71-10.659 8.23v75.56c0 7.511 5.489 8.21 10.659 8.21h2.03v4.351c-6.92 0-15.59-.57-22.78-.57-7.069 0-15.58.57-21.21.57z"/><path d="m736.293 423.111c-6.97 0-15.609-.58-22.79-.58-7.05 0-15.529.58-21.2.58h-.619v-5.58h2.64c5.229-.12 9.99-.54 10.04-7.59v-75.561c-.05-7.05-4.81-7.521-10.04-7.62h-2.64v-5.58h.619c5.671 0 14.311.57 21.36.57 7.18 0 15.811-.57 22.63-.57h.641v5.58h-2.661c-5.23.1-10.021.57-10.05 7.62v75.561c.029 7.05 4.819 7.47 10.05 7.59h2.66v5.58zm-.62-1.231v-3.08h-1.399c-5.15 0-11.28-.89-11.311-8.859v-75.561c.03-7.97 6.16-8.87 11.311-8.87h1.399v-3.06c-6.66 0-15.01.56-22.01.56-6.85 0-15.14-.52-20.72-.56v3.06h1.38c5.14 0 11.29.9 11.29 8.87v75.561c0 7.97-6.15 8.859-11.29 8.859h-1.38v3.08c5.58-.06 13.729-.58 20.56-.58 7.02 0 15.37.54 22.17.58zm99.69-27.81.289-.28v-54.08c0-11.84-8.229-13.56-12.549-13.56h-3.181v-4.331c6.79 0 13.42.57 20.19.57 5.909 0 11.85-.57 17.75-.57v4.331h-2.16c-6.07 0-12.85 1.149-12.85 18.31v65.64c0 5.041.149 10.08.859 14.551h-5.489l-74.25-82.79v59.43c0 12.55 2.43 16.86 13.55 16.86h2.439v4.35c-6.189 0-12.38-.57-18.59-.57-6.47 0-13.109.57-19.609.57v-4.35h2.02c9.95 0 12.971-6.761 12.971-18.29v-60.75c0-8.07-6.65-12.96-13.11-12.96h-1.88v-4.33c5.479 0 11.1.569 16.57.569 4.329 0 8.52-.569 12.839-.569z"/><path d="m843.708 425.281-5.949-.221-73.181-81.569v57.8c.17 12.54 2.08 16.101 12.94 16.24h3.09v5.58h-.64c-6.24 0-12.45-.58-18.601-.58-6.46 0-13.08.58-19.62.58h-.63v-5.58h2.66c9.53-.05 12.25-6.17 12.36-17.67v-60.74c-.021-7.68-6.32-12.34-12.5-12.36h-2.521v-5.56h.63c5.511 0 11.16.55 16.57.55 4.29 0 8.471-.55 13.33-.34l63.38 71.351v-53.04c-.08-11.48-7.729-12.86-11.93-12.961h-3.82v-5.56h.64c6.811 0 13.45.55 20.19.55 5.87 0 11.78-.55 17.74-.55h.63v5.559h-2.78c-5.95.171-12.06.69-12.229 17.7v65.63c0 5.04.149 10.08.85 14.45l.14.74h-.749zm-5.479-1.271h4.77c-.649-4.33-.76-9.13-.76-13.92v-65.63c0-17.31 7.25-18.949 13.46-18.949h1.52v-3.061c-5.68.04-11.38.56-17.109.56-6.6 0-13.02-.52-19.55-.56l-.01 3.061h2.55c4.43 0 13.18 1.979 13.18 14.21l-.2 54.499-.29.301-.489.45-64.131-72.521c-4.279 0-8.46.56-12.85.56-5.29 0-10.7-.52-15.93-.56l-.03 3.06h1.28c6.77 0 13.72 5.17 13.72 13.61v60.74c0 11.529-3.21 18.909-13.58 18.949l-1.39-.04v3.11c6.25-.06 12.67-.58 18.979-.58 6.021 0 12.011.521 17.97.58v-3.07h-1.819c-11.351-.04-14.17-4.979-14.181-17.52v-61.05zm-2.871-29.95.46-.42zm-.33-.279v-.05l-.12-.101zm44.421-64.761c-10.83 0-11.24 2.601-13.4 13.12h-4.33c.57-4.03 1.29-8.06 1.73-12.26.579-4.04.859-8.061.859-12.24h3.47c1.16 4.33 4.761 4.18 8.671 4.18h74.39c3.899 0 7.5-.14 7.8-4.479l3.439.58c-.56 3.899-1.14 7.79-1.58 11.689-.26 3.891-.26 7.79-.26 11.67l-4.34 1.61c-.3-5.33-1.02-13.87-10.67-13.87h-23.65v76.74c0 11.12 5.051 12.391 11.95 12.391h2.75v4.35c-5.62 0-15.729-.57-23.5-.57-8.649 0-18.76.57-24.39.57v-4.35h2.75c7.95 0 11.97-.711 11.97-12.091v-77.04z"/><path d="m936.301 423.111c-5.681 0-15.771-.58-23.521-.58-8.64 0-18.729.58-24.39.58h-.6v-5.58h3.35c7.95-.19 11.149-.29 11.33-11.471v-76.409h-23.02v-1.271h24.271v77.68c0 11.57-4.66 12.74-12.58 12.75h-2.12v3.04c5.69-.029 15.39-.55 23.76-.55 7.521 0 17.16.521 22.86.55v-3.04h-2.11c-6.97-.01-12.58-1.72-12.58-13.05v-77.38h24.28c9.68.04 10.94 8.27 11.26 13.62l3.11-1.15c0-3.76.02-7.53.28-11.33.42-3.71.95-7.39 1.49-11.07l-2.201-.37c-.669 4.2-4.72 4.41-8.35 4.37h-75.12c-3.39 0-7.1-.16-8.39-4.189h-2.38a85.256 85.256 0 0 1 -.851 11.699c-.42 3.961-1.08 7.771-1.62 11.581h3.091c1.899-10.051 3.14-13.311 13.899-13.16v1.27c-10.66.19-10.439 1.99-12.79 12.65l-.109.49h-5.55l.08-.75c.58-4.04 1.311-8.061 1.74-12.261.6-4 .88-8 .88-12.14v-.63h4.57l.1.45c.99 3.64 3.66 3.66 7.33 3.72h75.12c4.021-.06 6.94-.12 7.19-3.891l.06-.68.65.14 4.07.641-.091.63c-.58 3.86-1.149 7.76-1.569 11.63-.29 3.84-.29 7.74-.29 11.63v.45l-.4.16-5.11 1.859-.039-.84c-.381-5.42-.951-13.26-10.061-13.26h-23.02v76.11c.13 10.88 4.449 11.63 11.319 11.77h3.38v5.58zm30.39-4.961h2.03c5.181 0 10.669-.699 10.669-8.21v-75.56c0-7.521-5.488-8.23-10.669-8.23h-2.03v-4.33c8.78 0 23.801.57 35.889.57 12.141 0 27.111-.57 36.91-.57-.238 6.19-.109 15.73.32 22.061l-4.35 1.159c-.689-9.369-2.42-16.859-17.57-16.859h-20.029v37.77h17.141c8.648 0 10.539-4.89 11.389-12.699h4.32c-.279 5.649-.43 11.27-.43 16.89 0 5.49.15 10.96.43 16.44l-4.32.859c-.85-8.649-1.289-14.27-11.25-14.27h-17.279v33.59c0 9.39 8.33 9.39 17.57 9.39 17.309 0 24.939-1.17 29.27-17.59l4.041.99c-1.891 7.66-3.611 15.29-4.891 22.95-9.24 0-25.83-.57-38.791-.57-13 0-30.148.57-38.37.57z"/><path d="m1043.838 423.111c-9.26 0-25.84-.591-38.789-.591-12.99 0-30.131.591-38.361.591h-.609v-5.58h2.63c5.229-.08 9.969-.54 10.04-7.59v-75.561c-.07-7.04-4.811-7.51-10.04-7.62h-2.63v-5.559h.609c8.8 0 23.8.55 35.89.55 12.129 0 27.09-.55 36.91-.55h.65l-.031.64c-.1 2.17-.139 4.729-.139 7.45 0 4.989.139 10.439.43 14.55l.02.52-.48.141-5.07 1.32-.029-.74c-.85-9.36-2.1-16.15-16.949-16.29h-19.43l-.021 36.51h16.561c8.301-.08 9.789-4.33 10.77-12.1l.051-.57h5.53l-.01.649c-.279 5.62-.461 11.24-.461 16.86 0 5.46.182 10.93.461 16.42l.01.511-.52.119-5.01 1-.051-.68c-.99-8.8-1.061-13.62-10.641-13.729l-16.67-.011v32.99c.012 8.76 7.57 8.71 16.971 8.76 17.359-.1 24.32-.939 28.67-17.14l.141-.58.609.11 4.621 1.189-.141.601c-1.859 7.64-3.59 15.26-4.881 22.899l-.119.511zm-.529-1.26c1.25-7.271 2.898-14.57 4.67-21.831l-2.85-.72c-4.32 16.141-12.682 17.58-29.701 17.471-9.08 0-18.18 0-18.221-10.011v-34.22h17.922c10.068-.11 11.1 5.97 11.809 14.18l3.121-.649a301.996 301.996 0 0 1 -.41-15.931c0-5.43.129-10.829.41-16.26h-3.121c-.799 7.51-3.15 12.79-11.939 12.69h-17.791v-39.04h20.682c15-.101 17.488 7.64 18.129 16.71l3.111-.84c-.25-4.07-.422-9.29-.422-14.11 0-2.47.061-4.8.141-6.84-9.799.04-24.4.56-36.27.56-11.85 0-26.439-.52-35.27-.56v3.06h1.399c5.14 0 11.281.9 11.3 8.87v75.561c-.02 7.95-6.16 8.83-11.3 8.87h-1.399v3.04c8.411-.011 25.071-.55 37.739-.55 12.72 0 28.96.539 38.261.55zm24.893-84.751c0-10.52-5.76-10.95-10.25-10.95h-2.59v-4.34c4.619 0 13.549.58 22.35.58 8.65 0 15.58-.58 23.211-.58 18.158 0 34.33 4.91 34.33 25.41 0 12.95-8.65 20.89-20.041 25.38l24.65 36.9c4.039 6.1 6.91 7.81 13.99 8.649v4.351c-4.76 0-9.381-.57-14.131-.57-4.469 0-9.1.57-13.551.57-11.1-14.57-20.639-30.15-30.01-46.75h-9.488v30.88c0 11.12 5.17 11.52 11.799 11.52h2.6v4.351c-8.24 0-16.568-.57-24.799-.57-6.93 0-13.711.57-20.91.57v-4.351h2.59c5.359 0 10.25-2.42 10.25-7.77zm18.468 33.46h7.041c14.43 0 22.199-5.479 22.199-22.5 0-12.82-8.209-21.05-21.059-21.05-4.33 0-6.17.45-8.182.58v42.97z"/><path d="m1153.852 423.111c-4.83 0-9.42-.58-14.16-.58-4.4 0-9 .58-14.029.34-11.061-14.51-20.541-30-29.861-46.48h-8.52v30.221c.15 10.85 4.51 10.76 11.18 10.92h3.23v5.58h-.641c-8.24 0-16.609-.58-24.799-.58-6.891 0-13.65.58-20.891.58h-.631v-5.58h3.221c5.199-.03 9.58-2.29 9.6-7.15v-73.279c-.109-10.24-5.119-10.181-9.6-10.33h-3.221v-5.59h.631c4.67 0 13.57.569 22.35.569 8.609 0 15.541-.569 23.221-.569 18.17.04 34.91 5.06 34.959 26 0 13.03-8.609 21.159-19.74 25.7l24.23 36.279c4.031 5.98 6.541 7.471 13.561 8.37l.529.08v5.5h-.619zm-67.199-47.981h9.859l.17.32c9.4 16.57 18.869 32.13 29.49 46.43 4.4 0 9.029-.59 13.52-.59 4.609 0 9.049.5 13.539.57v-3.16c-6.77-.84-9.939-2.86-13.879-8.85l-25.09-37.551.709-.29c11.281-4.439 19.631-12.149 19.641-24.83-.01-20.01-15.551-24.649-33.68-24.729-7.611 0-14.531.57-23.221.57-8.469 0-17.02-.53-21.74-.57v3.06h1.98c4.48.011 10.859.75 10.859 11.591v73.279c0 5.79-5.43 8.43-10.859 8.44h-1.98v3.039c6.941-.02 13.51-.569 20.281-.569 8.068 0 16.199.55 24.18.569v-3.039h-1.971c-6.58-.011-12.439-.83-12.439-12.21v-31.48h.629zm0-3.96h-.631v-44.16l.549-.05c1.971-.149 3.922-.56 8.281-.56 13.141 0 21.68 8.54 21.699 21.689-.039 17.22-8.299 23.07-22.84 23.08h-7.058zm7.058-1.239c14.279-.121 21.461-5.08 21.611-21.841-.08-12.6-7.91-20.42-20.471-20.47-3.9 0-5.73.36-7.57.521v41.79zm158.051 24.139.26-.28v-54.08c0-11.84-8.209-13.56-12.529-13.56h-3.16v-4.331c6.77 0 13.391.57 20.18.57 5.92 0 11.811-.57 17.76-.57v4.331h-2.17c-6.059 0-12.84 1.149-12.84 18.31v65.64c0 5.041.141 10.08.85 14.551h-5.469l-74.26-82.79v59.43c0 12.55 2.449 16.86 13.549 16.86h2.451v4.35c-6.191 0-12.4-.57-18.59-.57-6.512 0-13.141.57-19.621.57v-4.35h2c9.961 0 12.99-6.761 12.99-18.29v-60.75c0-8.07-6.631-12.96-13.109-12.96h-1.881v-4.33c5.461 0 11.111.569 16.58.569 4.301 0 8.5-.569 12.83-.569z"/><path d="m1260.118 425.27-5.939-.2-73.189-81.579v57.79c.17 12.55 2.07 16.109 12.949 16.25h3.051v5.58h-.631c-6.238 0-12.42-.591-18.6-.591-6.439 0-13.1.591-19.59.591h-.65v-5.58h2.65c9.52-.04 12.25-6.17 12.34-17.71v-60.71c-.01-7.681-6.299-12.34-12.459-12.351h-2.531v-5.579h.65c5.5 0 11.141.569 16.58.569 4.24 0 8.42-.569 13.26-.37l63.391 71.381v-53.061c-.041-11.46-7.721-12.88-11.91-12.939h-3.811v-5.58h.631c6.82 0 13.459.569 20.199.569 5.881 0 11.791-.569 17.73-.569h.629v5.58h-2.77c-5.949.16-12.08.689-12.23 17.7v65.629c0 5.04.131 10.04.861 14.48l.08.7zm-5.479-1.26h4.74c-.631-4.33-.771-9.13-.771-13.92v-65.63c.01-17.311 7.311-18.91 13.49-18.96h1.51v-3.05c-5.66.04-11.369.56-17.1.56-6.619 0-13.051-.52-19.58-.56v3.05h2.561c4.439.05 13.18 1.99 13.18 14.2l-.199 54.52-.281.3-.439.46-64.18-72.529c-4.281 0-8.461.56-12.82.56-5.34 0-10.73-.52-15.98-.56v3.05h1.279c6.771.05 13.721 5.16 13.721 13.61v60.709c0 11.58-3.26 18.95-13.6 18.99l-1.4-.01v3.05c6.23-.03 12.66-.55 18.99-.55 6.051 0 12.041.52 18 .55v-3.04h-1.82c-11.359-.01-14.199-4.979-14.219-17.53v-61.02zm-2.881-29.95.439-.41zm-.359-.27v-.051l-.111-.109zm46.062 8.08c-1.459 4.89-3.199 8.67-3.199 11.24 0 4.34 6.07 5.04 10.811 5.04h1.609v4.35c-5.779-.311-11.67-.57-17.48-.57-5.189 0-10.35.261-15.549.57v-4.35h.869c5.619 0 10.391-3.311 12.52-9.38l23.1-66.181c1.861-5.34 4.48-12.55 5.352-17.899 4.59-1.57 10.369-4.45 13.1-6.19.449-.149.699-.3 1.15-.3.43 0 .709 0 1.029.45.42 1.14.84 2.45 1.301 3.6l26.529 75.44c1.73 5.04 3.439 10.37 5.311 14.71 1.74 4.04 4.779 5.75 9.549 5.75h.85v4.35c-6.488-.31-12.988-.569-19.889-.569-7.07 0-14.301.26-21.65.569v-4.35h1.6c3.301 0 8.941-.56 8.941-4.17 0-1.87-1.301-5.76-2.91-10.39l-5.611-16.73h-32.729zm21.041-63.9h-.291l-13.41 40.82h26.951z"/><path d="m1374.272 423.111c-6.49-.29-12.98-.591-19.85-.591-7.07 0-14.25.301-21.631.591l-.65.04v-5.64h2.221c3.34 0 8.299-.76 8.299-3.529.041-1.641-1.26-5.601-2.85-10.19l-5.49-16.31h-31.809l-4.48 14.569c-1.461 4.92-3.189 8.73-3.18 11.08.049 3.521 5.439 4.38 10.219 4.38h2.221v5.64l-.65-.04c-5.77-.29-11.66-.591-17.41-.591-5.17 0-10.369.301-15.539.591l-.67.04v-5.64h1.49c5.369-.02 9.85-3.069 11.93-8.939l23.09-66.19c1.891-5.35 4.49-12.54 5.74-18.29 4.52-1.53 10.309-4.43 13.09-6.19.4-.13.801-.33 1.391-.33.35-.01 1.129.08 1.59.841.41 1.189.859 2.47 1.299 3.64l26.561 75.431c1.701 5.06 3.42 10.39 5.301 14.649 1.67 3.851 4.32 5.36 8.959 5.38h1.471v5.64zm-40.871-1.29c7.141-.25 14.131-.53 21.021-.53 6.699 0 12.969.28 19.238.53v-3.011h-.199c-4.939.03-8.35-1.909-10.121-6.159-1.879-4.38-3.639-9.73-5.328-14.78l-26.551-75.42c-.439-1.15-.859-2.46-1.24-3.48-.119-.14-.09-.14-.209-.14h-.262c-.299 0-.469.09-.84.19-2.779 1.81-8.568 4.64-12.84 5.77-.889 5.46-3.479 12.66-5.359 18l-23.08 66.2c-2.199 6.26-7.25 9.83-13.119 9.819h-.23v3.011c4.939-.25 9.939-.53 14.949-.53 5.57 0 11.27.28 16.77.53v-3.011h-.93c-4.689-.06-11.25-.59-11.43-5.68.01-2.88 1.781-6.569 3.189-11.439l.631.189-.631-.21 4.75-15.42h33.621l5.789 17.141c1.621 4.63 2.93 8.47 2.93 10.59-.199 4.43-6.289 4.74-9.559 4.83h-.961v3.01zm-29.479-42.411 13.809-42.07h.781v.63l-.16.03.16-.03v-.63h.43l13.689 42.07zm1.729-1.25h25.24l-12.551-38.65zm12.23-40.009.33-.11zm62.772-9.131c-10.82 0-11.25 2.601-13.422 13.12h-4.33c.57-4.03 1.301-8.06 1.752-12.26.578-4.04.84-8.061.84-12.24h3.479c1.15 4.33 4.771 4.18 8.641 4.18h74.43c3.871 0 7.471-.14 7.771-4.479l3.449.58c-.551 3.899-1.119 7.79-1.561 11.689-.309 3.891-.309 7.79-.309 11.67l-4.32 1.61c-.271-5.33-.99-13.87-10.66-13.87h-23.65v76.74c0 11.12 5.061 12.391 11.961 12.391h2.738v4.35c-5.619 0-15.699-.57-23.5-.57-8.639 0-18.75.57-24.369.57v-4.35h2.73c7.949 0 11.99-.711 11.99-12.091v-77.04z"/><path d="m1437.463 423.111c-5.66 0-15.76-.58-23.5-.58-8.621 0-18.721.58-24.371.58h-.639v-5.58h3.369c7.949-.19 11.141-.29 11.34-11.471l-.02-76.409h-22.99v-1.271h24.26v77.68c0 11.57-4.67 12.71-12.59 12.74h-2.119v3.08c5.709-.061 15.389-.58 23.76-.58 7.529 0 17.17.521 22.869.58v-3.08h-2.129c-6.932-.03-12.551-1.7-12.57-13.04v-77.38h24.279c9.68.04 10.949 8.27 11.221 13.62l3.15-1.15c0-3.76.01-7.53.289-11.31.4-3.71.939-7.41 1.471-11.091l-2.18-.37c-.66 4.2-4.73 4.431-8.32 4.37h-75.161c-3.4.04-7.08-.16-8.391-4.21h-2.359c-.041 4-.311 7.881-.881 11.721-.379 3.97-1.09 7.79-1.629 11.58h3.09c1.91-10.051 3.16-13.311 13.939-13.16v1.27c-10.689.181-10.449 1.99-12.811 12.65l-.109.49h-5.561l.09-.721c.6-4.069 1.32-8.09 1.74-12.26.59-4.03.871-8.03.871-12.17v-.63h4.558l.121.45c1.01 3.64 3.639 3.66 7.33 3.72l.729.02h74.432c3.98-.079 6.889-.14 7.139-3.899l.041-.69.68.141 4.09.64-.109.63c-.59 3.86-1.141 7.76-1.58 11.63-.291 3.84-.291 7.75-.291 11.63v.45l-.408.16-5.111 1.86-.029-.841c-.371-5.419-.941-13.26-10.051-13.26h-23.029v76.11c.15 10.88 4.459 11.63 11.32 11.77h3.379v5.58zm31.125-4.961h2.021c5.209 0 10.658-.699 10.658-8.21v-75.56c0-7.521-5.449-8.23-10.658-8.23h-2.021v-4.33c5.631 0 14.271.57 21.32.57 7.24 0 15.891-.57 22.67-.57v4.33h-2.02c-5.189 0-10.689.71-10.689 8.23v75.56c0 7.511 5.5 8.21 10.689 8.21h2.02v4.351c-6.93 0-15.59-.57-22.779-.57-7.08 0-15.58.57-21.211.57z"/><path d="m1512.583 423.111c-6.969 0-15.6-.591-22.789-.591-7.051 0-15.57.591-21.201.591h-.629v-5.58h2.65c5.209-.08 9.99-.53 10.01-7.59v-75.561c-.02-7.04-4.801-7.521-10.01-7.62h-2.65v-5.559h.629c5.631 0 14.291.55 21.32.55 7.191 0 15.84-.55 22.67-.55h.611v5.559h-2.631c-5.27.1-10 .58-10.07 7.62v75.561c.07 7.06 4.801 7.51 10.07 7.59h2.631v5.58zm-.649-1.26v-3.051h-1.371c-5.17 0-11.289-.909-11.289-8.859v-75.561c0-7.97 6.119-8.87 11.289-8.87h1.371v-3.06c-6.66.04-14.99.56-22.021.56-6.83 0-15.1-.52-20.689-.56v3.06h1.391c5.129 0 11.27.9 11.289 8.87v75.561c-.02 7.949-6.16 8.859-11.289 8.859h-1.391v3.051c5.561-.061 13.721-.551 20.57-.551 6.99 0 15.34.521 22.139.551zm58.154-102.191c30.74 0 55.24 19.06 55.24 49.77 0 33.181-23.791 55.23-54.49 55.23-30.6 0-53.939-20.771-53.939-51.78 0-29.99 23.199-53.22 53.189-53.22zm2.18 98.65c27.98 0 32.85-24.68 32.85-45.71 0-21.08-11.359-46.6-35.309-46.6-25.24 0-32.73 22.5-32.73 41.81 0 25.82 11.82 50.5 35.189 50.5z"/><path d="m1516.252 372.88c.061-30.34 23.541-53.81 53.83-53.85v1.239c-29.639 0-52.58 22.931-52.609 52.61.07 30.66 23.08 51.12 53.361 51.13 30.398-.01 53.85-21.75 53.898-54.609-.029-30.32-24.16-49.091-54.648-49.131v-1.239c30.979.02 55.809 19.27 55.869 50.37-.029 33.529-24.131 55.81-55.119 55.869-30.842-.06-54.521-21.04-54.58-52.39h-.002zm20.202-5.07c.039-19.399 7.619-42.46 33.359-42.46 24.48.061 35.91 26.061 35.949 47.25-.039 21.03-4.988 46.311-33.488 46.311v-1.221c27.42-.039 32.17-24.06 32.238-45.09 0-20.909-11.26-45.939-34.699-45.97-24.74.03-32.061 21.97-32.109 41.18.02 25.69 11.73 49.82 34.57 49.88v1.221c-23.941-.031-35.781-25.13-35.82-51.101zm186.054 26.26.291-.28v-54.08c0-11.84-8.24-13.56-12.57-13.56h-3.121v-4.331c6.76 0 13.391.57 20.15.57 5.93 0 11.84-.57 17.76-.57v4.331h-2.18c-6.041 0-12.83 1.149-12.83 18.31v65.64c0 5.041.141 10.08.871 14.551h-5.471l-74.281-82.79v59.43c0 12.55 2.441 16.86 13.541 16.86h2.469v4.35c-6.209 0-12.398-.57-18.6-.57-6.49 0-13.139.57-19.629.57v-4.35h2.029c9.971 0 12.961-6.761 12.961-18.29v-60.75c0-8.07-6.602-12.96-13.111-12.96h-1.879v-4.33c5.479 0 11.109.569 16.58.569 4.33 0 8.5-.569 12.84-.569z"/><path d="m1730.889 425.27-5.969-.21-73.17-81.57v57.801c.158 12.54 2.068 16.09 12.898 16.22h3.121v5.6h-.631c-6.25 0-12.439-.58-18.6-.58-6.471 0-13.09.58-19.641.58h-.6v-5.6h2.641c9.51-.029 12.24-6.149 12.359-17.65v-60.75c-.02-7.68-6.311-12.34-12.51-12.35h-2.49v-5.56h.6c5.531 0 11.15.551 16.59.551 4.281 0 8.441-.551 13.32-.34l63.361 71.35v-53.04c-.041-11.479-7.721-12.86-11.941-12.96h-3.789v-5.559h.65c6.789 0 13.439.55 20.148.55 5.92 0 11.801-.55 17.781-.55h.619v5.559h-2.801c-5.93.17-12.068.71-12.189 17.7v65.63c0 5.04.109 10.069.811 14.479l.119.7h-.687zm-5.478-1.26h4.719c-.629-4.33-.74-9.13-.74-13.92v-65.63c0-17.34 7.271-18.91 13.451-18.96h1.559v-3.05c-5.689.04-11.389.56-17.158.56-6.561 0-13.012-.52-19.541-.56v3.05h2.529c4.471.05 13.17 2.021 13.17 14.22l-.158 54.5-.271.301-.459.459-64.18-72.529c-4.25 0-8.461.56-12.84.56-5.311 0-10.721-.52-15.971-.56v3.05h1.27c6.771.05 13.74 5.16 13.74 13.61v60.75c0 11.53-3.219 18.91-13.59 18.95l-1.42-.011v3.051c6.26-.03 12.68-.55 19.02-.55 6.01 0 11.98.52 17.971.55v-3.04h-1.861c-11.318-.011-14.148-4.98-14.148-17.521v-61.05zm-2.901-29.95.459-.41zm-.34-.27v-.051l-.121-.109zm46.022 8.08c-1.41 4.89-3.16 8.67-3.16 11.24 0 4.34 6.07 5.04 10.801 5.04h1.609v4.35c-5.77-.311-11.689-.57-17.459-.57-5.211 0-10.381.261-15.551.57v-4.35h.82c5.65 0 10.43-3.311 12.561-9.38l23.1-66.181c1.859-5.34 4.469-12.55 5.311-17.899 4.619-1.57 10.379-4.45 13.148-6.19.41-.149.701-.3 1.141-.3.43 0 .699 0 .99.45.439 1.14.891 2.45 1.32 3.6l26.52 75.44c1.73 5.04 3.451 10.37 5.35 14.71 1.73 4.04 4.77 5.75 9.51 5.75h.881v4.35c-6.5-.31-12.99-.569-19.92-.569-7.051 0-14.27.26-21.631.569v-4.35h1.602c3.289 0 8.949-.56 8.949-4.17 0-1.87-1.311-5.76-2.92-10.39l-5.6-16.73h-32.74zm21.08-63.9h-.289l-13.43 40.82h26.988z"/><path d="m1845.022 423.111c-6.49-.26-12.969-.58-19.859-.58-7.031 0-14.25.32-21.611.58l-.639.04v-5.62h2.189c3.359 0 8.33-.78 8.34-3.55.029-1.641-1.27-5.57-2.879-10.19l-5.48-16.31h-31.83l-4.461 14.569c-1.439 4.94-3.16 8.73-3.129 11.061 0 3.54 5.398 4.42 10.17 4.42h2.199v5.62l-.639-.04c-5.771-.26-11.672-.58-17.41-.58-5.17 0-10.352.32-15.551.58l-.631.04v-5.62h1.451c5.379-.021 9.879-3.11 11.98-8.96l23.08-66.19c1.84-5.35 4.439-12.54 5.719-18.27 4.531-1.57 10.32-4.45 13.121-6.211.379-.13.77-.3 1.359-.3.381-.04 1.119.05 1.58.84.43 1.131.85 2.44 1.33 3.61l26.52 75.431c1.721 5.06 3.451 10.39 5.32 14.68 1.689 3.82 4.32 5.33 8.92 5.37h1.5v5.62zm-40.869-1.271c7.129-.27 14.15-.55 21.01-.55 6.709 0 13 .28 19.279.53l-.02-3.011h-.24c-4.881.011-8.289-1.909-10.08-6.159-1.9-4.38-3.619-9.73-5.34-14.761l-26.541-75.439c-.43-1.15-.869-2.46-1.219-3.44-.121-.18-.109-.18-.221-.18h-.27c-.299 0-.461.1-.811.2-2.809 1.77-8.59 4.649-12.859 5.76-.891 5.46-3.51 12.65-5.369 18l-23.09 66.2c-2.191 6.26-7.23 9.83-13.131 9.819h-.211v3.011c4.961-.25 9.92-.53 14.941-.53 5.59 0 11.279.28 16.83.53v-3.011h-.98c-4.689-.06-11.27-.569-11.439-5.699.029-2.86 1.818-6.53 3.209-11.42l.59.189-.59-.21 4.75-15.42h33.631l5.779 17.14c1.59 4.641 2.9 8.471 2.9 10.591-.211 4.43-6.26 4.739-9.561 4.829h-.949v3.031zm-29.461-42.439 13.83-42.061h.75v.63l-.15.03.15-.03v-.63h.451l13.629 42.061zm1.73-1.241h25.221l-12.541-38.63zm12.25-40.009.289-.11zm92.748 70.209c0 5.771 4 7.49 8.621 8.08 5.91.44 12.4.44 19.061-.29 6.039-.729 11.24-4.189 13.818-7.79 2.301-3.18 3.602-7.22 4.471-10.39h4.18c-1.58 8.22-3.6 16.32-5.34 24.53-12.66 0-25.379-.57-38.051-.57-12.709 0-25.379.57-38.068.57v-4.351h1.979c5.221 0 10.861-.699 10.861-9.649v-74.12c0-7.521-5.641-8.23-10.861-8.23h-1.979v-4.33c7.619 0 15.129.57 22.76.57 7.379 0 14.58-.57 21.939-.57v4.33h-3.631c-5.459 0-9.76.16-9.76 7.78z"/><path d="m1926.231 423.111c-12.709 0-25.398-.58-38.049-.58-12.701 0-25.391.58-38.1.58h-.611v-5.58h2.621c5.23-.12 10.17-.48 10.23-9.03v-74.149c-.061-7.01-4.971-7.49-10.23-7.591h-2.621v-5.559h.611c7.67 0 15.18.55 22.799.55 7.32 0 14.521-.55 21.93-.55h.592v5.559h-4.211c-5.59.16-9.07-.1-9.18 7.171v74.43c.039 5.37 3.561 6.82 8.061 7.45 2.549.18 5.219.29 8 .29 3.529 0 7.199-.17 10.92-.57 5.879-.689 10.939-4.08 13.42-7.52 2.219-3.08 3.5-7.04 4.359-10.19l.131-.479h5.43l-.131.76c-1.629 8.25-3.609 16.31-5.359 24.52l-.119.49h-.493zm-.52-1.26c1.67-7.82 3.561-15.471 5.111-23.271h-2.961c-.9 3.14-2.18 7.01-4.449 10.16-2.691 3.74-8.031 7.26-14.281 8.03-3.779.39-7.52.59-11.059.59-2.791 0-5.5-.13-8.111-.311-4.689-.52-9.24-2.52-9.219-8.689v-74.43c0-8.01 5.068-8.42 10.449-8.42h2.98v-3.06c-7.109.04-14.109.569-21.291.569-7.469 0-14.77-.529-22.17-.569v3.06h1.381c5.15 0 11.449.9 11.449 8.84v74.15c0 9.33-6.27 10.3-11.449 10.3h-1.381v3.05c12.471-.01 24.941-.55 37.471-.55s25.052.54 37.53.551zm4.11-104.131c8.689 0 15.18 6.68 15.18 15.24 0 8.52-6.49 15.14-15.18 15.14-8.691 0-15.191-6.62-15.191-15.14-.001-8.559 6.499-15.24 15.191-15.24zm0 27.55c6.789 0 12.01-5.8 12.01-12.31 0-6.55-5.141-12.4-12.01-12.4-6.83 0-12.051 5.851-12.051 12.4 0 6.51 5.221 12.31 12.051 12.31zm-7.561-4.31v-.75c1.869-.26 2.209-.2 2.209-1.36v-11.24c0-1.579-.17-2.119-2.139-2.04v-.77h7.77c2.68 0 5.129 1.27 5.129 4.03 0 2.26-1.5 3.93-3.59 4.58l2.49 3.479c1.17 1.58 2.48 3.061 3.35 3.58v.49h-2.959c-1.42 0-2.66-2.99-5.461-7h-1.68v5.05c0 1 .35.94 2.221 1.2v.75h-7.34zm5.119-8h1.791c1.959 0 2.879-1.49 2.879-3.88 0-2.42-1.42-3.271-2.979-3.271h-1.691z"/></g></svg>