<svg width="23" height="24" viewBox="0 0 23 24" fill="none" xmlns="http://www.w3.org/2000/svg">
<g clip-path="url(#clip0_3724_424)">
<path d="M4.27808 0.812383C4.27808 0.839983 4.43448 1.01478 4.62308 1.20338L4.96808 1.54378V7.69398V13.8442L4.62308 14.1524C4.43448 14.3226 4.27808 14.479 4.27808 14.502C4.27808 14.525 5.20268 14.548 6.44928 14.5526L8.62048 14.5664L8.62508 18.2004L8.63428 21.8298L8.23868 22.2116L7.84308 22.5934L12.1441 22.5796L16.4451 22.5704L16.7441 22.46C17.3053 22.253 17.5813 22.0782 17.9953 21.6688C18.3173 21.3514 18.4323 21.1996 18.5565 20.9282C18.8555 20.2888 18.8601 20.2474 18.8601 15.721C18.8601 11.121 18.8601 11.1302 18.5289 10.4862C18.2805 10.0032 17.7423 9.46958 17.2685 9.22578C17.0799 9.12918 16.8959 9.04638 16.8683 9.04178C16.8361 9.03258 16.6981 8.99578 16.5601 8.95438C16.4221 8.91298 16.0633 8.86698 15.7689 8.85318L15.2307 8.82558L15.2169 5.96898C15.2031 3.71498 15.1893 3.08018 15.1387 2.95138C14.8121 2.10498 14.4119 1.61738 13.6621 1.14818C13.5011 1.04698 12.9445 0.853783 12.6961 0.812383C12.3741 0.752583 4.27808 0.757183 4.27808 0.812383ZM11.2195 2.02218C11.6013 2.18318 11.9877 2.47758 12.2223 2.78578C12.6041 3.29638 12.5811 3.05718 12.5949 6.11158L12.6087 8.83938H10.2121H7.81548L8.21568 9.22118L8.62048 9.60758V11.512L8.62508 13.4164H8.18808H7.75108L7.73728 7.71238C7.73268 4.57518 7.73728 1.98078 7.75108 1.94858C7.76948 1.89798 8.08688 1.88878 9.37028 1.90258C10.9159 1.91638 10.9803 1.92098 11.2195 2.02218ZM12.6041 10.8634C12.6041 11.3556 12.5811 11.8524 12.5535 11.9628C12.4845 12.2618 12.1763 12.6712 11.8037 12.9518C11.6243 13.0852 11.4311 13.2048 11.3759 13.2186L11.2701 13.2462V11.627C11.2701 10.7346 11.2793 9.99398 11.2931 9.98478C11.3023 9.97098 11.6013 9.96178 11.9601 9.96178H12.6041V10.8634ZM15.4837 10.4356C15.8057 10.7714 15.9621 10.9922 16.0311 11.213C16.0909 11.4062 16.1001 12.0686 16.1001 15.7348C16.1001 18.941 16.0863 20.0772 16.0449 20.2198C15.9207 20.643 15.4469 21.1122 14.9041 21.3514C14.6557 21.4618 14.6327 21.4664 12.9629 21.4802L11.2701 21.494V18.021V14.5526L12.0199 14.5342C12.7191 14.5158 12.7927 14.5066 13.1699 14.3686C13.5701 14.226 14.0807 13.927 14.3383 13.6786C14.4993 13.5268 14.8167 13.1036 14.9225 12.892C15.1571 12.4366 15.1893 12.2618 15.2123 11.2406C15.2261 10.707 15.2537 10.2654 15.2767 10.2654C15.2951 10.2654 15.3917 10.3436 15.4837 10.4356Z" fill="url(#paint0_linear_3724_424)"/>
</g>
<defs>
<linearGradient id="paint0_linear_3724_424" x1="11.5691" y1="22.5934" x2="11.5691" y2="0.769241" gradientUnits="userSpaceOnUse">
<stop stop-color="white"/>
<stop offset="1" stop-color="white" stop-opacity="0.5"/>
</linearGradient>
<clipPath id="clip0_3724_424">
<rect width="23" height="23" fill="white" transform="translate(0 0.191406)"/>
</clipPath>
</defs>
</svg>
