<svg width="40" height="22" viewBox="0 0 40 22" fill="none" xmlns="http://www.w3.org/2000/svg">
<path d="M1.24801 17.0121C1.06917 16.7088 0.830722 16.2243 0.683443 15.8656C-0.175686 13.7648 -0.214259 11.5901 0.508111 9.50419C1.30412 7.21483 2.826 5.46545 4.79323 4.57041C7.26542 3.44977 9.9971 3.66798 12.3676 5.15108C13.872 6.0609 14.938 7.46633 15.748 9.45611C15.8497 9.71131 15.9409 9.9813 16.032 10.2143L1.24801 17.0121ZM6.18538 7.94713C4.42855 8.7423 3.52383 10.4806 3.71319 12.5148L11.1473 9.13804C9.86736 7.55509 8.20521 7.02991 6.18538 7.94713V7.94713ZM12.073 15.2923C12.0695 15.2923 12.0695 15.296 12.0695 15.296L11.9152 15.1851C11.4699 15.9433 10.7791 16.5609 9.90593 16.9603C8.24378 17.7222 6.70436 17.5262 5.59626 16.5017L5.49456 16.6645C5.49456 16.6645 5.49457 16.6608 5.49106 16.6608L3.60448 19.638C4.07437 19.982 4.57582 20.2705 5.10182 20.5035C7.18477 21.417 9.31681 21.3726 11.4173 20.411C12.9357 19.7157 14.1279 18.6579 14.9415 17.3154L12.073 15.2923ZM21.1973 0.191406V16.7384L23.638 17.7814L22.2528 21.1914L19.5597 20.0079C18.9566 19.7305 18.5428 19.3089 18.2342 18.8318C17.9362 18.3473 17.7152 17.6778 17.7152 16.7828V0.191406H21.1973ZM27.5163 12.5259C27.5163 11.1167 28.1089 9.85185 29.0417 8.9938L26.538 6.04981C24.8408 7.63276 23.7712 9.94431 23.7712 12.5185C23.7677 15.0963 24.8372 17.4116 26.531 18.9945L29.0312 16.0505C28.1019 15.1888 27.5163 13.9313 27.5163 12.5259V12.5259ZM31.9628 17.2192C31.4718 17.2192 30.9949 17.1305 30.5531 16.9751L29.3573 20.7217C30.1744 21.0102 31.0475 21.1692 31.9593 21.1692C35.9218 21.1729 39.2285 18.2067 39.9965 14.2678L36.3215 13.4764C35.9042 15.6178 34.1123 17.2229 31.9628 17.2192V17.2192ZM31.9733 3.88249C31.0651 3.88249 30.1919 4.03783 29.3748 4.32261L30.5601 8.07288C31.0054 7.91754 31.4788 7.83248 31.9698 7.83248C34.1229 7.83618 35.9183 9.44871 36.325 11.5938L40 10.8098C39.2461 6.86347 35.9393 3.88619 31.9733 3.88249V3.88249Z" fill="url(#paint0_linear_804_227)"/>
<defs>
<linearGradient id="paint0_linear_804_227" x1="20" y1="0.191406" x2="20" y2="21.1914" gradientUnits="userSpaceOnUse">
<stop stop-color="white"/>
<stop offset="1" stop-color="white" stop-opacity="0.75"/>
</linearGradient>
</defs>
</svg>
