<svg xmlns="http://www.w3.org/2000/svg" width="62" height="24" fill="none" viewBox="0 0 62 24">
  <path fill="#fff" d="M9.21 5.354a6.646 6.646 0 0 1 2.111-.34 6.666 6.666 0 0 1 6.529 5.345l4.568-.934C21.371 4.242 16.8.34 11.321.34c-1.256 0-2.46.204-3.59.584l1.48 4.43Z"/>
  <path fill="#EEE" d="m3.82 20.196 3.09-3.502a6.676 6.676 0 0 1-2.247-5.004c0-1.99.869-3.777 2.247-4.999L3.82 3.187A11.348 11.348 0 0 0 0 11.69a11.35 11.35 0 0 0 3.82 8.506"/>
  <path fill="#9E9E9E" d="M17.85 13.03c-.618 3.048-3.306 5.34-6.526 5.34a6.57 6.57 0 0 1-2.114-.344L7.732 22.46c1.13.377 2.336.581 3.592.581 5.473 0 10.041-3.896 11.094-9.072l-4.568-.94Z"/>
  <path fill="#F0F2F4" d="M29.325 16.904a8.122 8.122 0 0 1-.476-.92c-.724-1.683-.757-3.427-.148-5.099.672-1.835 1.955-3.237 3.614-3.955 2.084-.898 4.387-.723 6.386.466 1.268.73 2.167 1.856 2.85 3.45.086.205.163.422.24.609l-12.466 5.449Zm4.163-7.267c-1.481.638-2.244 2.031-2.084 3.662l6.268-2.707c-1.08-1.27-2.48-1.69-4.184-.955Zm4.965 5.888c-.003 0-.003.003-.003.003l-.13-.089c-.376.608-.958 1.103-1.695 1.423-1.401.611-2.7.454-3.633-.367l-.086.13s0-.003-.003-.003l-1.59 2.387c.395.276.818.507 1.262.694 1.756.732 3.554.696 5.325-.075 1.28-.557 2.285-1.405 2.971-2.481l-2.418-1.622ZM46.146 3.42v13.264l2.058.836-1.168 2.734-2.27-.949a2.57 2.57 0 0 1-1.118-.942c-.252-.389-.438-.925-.438-1.643V3.42h2.936Zm5.328 9.887c0-1.129.5-2.143 1.286-2.83l-2.11-2.36a6.91 6.91 0 0 0-2.334 5.185 6.914 6.914 0 0 0 2.327 5.19l2.108-2.359a3.753 3.753 0 0 1-1.277-2.825Zm3.75 3.763c-.415 0-.817-.071-1.19-.196l-1.008 3.004a6.878 6.878 0 0 0 2.194.358c3.341.003 6.13-2.375 6.777-5.532l-3.099-.635a3.75 3.75 0 0 1-3.675 3Zm.008-10.691a6.92 6.92 0 0 0-2.19.353l.999 3.006a3.752 3.752 0 0 1 4.86 2.822l3.1-.628c-.637-3.164-3.425-5.55-6.769-5.553Z"/>
</svg>
