<svg width="32" height="32" viewBox="0 0 32 32" fill="none" xmlns="http://www.w3.org/2000/svg">
<g clip-path="url(#clip0_607_575)">
<rect width="32" height="32" fill="url(#paint0_linear_607_575)"/>
<path d="M22.8713 3.12936L22.8709 3.12862C22.8392 3.06883 22.6314 2.90115 22.2724 3.07459L22.8713 3.12936ZM22.8713 3.12936L22.8796 3.1448L22.893 3.16839M22.8713 3.12936L22.893 3.16839M22.893 3.16839L22.9021 3.18337L22.9023 3.18377M22.893 3.16839L22.9023 3.18377M22.9023 3.18377C25.154 6.89625 26.474 11.1346 26.4996 15.7316M22.9023 3.18377L26.4996 15.7316M26.4996 15.7316C26.5253 20.3189 25.2581 24.5621 23.0566 28.2914M26.4996 15.7316L23.0566 28.2914M23.0566 28.2914C22.9768 28.4082 22.8868 28.4638 22.8016 28.4864C22.7179 28.5086 22.6048 28.5076 22.465 28.4523C22.355 28.3765 22.3101 28.2986 22.2931 28.2368C22.2751 28.1715 22.2747 28.0749 22.3354 27.9448C24.5422 24.3435 25.7292 20.1743 25.7044 15.7351C25.6794 11.2752 24.3384 7.12426 22.2031 3.56867C22.0584 3.27584 22.1992 3.11002 22.2724 3.07461L23.0566 28.2914ZM6.20309 20.3357L6.19609 20.3452L6.1917 20.3511L6.1914 20.3515C6.12646 20.4392 5.88813 20.5319 5.65216 20.3729L5.65213 20.3729C5.56424 20.3137 5.48645 20.1309 5.61748 19.9377C6.09115 19.3575 6.42994 18.6891 6.65148 18.0437C6.889 17.3519 6.99573 16.5787 6.99155 15.8302C6.98738 15.0816 6.872 14.3097 6.62681 13.6203C6.39809 12.9773 6.05185 12.3124 5.5718 11.737C5.43833 11.5448 5.51449 11.3614 5.60124 11.3017C5.83495 11.1406 6.07453 11.2305 6.14086 11.3181L6.14096 11.3182L6.14541 11.3241L6.1453 11.3242L6.15243 11.3331L6.15702 11.3389L6.15713 11.339C6.67754 11.9936 7.09661 12.711 7.34438 13.4006C7.61737 14.2558 7.78249 15.0572 7.78679 15.8266C7.79153 16.6765 7.70574 17.4395 7.40079 18.1781L7.40079 18.1781C7.04043 19.0508 6.70198 19.6944 6.20744 20.3304L6.2032 20.3358L6.20309 20.3357ZM10.9872 22.5622L11.0048 22.5368L11.0141 22.5226C11.0142 22.5223 11.0144 22.5221 11.0146 22.5218C12.2841 20.5815 13.0166 18.2403 13.0029 15.7996C12.9893 13.3598 12.2313 11.0272 10.9411 9.10034C10.8807 9.00845 10.875 8.93118 10.8915 8.86606C10.9096 8.79459 10.9675 8.69189 11.1129 8.59172C11.1267 8.58222 11.1976 8.55189 11.3203 8.57747C11.4292 8.60016 11.5456 8.66195 11.6368 8.77192C12.9772 10.8081 13.784 13.2637 13.7982 15.7961C13.8128 18.4172 13.0348 20.7908 11.7146 22.8428C11.5384 23.0647 11.3332 23.0903 11.1639 23.0055C11.0491 22.9185 10.9917 22.8144 10.971 22.7277C10.947 22.6277 10.9748 22.5788 10.977 22.5759L10.9872 22.5622ZM17.2742 5.95301L17.2965 5.99108L17.3098 6.01161C17.3099 6.01171 17.3099 6.01181 17.31 6.01192C19.1534 8.87871 20.1774 12.1833 20.1974 15.7637C20.2173 19.3407 19.2321 22.6526 17.424 25.5361C17.3429 25.659 17.2507 25.7169 17.1639 25.7402C17.0801 25.7628 16.9665 25.7621 16.826 25.7064C16.7156 25.6304 16.6708 25.5523 16.6539 25.4903C16.6358 25.424 16.6358 25.3252 16.6996 25.192C18.3159 22.4482 19.3244 19.2099 19.3052 15.7676C19.2861 12.3531 18.3523 9.11712 16.5896 6.36013C16.529 6.23199 16.5286 6.13633 16.5458 6.07145C16.5622 6.00969 16.606 5.93167 16.7149 5.85503C17.0439 5.72021 17.2324 5.87409 17.2629 5.93157L17.2742 5.95301Z" fill="#1E1E1E" stroke="#1E1E1E" stroke-linejoin="bevel"/>
</g>
<defs>
<linearGradient id="paint0_linear_607_575" x1="16" y1="0" x2="16" y2="32" gradientUnits="userSpaceOnUse">
<stop stop-color="white"/>
<stop offset="1" stop-color="white" stop-opacity="0.75"/>
</linearGradient>
<clipPath id="clip0_607_575">
<path d="M0 24C0 15.5992 0 11.3988 1.6349 8.19014C3.073 5.36771 5.36771 3.073 8.19014 1.6349C11.3988 0 15.5992 0 24 0V0C26.8003 0 28.2004 0 29.27 0.544967C30.2108 1.02433 30.9757 1.78924 31.455 2.73005C32 3.79961 32 5.19974 32 8V8C32 16.4008 32 20.6012 30.3651 23.8099C28.927 26.6323 26.6323 28.927 23.8099 30.3651C20.6012 32 16.4008 32 8 32V32C5.19974 32 3.79961 32 2.73005 31.455C1.78924 30.9757 1.02433 30.2108 0.544967 29.27C0 28.2004 0 26.8003 0 24V24Z" fill="white"/>
</clipPath>
</defs>
</svg>
