<svg width="73" height="24" viewBox="0 0 73 24" fill="none" xmlns="http://www.w3.org/2000/svg">
<g clip-path="url(#clip0_603_223)">
<path fill-rule="evenodd" clip-rule="evenodd" d="M0 0H73V24H0V0Z" fill="white"/>
<path fill-rule="evenodd" clip-rule="evenodd" d="M3.21304 22.1253H3.00437C3.00437 22.091 2.9521 22.0395 2.9521 22.0222C2.9521 22.0051 2.9521 21.9709 2.79531 21.9709H2.48174V22.1253H2.32495V21.7647H2.79531C3.00437 21.7647 3.16078 21.782 3.16078 21.8505C3.16078 21.902 3.10851 21.9193 3.05663 21.9363C3.10889 21.9536 3.16078 21.9708 3.16078 22.0051V22.0737C3.16078 22.091 3.16078 22.091 3.21304 22.091V22.1253ZM3.00437 21.8678C3.00437 21.8162 2.89984 21.8162 2.84758 21.8162H2.48174V21.9193H2.79531C2.89984 21.9193 3.00437 21.902 3.00437 21.8678V21.8678ZM3.89246 21.9364C3.89246 21.7305 3.37021 21.5585 2.69079 21.5585C2.06401 21.5585 1.54138 21.7305 1.54138 21.9364C1.54138 22.1596 2.06401 22.3316 2.69079 22.3316C3.36983 22.3315 3.89246 22.1596 3.89246 21.9364ZM3.73567 21.9364C3.73567 22.1254 3.26568 22.2627 2.69079 22.2627C2.1159 22.2627 1.69817 22.1253 1.69817 21.9364C1.69817 21.7647 2.11627 21.6101 2.69079 21.6101C3.2653 21.6101 3.73567 21.7647 3.73567 21.9364ZM68.1002 14.9973C68.1002 15.5127 67.1075 15.7529 65.331 15.7529H61.9358V15.2375H65.331C65.6446 15.2375 65.9059 15.2205 66.0108 15.1862C66.1149 15.1517 66.2194 15.1002 66.2194 15.0316C66.2194 14.9627 66.1153 14.8941 66.0108 14.8599C65.9059 14.8254 65.6972 14.8083 65.3836 14.8083C63.7646 14.791 61.7267 14.8254 61.7267 14.0697C61.7267 13.7261 62.4058 13.3482 64.2342 13.3482H67.7343V13.8636H64.4951C64.1823 13.8636 63.9729 13.8636 63.8161 13.8978C63.6593 13.9493 63.5552 14.0009 63.5552 14.0868C63.5552 14.1727 63.712 14.2243 63.9206 14.2588C64.1301 14.2758 64.3391 14.293 64.6004 14.293H65.5404C66.533 14.293 67.1602 14.3616 67.5783 14.482C67.8911 14.6022 68.1002 14.7569 68.1002 14.9973V14.9973ZM60.7337 14.482C60.3156 14.3616 59.6885 14.293 58.6958 14.293H57.7559C57.4949 14.293 57.2855 14.2757 57.0768 14.2588C56.8674 14.2243 56.7114 14.1727 56.7114 14.0868C56.7114 14.0009 56.7633 13.9493 56.9723 13.8978C57.1291 13.8636 57.3378 13.8636 57.6513 13.8636H60.8905V13.3482H57.3904C55.5093 13.3482 54.8822 13.7261 54.8822 14.0697C54.8822 14.8253 56.92 14.791 58.5398 14.8083C58.8526 14.8083 59.0621 14.8254 59.1662 14.8599C59.2704 14.8941 59.3757 14.9627 59.3757 15.0316C59.3757 15.1002 59.2707 15.1517 59.1662 15.1862C59.0094 15.2205 58.8008 15.2375 58.4872 15.2375H55.0912V15.7529H58.4872C60.263 15.7529 61.256 15.5126 61.256 14.9973C61.256 14.7569 61.0473 14.6022 60.7337 14.482V14.482ZM54.0463 15.255H49.9198V14.774H53.9422V14.2932H49.9198V13.8465H54.0463V13.3485H48.1955V15.753H54.0463V15.255ZM46.3145 13.4687C45.7396 13.3656 45.0605 13.3483 44.1724 13.3483H40.1501V15.7529H41.9259V14.8769H43.807C44.4334 14.8769 44.7996 14.8943 45.0609 14.98C45.3745 15.1002 45.3745 15.3064 45.3745 15.461V15.7529H47.098V15.2891C47.098 15.0658 47.0461 14.9627 46.8371 14.8426C46.6803 14.7737 46.3675 14.6879 45.9494 14.6364C46.419 14.5851 47.2033 14.3789 47.2033 14.0009C47.2029 13.7262 46.8893 13.5716 46.3145 13.4687V13.4687ZM36.3883 13.3483H30.798L28.5515 14.1385L26.4095 13.3483H19.3566V15.7529H26.3053L28.5519 14.9627L30.6939 15.7529H34.0898V14.9458H36.2841C37.799 14.9458 39.3146 14.8083 39.3146 14.1385C39.3142 13.4858 37.7467 13.3483 36.3883 13.3483ZM44.9037 14.3447C44.6428 14.3789 44.3815 14.3789 44.0679 14.3789L41.9259 14.3962V13.8464H44.0679C44.3815 13.8464 44.6951 13.8464 44.9037 13.8979C45.1132 13.9324 45.2692 14.001 45.2692 14.1041C45.2692 14.2072 45.1132 14.2931 44.9037 14.3447V14.3447ZM36.3883 14.4648H34.0895V13.8464H36.3883C37.0154 13.8464 37.4332 13.9324 37.4332 14.1385C37.4332 14.3447 37.0151 14.4648 36.3883 14.4648ZM29.6486 14.5506L32.3652 13.6061V15.5469L29.6486 14.5506ZM25.4168 15.255H21.0805V14.774H24.9465V14.2932H21.0805V13.8465H25.4691L27.4021 14.5507L25.4168 15.255V15.255ZM63.2412 11.6135H60.7337L57.4423 9.81002V11.6135H53.8903L53.2105 11.081H49.5536L48.8746 11.6135H46.8367C46.0009 11.6135 44.9037 11.5448 44.2773 11.3386C43.7024 11.1326 43.3889 10.8578 43.3889 10.4283C43.3889 10.0676 43.5457 9.74129 44.3288 9.48368C44.8511 9.29468 45.7918 9.20889 46.9931 9.20889H48.6648V9.72423H46.9931C46.3667 9.72423 46.0005 9.7586 45.635 9.86169C45.3215 9.96479 45.1647 10.1537 45.1647 10.4113C45.1647 10.6689 45.3215 10.8579 45.635 10.9782C45.896 11.064 46.3667 11.0983 46.8363 11.0983H47.6203L50.1278 9.20901H52.7401L55.6657 11.4762V9.20889H58.3827L61.465 10.875V9.20889H63.2408V11.6135H63.2412V11.6135ZM42.5008 9.20889H40.725V11.6135H42.5008V9.20889V9.20889ZM38.7912 9.31198C38.2163 9.20889 37.59 9.20889 36.7019 9.20889H32.6787V11.6135H34.4027V10.7375H36.2834C36.9105 10.7375 37.3286 10.7547 37.5896 10.8406C37.9031 10.9609 37.8505 11.1671 37.8505 11.3044V11.6135H39.6263V11.1326C39.6263 10.9265 39.5744 10.8234 39.3135 10.7031C39.1567 10.6344 38.8431 10.5485 38.4777 10.4971C38.9473 10.4283 39.7316 10.2395 39.7316 9.86157C39.732 9.58678 39.3658 9.43213 38.7912 9.31198ZM31.4248 11.1155H27.3498V10.6345H31.3725V10.1365H27.3498V9.70705H31.4248V9.20901H25.5736V11.6137H31.4248V11.1155ZM24.2674 9.20889H21.3941L19.2521 10.8406L16.9533 9.20889H14.1322V11.4761L11.1544 9.20889H8.54235L5.4077 11.6135H7.28841L7.96745 11.081H11.6243L12.3034 11.6135H15.8561V9.72423L18.4159 11.6135H19.9307L22.4909 9.72423V11.6135H24.2671V9.20889H24.2674ZM52.5841 10.5658L51.3821 9.62114L50.1808 10.5658H52.5841ZM37.4332 10.188C37.1722 10.2396 36.9109 10.2396 36.5451 10.2396H34.4027V9.70718H36.5447C36.8583 9.70718 37.2234 9.70718 37.4328 9.74154C37.6415 9.79309 37.7464 9.86182 37.7464 9.96479C37.7464 10.0678 37.6418 10.1535 37.4332 10.188V10.188ZM8.59423 10.5658L9.7959 9.62114L10.9976 10.5658H8.59423V10.5658ZM67.6824 1.66858H5.35506V10.3254L7.49709 8.72803H12.0421L12.6692 9.1231V8.72803H17.9982L19.1998 9.58678L20.3492 8.72803H37.3286C38.1118 8.72803 38.7909 8.77958 39.3139 8.91691V8.72803H43.9634V8.91691C44.7466 8.77945 45.7392 8.72803 46.889 8.72803H53.6282L54.2554 9.1231V8.72803H59.2185L59.9502 9.1231V8.72803H64.8083V12.0945H59.8979L58.9579 11.5793V12.0945H52.8451L52.166 11.5449H50.6504L49.9714 12.0945H46.7848C45.5309 12.0945 44.5902 11.9914 43.9638 11.8885V12.0945H36.3883V11.3216C36.3883 11.2185 36.336 11.2013 36.127 11.2013H35.866V12.0944H21.2373V11.665L20.7151 12.0944H17.6327L17.1104 11.6821V12.0944H11.2066L10.5798 11.5448H9.0646L8.38556 12.0944H5.35506V22.2456H67.6824V16.0792C67.0034 16.1823 66.0627 16.2339 65.1223 16.2339H60.5769V16.0277C60.0547 16.1652 59.114 16.2339 58.2262 16.2339H43.9111V15.461C43.9111 15.3579 43.8592 15.3579 43.5975 15.3579H43.3366V16.2339H38.6345V15.3236C37.8513 15.4437 36.9628 15.4437 36.1792 15.4437H35.6566V16.2339H29.9099L28.5519 15.7185L27.037 16.2339H17.7891V12.8675H27.193L28.5515 13.3826L30.0145 12.8675H36.336C37.0669 12.8675 38.269 12.9017 38.7912 13.0734V12.8675H44.4334C45.0083 12.8675 46.1058 12.9017 46.8367 13.0734V12.8675H55.3525V13.0735C55.8229 12.9361 56.7114 12.8676 57.4946 12.8676H62.2486V13.0735C62.7716 12.9534 63.5025 12.8676 64.4433 12.8676H67.6824V1.66858V1.66858Z" fill="#A9A9B2"/>
</g>
<defs>
<clipPath id="clip0_603_223">
<rect width="73" height="24" fill="white"/>
</clipPath>
</defs>
</svg>
