<svg width="63" height="37" viewBox="0 0 63 37" fill="none" xmlns="http://www.w3.org/2000/svg">
<g clip-path="url(#clip0_603_227)">
<path d="M41.0896 -0.000120108C37.3819 -0.00175793 33.7579 1.02191 30.6813 2.93993C30.4695 3.07413 29.0056 4.04338 28.9412 4.0906C26.5094 5.78554 24.8766 6.07879 22.6405 5.55938C22.5038 5.52707 21.863 5.32328 21.6619 5.25121C19.5734 4.52232 17.3267 4.26879 15.1105 4.51191C12.8944 4.75503 10.7736 5.48771 8.92637 6.64836C7.07915 7.80901 5.55949 9.36371 4.49512 11.1818C3.43074 12.9999 2.85275 15.0283 2.80972 17.0964C2.76669 19.1646 3.25988 21.2121 4.24784 23.0669C5.23579 24.9217 6.68965 26.5296 8.48722 27.7554C10.2848 28.9812 12.3735 29.7891 14.5779 30.1112C16.7823 30.4334 19.0379 30.2603 21.1551 29.6066C24.4905 28.6821 26.3003 28.9356 28.3943 30.305C28.8126 30.5784 29.8207 31.1773 30.0298 31.319C32.4131 32.9401 35.1769 34.0145 38.0948 34.4543C41.0126 34.894 44.0013 34.6865 46.8159 33.8488C49.6305 33.0111 52.1908 31.567 54.287 29.6349C56.3832 27.7028 57.9555 25.3377 58.8751 22.7336C59.7948 20.1294 60.0355 17.3603 59.5775 14.6533C59.1195 11.9462 57.976 9.37832 56.2405 7.16007C54.5051 4.94182 52.2272 3.13639 49.5937 1.89178C46.9601 0.647171 44.0457 -0.00118006 41.0896 -0.000120108V-0.000120108Z" fill="#A9A9B2"/>
<path d="M34.3409 20.0211C33.8084 20.5069 33.114 20.8112 32.371 20.8843C31.628 20.9574 30.8802 20.7951 30.2495 20.4237L29.0081 22.2504C30.0836 22.8804 31.3571 23.1554 32.6223 23.0309C33.8875 22.9064 35.0703 22.3897 35.9791 21.5645L34.3409 20.0211ZM32.1048 12.5803C31.0796 12.5652 30.0691 12.8089 29.1819 13.2854C28.2946 13.7619 27.5639 14.4531 27.068 15.2851C26.5721 16.117 26.3297 17.0584 26.3669 18.0082C26.404 18.9581 26.7192 19.8807 27.2787 20.6772L37.5154 16.6213C37.2274 15.4857 36.5388 14.4716 35.5588 13.7396C34.5787 13.0076 33.3633 12.5997 32.1048 12.5803V12.5803ZM28.7132 18.1423C28.6358 17.4859 28.788 16.8238 29.1475 16.2538C29.507 15.6837 30.0546 15.2359 30.7096 14.9763C31.3646 14.7168 32.0922 14.6592 32.7852 14.8122C33.4781 14.9652 34.0997 15.3206 34.5581 15.826L28.7132 18.1423ZM40.7302 10.2218V20.3343L42.6231 21.0625L41.7302 23.0506L39.8534 22.3299C39.4755 22.18 39.1544 21.9291 38.9311 21.6092C38.6817 21.2368 38.5558 20.8047 38.5691 20.3666V10.2218H40.7302ZM24.2464 10.2218V20.3343L26.1232 21.0625L25.2303 23.0506L23.3535 22.3299C22.9883 22.1789 22.6781 21.9328 22.4607 21.6216C22.2104 21.2495 22.0836 20.8174 22.0961 20.379V10.2218H24.2464Z" fill="white"/>
<path d="M50.0446 15.0382C50.438 15.2141 50.7901 15.46 51.0809 15.762C51.3717 16.0641 51.5954 16.4162 51.7393 16.7984C51.8832 17.1806 51.9445 17.5853 51.9196 17.9895C51.8947 18.3936 51.7842 18.7892 51.5943 19.1538L53.6883 20.0857C54.2551 18.99 54.3934 17.7457 54.0794 16.5659C53.7654 15.3861 53.0187 14.3442 51.9672 13.6185C50.9156 12.8928 49.6246 12.5286 48.3152 12.5881C47.0058 12.6476 45.7595 13.1272 44.7896 13.9447L46.3554 15.5377C46.8458 15.1219 47.4596 14.852 48.1173 14.763C48.775 14.6739 49.4464 14.7698 50.0446 15.0382V15.0382Z" fill="white"/>
<path d="M47.1625 20.5977C46.3677 20.2429 45.7572 19.6103 45.4652 18.8386C45.1731 18.067 45.2233 17.2195 45.6047 16.4822L43.5107 15.5477C42.9495 16.642 42.8149 17.8828 43.1297 19.0587C43.4446 20.2347 44.1894 21.2732 45.2375 21.9973C46.2855 22.7214 47.5719 23.0864 48.8777 23.0302C50.1834 22.9739 51.4277 22.4999 52.3988 21.6888L50.833 20.0982C50.3438 20.5098 49.7335 20.7772 49.0798 20.8661C48.4261 20.9551 47.7587 20.8617 47.1625 20.5977V20.5977ZM19.9567 20.7444V17.8167C19.9567 16.7845 19.6265 15.7755 19.0078 14.9172C18.3891 14.0589 17.5098 13.39 16.4809 12.995C15.4521 12.6 14.32 12.4966 13.2278 12.698C12.1356 12.8994 11.1324 13.3964 10.3449 14.1263C9.55749 14.8562 9.02124 15.7862 8.80399 16.7986C8.58674 17.8109 8.69824 18.8603 9.1244 19.814C9.55055 20.7676 10.2722 21.5827 11.1981 22.1562C12.1241 22.7297 13.2127 23.0358 14.3263 23.0358C15.1992 23.0359 16.0601 22.8478 16.8412 22.4865L15.9349 20.5232C15.4276 20.7832 14.8557 20.916 14.276 20.9083C13.6962 20.9006 13.1287 20.7528 12.6295 20.4794C12.1304 20.206 11.7169 19.8165 11.4299 19.3495C11.143 18.8825 10.9926 18.3542 10.9936 17.8167C10.9905 17.3119 11.1222 16.8141 11.377 16.3678C11.6012 15.9784 11.9126 15.6379 12.2904 15.3691C12.6682 15.1004 13.1036 14.9096 13.5675 14.8096C13.8135 14.7556 14.0654 14.7281 14.3182 14.7276C15.203 14.7269 16.052 15.0519 16.6784 15.6312C17.3048 16.2104 17.6575 16.9966 17.6589 17.8167V20.7195C17.6456 21.1576 17.7715 21.5897 18.0209 21.9621C18.2458 22.2807 18.5664 22.5313 18.9432 22.6829L19.9996 23.0706L20.8951 21.0824L19.9567 20.7444Z" fill="white"/>
</g>
<defs>
<clipPath id="clip0_603_227">
<rect width="63" height="37" fill="white"/>
</clipPath>
</defs>
</svg>
