<svg width="87" height="91" viewBox="0 0 87 91" fill="none" xmlns="http://www.w3.org/2000/svg">
<g clip-path="url(#clip0_603_223)">
<path fill-rule="evenodd" clip-rule="evenodd" d="M0 0H87V91H0V0Z" fill="white"/>
<path fill-rule="evenodd" clip-rule="evenodd" d="M3.82924 83.8917H3.58055C3.58055 83.7618 3.51826 83.5664 3.51826 83.5008C3.51826 83.4361 3.51826 83.3062 3.3314 83.3062H2.95769V83.8917H2.77083V82.5244H3.3314C3.58055 82.5244 3.76695 82.5901 3.76695 82.8497C3.76695 83.0452 3.70467 83.1108 3.64283 83.175C3.70512 83.2406 3.76695 83.3058 3.76695 83.4361V83.6962C3.76695 83.7618 3.76695 83.7618 3.82924 83.7618V83.8917ZM3.58055 82.9153C3.58055 82.7199 3.45597 82.7199 3.39369 82.7199H2.95769V83.1108H3.3314C3.45597 83.1108 3.58055 83.0452 3.58055 82.9153V82.9153ZM4.63896 83.1755C4.63896 82.3946 4.01655 81.7427 3.20683 81.7427C2.45985 81.7427 1.83699 82.3946 1.83699 83.1755C1.83699 84.022 2.45985 84.6739 3.20683 84.6739C4.0161 84.6734 4.63896 84.022 4.63896 83.1755ZM4.4521 83.1755C4.4521 83.8921 3.89198 84.4128 3.20683 84.4128C2.52168 84.4128 2.02385 83.8917 2.02385 83.1755C2.02385 82.5245 2.52214 81.9381 3.20683 81.9381C3.89153 81.9381 4.4521 82.5245 4.4521 83.1755ZM81.1605 56.8649C81.1605 58.8189 79.9775 59.7296 77.8602 59.7296H73.8139V57.7756H77.8602C78.2339 57.7756 78.5454 57.7109 78.6704 57.5811C78.7945 57.4503 78.9191 57.2549 78.9191 56.9947C78.9191 56.7337 78.7949 56.4735 78.6704 56.3437C78.5454 56.2129 78.2967 56.1483 77.9229 56.1483C75.9934 56.0826 73.5647 56.2129 73.5647 53.3478C73.5647 52.0448 74.374 50.6119 76.5531 50.6119H80.7245V52.566H76.8641C76.4913 52.566 76.2417 52.566 76.0548 52.6958C75.868 52.8912 75.7438 53.0867 75.7438 53.4124C75.7438 53.7382 75.9307 53.9336 76.1794 54.0644C76.429 54.1291 76.6781 54.1942 76.9896 54.1942H78.1098C79.2928 54.1942 80.0402 54.4544 80.5385 54.9109C80.9113 55.3665 81.1605 55.9533 81.1605 56.8649V56.8649ZM72.3813 54.9109C71.883 54.4544 71.1356 54.1942 69.9526 54.1942H68.8323C68.5214 54.1942 68.2718 54.1286 68.0231 54.0644C67.7735 53.9336 67.5875 53.7382 67.5875 53.4124C67.5875 53.0867 67.6494 52.8912 67.8985 52.6958C68.0854 52.566 68.3341 52.566 68.7078 52.566H72.5682V50.6119H68.3968C66.155 50.6119 65.4075 52.0448 65.4075 53.3478C65.4075 56.2125 67.8362 56.0826 69.7666 56.1483C70.1395 56.1483 70.389 56.2129 70.5132 56.3437C70.6373 56.4735 70.7628 56.7337 70.7628 56.9947C70.7628 57.2549 70.6377 57.4503 70.5132 57.5811C70.3263 57.7109 70.0776 57.7756 69.7039 57.7756H65.6567V59.7296H69.7039C71.8203 59.7296 73.0037 58.8184 73.0037 56.8649C73.0037 55.9533 72.755 55.3665 72.3813 54.9109V54.9109ZM64.4114 57.8417H59.4935V56.018H64.2873V54.1952H59.4935V52.5013H64.4114V50.6129H57.4385V59.7301H64.4114V57.8417ZM55.1967 51.0689C54.5115 50.678 53.7023 50.6124 52.6439 50.6124H47.8501V59.7296H49.9665V56.4084H52.2083C52.9548 56.4084 53.3913 56.474 53.7027 56.7993C54.0764 57.2549 54.0764 58.0367 54.0764 58.623V59.7296H56.1305V57.971C56.1305 57.1246 56.0687 56.7337 55.8195 56.2781C55.6327 56.017 55.2599 55.6917 54.7616 55.4963C55.3213 55.3018 56.256 54.52 56.256 53.0867C56.2555 52.0452 55.8818 51.4589 55.1967 51.0689V51.0689ZM43.3669 50.6124H36.7045L34.0271 53.6084L31.4743 50.6124H23.0688V59.7296H31.3502L34.0276 56.7337L36.5804 59.7296H40.6276V56.6695H43.2427C45.0481 56.6695 46.8544 56.1483 46.8544 53.6084C46.854 51.1336 44.9858 50.6124 43.3669 50.6124ZM53.5154 54.3902C53.2044 54.52 52.893 54.52 52.5193 54.52L49.9665 54.5856V52.5008H52.5193C52.893 52.5008 53.2667 52.5008 53.5154 52.6963C53.765 52.827 53.951 53.0872 53.951 53.4781C53.951 53.869 53.765 54.1947 53.5154 54.3902V54.3902ZM43.3669 54.8457H40.6272V52.5008H43.3669C44.1143 52.5008 44.6121 52.827 44.6121 53.6084C44.6121 54.3902 44.1138 54.8457 43.3669 54.8457ZM35.3347 55.171L38.5722 51.5897V58.9487L35.3347 55.171ZM30.2913 57.8417H25.1234V56.018H29.7307V54.1952H25.1234V52.5013H30.3536L32.6573 55.1715L30.2913 57.8417V57.8417ZM75.3697 44.0347H72.3813L68.4586 37.1963V44.0347H64.2254L63.4153 42.0155H59.0571L58.2478 44.0347H55.8191C54.823 44.0347 53.5154 43.7741 52.7689 42.9923C52.0837 42.2109 51.71 41.169 51.71 39.5407C51.71 38.1731 51.8969 36.9357 52.8303 35.9589C53.4527 35.2423 54.5738 34.917 56.0055 34.917H57.9977V36.871H56.0055C55.259 36.871 54.8225 37.0013 54.387 37.3922C54.0133 37.7831 53.8264 38.4993 53.8264 39.4761C53.8264 40.4528 54.0133 41.1695 54.387 41.6255C54.6979 41.9508 55.259 42.0811 55.8186 42.0811H56.7529L59.7413 34.9175H62.8547L66.3414 43.5139V34.917H69.5793L73.2529 41.2342V34.917H75.3692V44.0347H75.3697V44.0347ZM50.6516 34.917H48.5352V44.0347H50.6516V34.917V34.917ZM46.2307 35.3079C45.5455 34.917 44.799 34.917 43.7406 34.917H38.9459V44.0347H41.0004V40.713H43.2418C43.9893 40.713 44.4876 40.7781 44.7985 41.1039C45.1722 41.5599 45.1095 42.3417 45.1095 42.8624V44.0347H47.2259V42.2109C47.2259 41.4296 47.164 41.0387 46.8531 40.5827C46.6662 40.3221 46.2925 39.9963 45.8569 39.8013C46.4166 39.5407 47.3514 38.8246 47.3514 37.3917C47.3518 36.3498 46.9154 35.7635 46.2307 35.3079ZM37.4515 42.1463H32.595V40.3225H37.3892V38.4341H32.595V36.8059H37.4515V34.9175H30.4782V44.0351H37.4515V42.1463ZM28.9215 34.917H25.4971L22.9443 41.1039L20.2046 34.917H16.8425V43.5135L13.2936 34.917H10.1806L6.4448 44.0347H8.68619L9.49546 42.0155H13.8537L14.6629 44.0347H18.897V36.871L21.9477 44.0347H23.7531L26.8042 36.871V44.0347H28.921V34.917H28.9215ZM62.6687 40.0619L61.2362 36.4801L59.8045 40.0619H62.6687ZM44.6121 38.6296C44.3011 38.825 43.9897 38.825 43.5537 38.825H41.0004V36.8063H43.5533C43.927 36.8063 44.3621 36.8063 44.6117 36.9366C44.8604 37.1321 44.9854 37.3927 44.9854 37.7831C44.9854 38.1735 44.8608 38.4988 44.6121 38.6296V38.6296ZM10.2424 40.0619L11.6746 36.4801L13.1067 40.0619H10.2424V40.0619ZM80.6626 6.32666H6.38206V39.1503L8.93489 33.0938H14.3515L15.0989 34.5917V33.0938H21.4499L22.882 36.3498L24.2518 33.0938H44.4876C45.4209 33.0938 46.2302 33.2892 46.8535 33.8099V33.0938H52.3947V33.8099C53.3281 33.2887 54.5111 33.0938 55.8814 33.0938H63.9131L64.6605 34.5917V33.0938H70.5755L71.4475 34.5917V33.0938H77.2374V45.8584H71.3852L70.2649 43.9048V45.8584H62.9797L62.1705 43.7745H60.3642L59.5549 45.8584H55.7573C54.2628 45.8584 53.1417 45.4675 52.3952 45.0771V45.8584H43.3669V42.9276C43.3669 42.5367 43.3046 42.4715 43.0554 42.4715H42.7445V45.8579H25.3102V44.2296L24.6878 45.8579H21.0143L20.3919 44.2948V45.8579H13.3558L12.6089 43.7741H10.803L9.99375 45.8579H6.38206V84.3477H80.6626V60.967C79.8534 61.3579 78.7322 61.5533 77.6115 61.5533H72.1944V60.7715C71.572 61.2932 70.4509 61.5533 69.3929 61.5533H52.3324V58.623C52.3324 58.2321 52.2706 58.2321 51.9587 58.2321H51.6477V61.5533H46.0438V58.1018C45.1104 58.5574 44.0516 58.5574 43.1177 58.5574H42.4949V61.5533H35.6461L34.0276 59.5993L32.2222 61.5533H21.2007V48.7892H32.4081L34.0271 50.7422L35.7707 48.7892H43.3046C44.1757 48.7892 45.6083 48.919 46.2307 49.57V48.7892H52.9548C53.64 48.7892 54.948 48.919 55.8191 49.57V48.7892H65.9681V49.5705C66.5287 49.0493 67.5875 48.7896 68.5209 48.7896H74.1867V49.5705C74.81 49.1149 75.6811 48.7896 76.8023 48.7896H80.6626V6.32666V6.32666Z" fill="#A9A9B2"/>
</g>
<defs>
<clipPath id="clip0_603_223">
<rect width="87" height="91" fill="white"/>
</clipPath>
</defs>
</svg>
