<svg width="33" height="21" viewBox="0 0 50 50" fill="none" xmlns="http://www.w3.org/2000/svg">
<g clip-path="url(#clip0_603_246)">
<path fill-rule="evenodd" clip-rule="evenodd" d="M0.263672 0.261963H49.7369V49.7381H0.263672V0.261963Z" fill="url(#paint0_linear_603_246)"/>
<path d="M49.9975 50H0.00292969V0H49.9975V50ZM0.52425 49.4762H49.4762V0.523834H0.52425V49.4762Z" fill="url(#paint1_linear_603_246)"/>
<path fill-rule="evenodd" clip-rule="evenodd" d="M21.1683 34.1802L17.128 31.4563L36.3387 18.439L24.4787 10.4243L18.9005 14.1959L23.2275 17.077L13.2442 23.7821L4.87703 18.2295L25.026 4.74072L45.0187 18.1771L21.1683 34.1802ZM28.7535 15.7151L32.7937 18.439L13.5831 31.4563L25.4692 39.4709L31.0473 35.6993L26.7203 32.8444L36.7297 26.1394L45.0969 31.692L24.8957 45.1545L4.95522 31.7706L28.7535 15.7151ZM13.0878 39.8114L8.96939 36.9827L4.79883 39.8114L4.85096 45.2593L13.0878 39.8114ZM37.0164 10.2934L41.1609 13.1221L45.2011 10.4243V4.84549L37.0164 10.2934Z" fill="url(#paint2_linear_603_246)"/>
</g>
<defs>
<linearGradient id="paint0_linear_603_246" x1="25.0003" y1="0.261963" x2="25.0003" y2="49.7381" gradientUnits="userSpaceOnUse">
<stop stop-color="white"/>
<stop offset="1" stop-color="white" stop-opacity="0.75"/>
</linearGradient>
<linearGradient id="paint1_linear_603_246" x1="25.0002" y1="0" x2="25.0002" y2="50" gradientUnits="userSpaceOnUse">
<stop stop-color="white"/>
<stop offset="1" stop-color="white" stop-opacity="0.75"/>
</linearGradient>
<linearGradient id="paint2_linear_603_246" x1="25" y1="4.74072" x2="25" y2="45.2593" gradientUnits="userSpaceOnUse">
<stop stop-color="white"/>
<stop offset="1" stop-color="white" stop-opacity="0.75"/>
</linearGradient>
<clipPath id="clip0_603_246">
<rect width="50" height="50" fill="white"/>
</clipPath>
</defs>
</svg>
