<svg width="33" height="25" viewBox="0 0 2401 408" fill="none" xmlns="http://www.w3.org/2000/svg">
<path fill-rule="evenodd" clip-rule="evenodd" d="M0 6.27738H105.509C125.184 6.27738 144.846 8.06713 162.719 10.7519C255.699 24.1626 329.017 73.3439 329.017 203.872C329.017 333.517 255.699 383.568 162.719 396.084C144.846 398.768 125.171 399.65 105.509 399.65H0V6.27738ZM2392.52 66.1717C2406.81 66.1717 2417.55 55.4457 2417.55 39.3502C2417.55 23.2677 2406.81 11.6338 2392.52 11.6338C2378.2 11.6338 2367.46 23.2547 2367.46 39.3502C2367.46 55.4457 2378.2 66.1717 2392.52 66.1717ZM2392.52 5.38246C2396.98 5.38076 2401.4 6.25816 2405.52 7.9646C2409.64 9.67104 2413.39 12.173 2416.54 15.3276C2419.7 18.4821 2422.2 22.2274 2423.91 26.3493C2425.61 30.4712 2426.49 34.889 2426.49 39.3502C2426.49 43.8125 2425.61 48.2317 2423.91 52.3551C2422.2 56.4785 2419.7 60.2254 2416.55 63.3813C2413.39 66.5372 2409.65 69.0404 2405.52 70.7476C2401.4 72.4549 2396.98 73.3327 2392.52 73.331C2388.06 73.331 2383.64 72.4522 2379.52 70.7448C2375.4 69.0375 2371.65 66.535 2368.5 63.3802C2365.34 60.2254 2362.84 56.48 2361.13 52.3581C2359.42 48.2361 2358.55 43.8183 2358.55 39.3568C2358.55 34.8952 2359.42 30.4773 2361.13 26.3553C2362.84 22.2334 2365.34 18.488 2368.5 15.3332C2371.65 12.1784 2375.4 9.67593 2379.52 7.96856C2383.64 6.26119 2388.06 5.38246 2392.52 5.38246V5.38246ZM2392.52 44.7197L2390.72 42.035H2386.26V58.1304H2379.08V19.6881H2394.28C2403.22 19.6881 2408.6 23.2678 2408.6 31.309C2408.6 37.5605 2404.11 41.1401 2397.86 42.035L2408.6 58.1304H2400.55L2392.52 44.7197ZM2392.52 25.0576H2393.4C2396.97 25.0576 2400.55 25.9525 2400.55 30.4271C2400.55 35.7966 2396.98 36.6784 2393.4 36.6784H2386.27V25.0576H2392.52ZM2143.97 173.458C2173.47 169.878 2197.6 157.362 2197.6 119.815C2197.6 84.057 2173.49 74.213 2143.97 69.7514H2090.31V175.26H2115.34C2125.19 175.26 2135.02 174.353 2143.97 173.458V173.458ZM2143.97 7.1723C2213.71 9.85704 2278.07 24.1626 2278.07 113.563C2278.07 160.06 2248.57 198.502 2199.4 204.754C2219.97 207.438 2232.49 228.008 2239.63 245.894L2301.34 399.65H2215.5L2169.01 276.282C2161.87 258.397 2155.61 247.658 2143.98 241.406C2137.73 237.84 2127.9 236.037 2115.36 236.037H2090.32V399.65H2013.44V6.27738H2096.58C2111.76 6.27738 2128.77 6.27738 2143.97 7.1723ZM1427.82 124.289C1436.75 147.531 1441.21 173.471 1441.21 202.977C1441.21 230.693 1436.75 257.515 1427.82 281.651C1400.1 357.615 1333.05 406.81 1240.97 406.81C1117.59 406.81 1038.9 322.765 1038.9 202.964C1038.9 82.2542 1119.37 0.0129626 1240.97 0.0129626C1333.05 0.0129626 1400.1 48.2994 1427.82 124.289V124.289ZM1427.82 41.1401L1563.73 399.65H1592.32L1743.42 6.27738H1662.94L1582.49 213.69L1496.67 6.27738H1414.42L1427.82 41.1401V41.1401ZM1763.1 6.27738H1991.96V69.7514H1840.86V166.311H1978.54V227.088H1840.88V337.966H1992.87V399.65H1763.11V6.27738H1763.1V6.27738ZM162.719 76.0158C149.308 71.5412 135.002 69.7514 120.71 69.7514H76.8977V337.966H120.71C135.015 337.966 149.321 335.281 162.719 330.82C210.11 313.816 248.553 270.017 248.553 203.859C248.566 137.7 210.11 92.0983 162.719 76.0158V76.0158ZM359.418 6.27738H437.198V399.65H359.418V6.27738ZM686.645 110.878C659.824 93.8881 631.225 76.8977 600.824 73.331C573.108 69.7514 543.602 77.7926 543.602 117.13C543.602 185.079 713.48 156.467 713.48 287.903C713.48 373.724 645.531 415.746 567.751 406.81C525.729 402.322 501.593 389.806 468.507 367.472V286.995C494.446 301.314 532.876 329.017 563.277 334.386C596.363 339.756 632.12 329.899 632.12 294.154C632.12 218.164 463.15 249.447 463.15 119.802C463.15 32.1909 529.309 0 597.258 0C631.238 0 660.732 12.5158 686.658 35.7576V110.878H686.645V110.878ZM1019.23 360.313C999.554 385.371 953.07 399.65 921.774 402.335C801.078 410.389 720.613 343.336 720.613 210.123C720.613 76.0157 791.246 -2.6588 921.774 4.50051C947.701 5.39542 989.723 14.3315 1017.44 37.5734V112.681C984.353 92.1242 950.385 77.8186 921.774 76.9237C842.205 74.2389 801.078 124.302 801.078 204.767C801.078 285.244 839.52 329.925 921.774 326.358C953.952 325.476 1002.24 299.537 1019.23 285.244V360.313V360.313Z" fill="url(#paint0_linear_604_232)"/>
<defs>
<linearGradient id="paint0_linear_604_232" x1="1213.24" y1="0" x2="1213.24" y2="407.99" gradientUnits="userSpaceOnUse">
<stop stop-color="white"/>
<stop offset="1" stop-color="white" stop-opacity="0.75"/>
</linearGradient>
</defs>
</svg>
