<svg xmlns="http://www.w3.org/2000/svg" width="2500" height="2500" viewBox="0 0 192.756 192.756"><g fill-rule="evenodd" clip-rule="evenodd"><path fill="#fff" d="M0 0h192.756v192.756H0V0z"/><path d="M2.834 81.133h8.135c1.517 0 3.033.138 4.411.345 7.169 1.034 12.822 4.826 12.822 14.89 0 9.996-5.653 13.855-12.822 14.82-1.378.207-2.895.275-4.411.275H2.834v-30.33zm184.469 4.618c1.102 0 1.93-.827 1.93-2.068 0-1.24-.828-2.137-1.93-2.137-1.104 0-1.932.896-1.932 2.137s.828 2.068 1.932 2.068zm0-4.687a2.618 2.618 0 0 1 2.619 2.619 2.618 2.618 0 0 1-2.619 2.62 2.619 2.619 0 1 1 0-5.239zm0 3.033l-.139-.207h-.344v1.241h-.553v-2.964h1.172c.689 0 1.104.276 1.104.896 0 .482-.346.758-.828.827l.828 1.241h-.621l-.619-1.034zm0-1.516h.068c.275 0 .551.069.551.414 0 .414-.275.482-.551.482h-.55v-.896h.482zm-19.164 11.442c2.275-.276 4.135-1.241 4.135-4.136 0-2.757-1.859-3.516-4.135-3.86h-4.137v8.135h1.93c.759 0 1.517-.07 2.207-.139zm0-12.821c5.377.207 10.34 1.31 10.34 8.203 0 3.585-2.275 6.549-6.066 7.031 1.586.207 2.551 1.793 3.102 3.172l4.758 11.855h-6.619l-3.584-9.512c-.551-1.379-1.033-2.207-1.93-2.689-.482-.275-1.24-.414-2.207-.414h-1.93v12.615h-5.928v-30.33h6.41c1.171 0 2.482 0 3.654.069zm-55.217 9.03c.689 1.792 1.033 3.792 1.033 6.067 0 2.137-.344 4.205-1.033 6.066-2.137 5.857-7.307 9.65-14.406 9.65-9.513 0-15.58-6.48-15.58-15.717 0-9.307 6.204-15.648 15.58-15.648 7.099 0 12.269 3.723 14.406 9.582zm0-6.411l10.479 27.642h2.205l11.65-30.33h-6.205l-6.203 15.992-6.617-15.992H111.889l1.033 2.688zm25.851-2.688h17.646v4.894h-11.65v7.445h10.615v4.686H144.77v8.549h11.719v4.756h-17.715v-30.33h-.001zM15.38 86.51c-1.034-.345-2.137-.483-3.239-.483H8.763v20.68h3.378c1.103 0 2.206-.207 3.239-.551 3.654-1.311 6.618-4.688 6.618-9.789.001-5.101-2.964-8.617-6.618-9.857zm15.166-5.377h5.997v30.33h-5.997v-30.33zm25.23 8.065c-2.068-1.31-4.273-2.62-6.617-2.895-2.137-.276-4.412.344-4.412 3.377 0 5.239 13.098 3.033 13.098 13.167 0 6.617-5.239 9.857-11.236 9.168-3.24-.346-5.101-1.311-7.652-3.033v-6.205c2 1.104 4.963 3.24 7.307 3.654 2.551.414 5.308-.346 5.308-3.102 0-5.859-13.028-3.447-13.028-13.443 0-6.755 5.101-9.237 10.34-9.237 2.62 0 4.894.965 6.893 2.757v5.792h-.001zm25.643 19.232c-1.517 1.932-5.101 3.033-7.514 3.24-9.306.621-15.51-4.549-15.51-14.82 0-10.34 5.446-16.406 15.51-15.854 1.999.069 5.239.758 7.376 2.55v5.791c-2.551-1.585-5.17-2.688-7.376-2.757-6.135-.207-9.306 3.653-9.306 9.857 0 6.205 2.964 9.65 9.306 9.375 2.481-.068 6.204-2.068 7.514-3.17v5.788z"/></g></svg>