<svg width="73" height="24" viewBox="0 0 73 24" fill="none" xmlns="http://www.w3.org/2000/svg">
<path d="M15.0462 7.35186C15.7486 7.18892 16.4978 7.10202 17.2751 7.10202C20.6777 7.10202 23.5184 8.78356 24.1677 11.0191L28.9907 10.3347C27.8857 6.53716 23.0595 3.6781 17.2751 3.6781C15.9484 3.6781 14.6778 3.82801 13.4854 4.10609L15.0462 7.35186Z" fill="url(#paint0_linear_603_233)"/>
<path d="M9.35548 18.2276L12.6176 15.6618C11.1629 14.7645 10.2452 13.4545 10.2452 11.9946C10.2452 10.5368 11.1629 9.22675 12.6176 8.33167L9.35548 5.76373C6.88311 7.28885 5.32227 9.5157 5.32227 11.9946C5.32227 14.4756 6.88311 16.7024 9.35548 18.2276" fill="url(#paint1_linear_603_233)"/>
<path d="M24.1677 12.9766C23.5153 15.2099 20.6777 16.8893 17.2782 16.8893C16.4978 16.8893 15.7454 16.8024 15.0462 16.6373L13.4854 19.8874C14.6778 20.1633 15.9515 20.3132 17.2782 20.3132C23.0564 20.3132 27.8794 17.4585 28.9907 13.6653L24.1677 12.9766Z" fill="url(#paint2_linear_603_233)"/>
<path d="M33.2082 15.7683C33.049 15.5901 32.8367 15.3055 32.7056 15.0948C31.9408 13.8608 31.9064 12.5833 32.5495 11.358C33.2581 10.0132 34.6129 8.98561 36.3642 8.45986C38.565 7.80158 40.9968 7.92976 43.107 8.80094C44.4462 9.33539 45.3952 10.161 46.1163 11.3298C46.2068 11.4797 46.288 11.6383 46.3692 11.7751L33.2082 15.7683ZM37.6035 10.4434C36.0395 10.9105 35.2341 11.9316 35.4027 13.1265L42.0207 11.1429C40.8813 10.2131 39.4016 9.90459 37.6035 10.4434V10.4434ZM42.8448 14.758C42.8417 14.758 42.8417 14.7602 42.8417 14.7602L42.7043 14.695C42.3079 15.1404 41.6929 15.5032 40.9156 15.7378C39.4359 16.1854 38.0655 16.0702 37.0791 15.4685L36.9885 15.564C36.9885 15.564 36.9885 15.5619 36.9854 15.5619L35.3059 17.3108C35.7242 17.5128 36.1706 17.6823 36.6389 17.8191C38.4932 18.3558 40.3912 18.3297 42.261 17.7648C43.6127 17.3564 44.6741 16.735 45.3983 15.9464L42.8448 14.758ZM50.9674 5.88757V15.6075L53.1401 16.2202L51.907 18.2232L49.5096 17.528C48.9727 17.3651 48.6043 17.1174 48.3296 16.8372C48.0642 16.5525 47.8676 16.1593 47.8676 15.6336V5.88757H50.9674ZM56.5927 13.133C56.5927 12.3052 57.1202 11.5622 57.9506 11.0582L55.7217 9.32887C54.2108 10.2587 53.2587 11.6165 53.2587 13.1286C53.2556 14.6429 54.2077 16.0029 55.7155 16.9327L57.9412 15.2034C57.114 14.6972 56.5927 13.9585 56.5927 13.133V13.133ZM60.551 15.8899C60.1139 15.8899 59.6894 15.8378 59.2961 15.7465L58.2316 17.9473C58.9589 18.1168 59.7362 18.2102 60.5478 18.2102C64.0753 18.2124 67.0191 16.47 67.7027 14.1562L64.4312 13.6913C64.0597 14.9492 62.4646 15.8921 60.551 15.8899V15.8899ZM60.5603 8.05576C59.7518 8.05576 58.9745 8.14701 58.2472 8.3143L59.3023 10.5172C59.6987 10.426 60.1202 10.376 60.5572 10.376C62.4739 10.3782 64.0722 11.3254 64.4343 12.5855L67.7059 12.1249C67.0347 9.80683 64.091 8.05794 60.5603 8.05576V8.05576Z" fill="white"/>
<defs>
<linearGradient id="paint0_linear_603_233" x1="21.238" y1="3.6781" x2="21.238" y2="11.0191" gradientUnits="userSpaceOnUse">
<stop stop-color="white"/>
<stop offset="1" stop-color="white" stop-opacity="0.75"/>
</linearGradient>
<linearGradient id="paint1_linear_603_233" x1="8.96995" y1="5.76373" x2="8.96995" y2="18.2276" gradientUnits="userSpaceOnUse">
<stop stop-color="white"/>
<stop offset="1" stop-color="white" stop-opacity="0.75"/>
</linearGradient>
<linearGradient id="paint2_linear_603_233" x1="21.238" y1="12.9766" x2="21.238" y2="20.3132" gradientUnits="userSpaceOnUse">
<stop stop-color="white"/>
<stop offset="1" stop-color="white" stop-opacity="0.75"/>
</linearGradient>
</defs>
</svg>
