<svg width="33" height="21" viewBox="0 0 73 24" fill="none" xmlns="http://www.w3.org/2000/svg">
<g clip-path="url(#clip0_603_220)">
<path d="M20.0433 -7.62939e-06H12.4791C9.13673 0.119373 6.40468 1.13633 5.61583 3.23345C5.2045 4.32714 4.97813 5.52831 4.65649 6.66205C3.02133 12.4268 1.57142 18.3503 0.00732422 24H58.8974C63.4501 24 66.5763 23.2732 67.4209 20.5434C67.8133 19.2753 68.1892 17.8392 68.5648 16.446C70.0284 11.014 71.4934 5.58232 72.9927 -7.62939e-06H20.0433Z" fill="url(#paint0_linear_603_220)"/>
<path d="M19.4528 8.52962C19.7692 8.365 20.1766 7.61527 19.7112 7.30312C19.5637 7.20431 19.3172 7.17563 18.9732 7.21957C18.6541 7.26026 18.4706 7.3422 18.3459 7.47045C18.1456 7.67664 17.9618 8.29865 18.2721 8.52973C18.5744 8.75464 19.2515 8.63428 19.4528 8.52962V8.52962ZM14.9512 7.30312C14.7246 8.41413 14.4693 9.5035 14.2133 10.5923C12.5695 10.6054 10.8912 10.6536 9.30577 10.5644C9.60521 9.49917 9.81997 8.36987 10.1175 7.30312H8.34643C7.71245 10.0204 7.13564 12.7811 6.42773 15.4426H8.23582C8.51936 14.0774 8.78469 12.6982 9.1582 11.4007C10.6998 11.372 12.5474 11.322 14.0289 11.4286C13.7234 12.7775 13.3543 14.0781 13.0695 15.4426H14.8776C15.4587 12.6851 16.0706 9.95126 16.7964 7.30312H14.9512V7.30312ZM40.5219 9.64463C39.1151 9.21538 38.0091 9.94076 37.4963 10.6202C37.6126 10.318 37.6605 9.96392 37.7548 9.64463H36.3526C36.0097 11.6529 35.5045 13.5383 35.0243 15.4426H36.611C36.8334 14.3123 36.9294 12.7886 37.4227 11.7073C37.8169 10.8433 38.8488 10.1072 40.3377 10.5088C40.3583 10.19 40.4791 9.94671 40.5219 9.64463V9.64463ZM41.4073 14.0768C41.2611 13.7913 41.2234 13.32 41.2599 12.9616C41.3419 12.1563 41.7304 11.1757 42.33 10.7317C43.1574 10.119 44.7908 10.2204 46.0937 10.5645C46.134 10.2328 46.2223 9.93686 46.2783 9.61682C44.1415 9.35316 42.1139 9.51724 41.0388 10.3695C39.9862 11.2037 39.2965 13.1212 39.7841 14.3277C40.3549 15.7394 42.9146 15.8162 44.9868 15.2755C45.0785 14.9917 45.1271 14.6753 45.2082 14.3835C44.0756 14.8278 41.9106 15.0588 41.4073 14.0768V14.0768ZM59.2295 9.67245C57.8271 9.14276 56.6596 10.0316 56.2038 10.5644C56.3336 10.291 56.3411 9.92485 56.462 9.64453H55.06C54.6819 11.6354 54.2263 13.5675 53.6949 15.4425H55.3184C55.3286 14.674 55.5285 14.1056 55.6872 13.352C56.0265 11.7428 56.5248 9.97821 59.0084 10.5087C59.0905 10.2366 59.1247 9.92788 59.2295 9.67245ZM17.8293 9.64463C17.7863 9.64929 17.7892 9.68869 17.7923 9.72819C17.4427 11.7033 16.9695 13.5853 16.464 15.4425H18.0506C18.4319 13.454 18.8686 11.5076 19.4159 9.64453L17.8293 9.64463V9.64463ZM31.7769 9.53315C30.6304 9.59993 29.6614 9.84909 28.9727 10.3973C28.1279 11.0695 27.4439 12.5559 27.6444 13.9096C27.9304 15.8406 31.1131 15.7713 33.6588 15.3033C33.7022 14.9643 33.8108 14.6745 33.8801 14.3555C32.8315 14.6519 31.0107 15.0657 29.9319 14.5507C29.1175 14.1616 29.1128 13.1768 29.3784 12.3207C31.0893 12.2796 32.8676 12.2874 34.581 12.3207C34.6896 11.7139 35.0007 11.0524 34.7286 10.4531C34.3698 9.66195 33.0847 9.45696 31.7769 9.53315ZM33.2897 11.6516H29.5628C29.6808 11.0044 30.4516 10.293 31.6662 10.2579C32.8092 10.2249 33.6275 10.5749 33.2897 11.6516V11.6516ZM25.7625 9.64463C24.4196 9.26355 22.783 9.71845 22.0734 10.1512C22.076 10.1702 22.0565 10.1728 22.0356 10.1742C22.0476 10.1665 22.0608 10.1588 22.0734 10.1512C22.0733 10.1496 22.0731 10.148 22.0727 10.1464C22.0846 9.96035 22.1713 9.83069 22.1833 9.64463H20.8181C20.2491 12.504 19.5745 15.2835 18.8626 18.0349H20.4491C20.6788 16.9633 20.8304 15.8329 21.1503 14.8293C21.5126 15.8848 23.8786 15.6832 24.8771 15.2753C26.9369 14.4337 28.5258 10.4287 25.7625 9.64463V9.64463ZM24.508 14.3555C23.6591 15.0346 21.5722 15.0245 21.4085 13.8815C21.3373 13.3843 21.5824 12.8629 21.7039 12.3485C21.8264 11.8278 21.9148 11.3282 22.0357 10.8711C22.8719 10.0999 25.3288 10.0067 25.5781 11.2892C25.7943 12.4027 25.2109 13.793 24.508 14.3555V14.3555ZM65.1331 7.1359C64.9971 8.03662 64.8153 8.90281 64.5798 9.72819C60.6878 8.7975 58.3011 10.9607 58.344 13.6307C58.3525 14.1471 58.4701 14.6592 58.8973 15.0245C59.6343 15.6537 61.7436 15.8045 62.8088 15.2752C63.0148 15.1728 63.2256 14.9865 63.3621 14.8572C63.4648 14.7599 63.6277 14.5051 63.6574 14.5784C63.6012 14.8612 63.5176 15.1234 63.51 15.4425H64.949C65.2265 12.437 66.0838 9.87008 66.7201 7.1358H65.1332V7.1359H65.1331ZM61.591 14.8014C60.5229 14.8187 59.9918 14.3193 59.9673 13.4913C59.9248 12.0412 60.7668 10.4302 62.4766 10.2857C63.2726 10.2185 63.849 10.3583 64.4322 10.5088C63.8967 12.1377 64.0899 14.7609 61.591 14.8014V14.8014ZM47.9015 9.64463C47.8235 9.97583 47.7035 10.2755 47.6064 10.5923C48.5427 10.4149 51.4581 9.87117 51.7391 10.8153C51.8323 11.1289 51.6714 11.4622 51.5545 11.7073C48.9183 11.5187 46.7696 11.8496 46.2042 13.2683C45.8257 14.2186 46.2466 15.1537 47.0529 15.4147C48.6059 15.9174 50.4948 15.3416 51.1487 14.5507C51.0807 14.8244 51.0164 15.1012 51.0382 15.4426H52.4033C52.4179 14.4548 52.6082 13.6553 52.8092 12.7665C52.9805 12.0096 53.303 11.2603 53.252 10.5923C53.1345 9.06245 49.7796 9.60361 47.9015 9.64463V9.64463ZM50.4844 14.3275C49.6668 14.9322 47.3716 15.104 47.6064 13.6586C47.8013 12.458 49.5317 12.2029 51.4067 12.3762C51.2674 13.033 51.1075 13.8668 50.4844 14.3275V14.3275Z" fill="white"/>
</g>
<defs>
<linearGradient id="paint0_linear_603_220" x1="36.5" y1="-7.62939e-06" x2="36.5" y2="24" gradientUnits="userSpaceOnUse">
<stop stop-color="white"/>
<stop offset="1" stop-color="white" stop-opacity="0.75"/>
</linearGradient>
<clipPath id="clip0_603_220">
<rect width="73" height="24" fill="white"/>
</clipPath>
</defs>
</svg>
