<svg width="74" height="23" viewBox="0 0 74 23" fill="none" xmlns="http://www.w3.org/2000/svg">
<path fill-rule="evenodd" clip-rule="evenodd" d="M36.9999 16.487C39.2302 15.8546 41.0106 15.0843 42.227 14.2256C43.4433 13.3668 44.0689 12.4385 44.0634 11.5002C44.0689 10.5619 43.4434 9.63355 42.2271 8.77478C41.0107 7.916 39.2302 7.14573 36.9999 6.51336C33.1862 5.43134 28.1271 4.77197 22.5754 4.77197C10.7086 4.77197 1.08789 7.78425 1.08789 11.5002C1.08789 15.216 10.7086 18.2284 22.5754 18.2284C28.1271 18.2284 33.1866 17.569 36.9999 16.487Z" fill="url(#paint0_linear_603_239)"/>
<path fill-rule="evenodd" clip-rule="evenodd" d="M51.4245 4.77197C45.8729 4.77197 40.813 5.43134 37.0001 6.51336C36.2225 6.73419 35.4974 6.97227 34.8306 7.22571H39.168C39.7634 7.45192 40.311 7.68991 40.8072 7.93818H33.1925C32.7341 8.16776 32.3204 8.40568 31.9536 8.65065H42.0442C42.3915 8.88251 42.6959 9.12035 42.956 9.363H31.0438C30.794 9.59672 30.5857 9.83453 30.4199 10.0754H43.5802C43.9024 10.5437 44.0645 11.0213 44.0639 11.5002C44.0639 12.2471 43.6739 12.9658 42.9563 13.6372H31.0438C31.3029 13.8799 31.6067 14.1178 31.9536 14.3497H42.0442C41.6781 14.5947 41.2649 14.8326 40.8069 15.0622H33.1925C33.6882 15.3104 34.2353 15.5484 34.8302 15.7746H39.168C38.502 16.0282 37.7775 16.2663 37.0001 16.4871C40.813 17.5691 45.8729 18.2285 51.4245 18.2285C63.291 18.2285 72.9121 15.2161 72.9121 11.5003C72.9121 7.78425 63.291 4.77197 51.4245 4.77197Z" fill="url(#paint1_linear_603_239)"/>
<path fill-rule="evenodd" clip-rule="evenodd" d="M70.0508 15.2507C70.0508 15.1307 70.3614 15.0333 70.7453 15.0333C71.1284 15.0333 71.439 15.1307 71.439 15.2507C71.439 15.3705 71.1284 15.4679 70.7453 15.4679C70.5605 15.4677 70.3836 15.4447 70.2534 15.404C70.1231 15.3633 70.0503 15.3081 70.0508 15.2507V15.2507ZM70.7449 15.4156C71.0359 15.4156 71.272 15.342 71.272 15.2506C71.272 15.1592 71.0359 15.0854 70.7449 15.0854C70.4531 15.0854 70.217 15.1592 70.217 15.2506C70.217 15.342 70.4535 15.4156 70.7449 15.4156ZM70.6512 15.3459H70.5088V15.1548H70.7668C70.8201 15.1548 70.8746 15.1553 70.9219 15.1646C70.9464 15.17 70.9663 15.1771 70.9799 15.1854C70.9935 15.1938 71.0003 15.203 70.9998 15.2123C70.9998 15.2338 70.9595 15.2541 70.8942 15.2617L71.0067 15.3458H70.8485L70.7556 15.2703H70.6516V15.3459V15.2378H70.7303C70.7587 15.2378 70.791 15.2383 70.8167 15.2339C70.8281 15.2315 70.8374 15.2282 70.8437 15.2243C70.85 15.2205 70.8531 15.2163 70.8528 15.212C70.8523 15.2081 70.8489 15.2044 70.8429 15.201C70.8369 15.1976 70.8285 15.1948 70.8182 15.1926C70.7936 15.188 70.7537 15.1892 70.7268 15.1892H70.652V15.3459H70.6512Z" fill="#CC2131"/>
<path fill-rule="evenodd" clip-rule="evenodd" d="M65.5067 12.9584C65.5067 12.8384 65.8173 12.741 66.2004 12.741C66.5835 12.741 66.8941 12.8384 66.8941 12.9584C66.8941 13.0784 66.5835 13.1756 66.2004 13.1756C65.8173 13.1756 65.5067 13.0783 65.5067 12.9584ZM66.2 13.1233C66.491 13.1233 66.7271 13.0495 66.7271 12.9583C66.7271 12.8669 66.491 12.793 66.2 12.793C65.9082 12.793 65.6729 12.8669 65.6729 12.9583C65.6729 13.0495 65.9086 13.1233 66.2 13.1233ZM66.1063 13.0536H65.9639V12.8627H66.2219C66.2753 12.8627 66.3305 12.863 66.377 12.8725C66.4015 12.8778 66.4214 12.8849 66.435 12.8932C66.4486 12.9015 66.4554 12.9107 66.4549 12.92C66.4549 12.9417 66.415 12.9618 66.3494 12.9694L66.4618 13.0535H66.3044L66.2108 12.978H66.1067V13.0536V12.9455H66.1854C66.2146 12.9455 66.2469 12.9462 66.2718 12.9418C66.2831 12.9393 66.2923 12.9361 66.2986 12.9322C66.3049 12.9284 66.3081 12.9242 66.3079 12.9199C66.3076 12.916 66.3044 12.9122 66.2983 12.9088C66.2923 12.9054 66.2838 12.9025 66.2733 12.9003C66.2488 12.8959 66.2088 12.8968 66.1827 12.8968H66.1071V13.0536H66.1063ZM19.8911 13.1756H17.2168L18.8062 10.5534L15.1468 13.1756H12.7082L12.2625 10.5684L10.6682 13.1756H8.24072L10.315 9.76452H14.488L14.7088 11.8763L17.651 9.76452H21.9995L19.8911 13.1756V13.1756ZM49.7785 13.1416C49.0468 13.2045 48.4747 13.2315 47.8567 13.2315C46.4884 13.2315 45.7413 13.0166 45.7413 12.6224C45.7413 12.5444 45.769 12.4613 45.82 12.3735L45.9828 12.1023L46.108 11.8827L47.3476 9.7644H50.0073L49.6218 10.4015H50.9866L50.62 11.0759H49.2495L48.5446 12.2333C48.5185 12.2711 48.5032 12.3096 48.4989 12.3482C48.4989 12.4915 48.7757 12.5538 49.4115 12.5538C49.7159 12.5538 49.952 12.5452 50.1328 12.5279L49.7785 13.1416ZM57.5894 10.4243C57.3652 10.3966 57.3126 10.3966 57.2865 10.3943C57.1448 10.3845 57.0692 10.3788 57.0562 10.3781C56.9673 10.3732 56.8772 10.3709 56.787 10.3712C55.9091 10.3712 55.276 10.4936 54.4575 10.8216L54.6936 10.4012H52.2716L50.6415 13.1755H53.3177C54.2752 11.4788 54.6852 11.1817 55.9689 11.1817C56.0657 11.1817 56.1774 11.1841 56.3072 11.1887L56.6197 11.2087L57.5894 10.4243V10.4243ZM39.1769 11.2779C39.1769 11.6283 39.8077 11.8697 41.2374 12.0511C42.333 12.1905 42.5023 12.2313 42.5023 12.3573C42.5023 12.5299 42.0194 12.6078 40.9494 12.6078C40.1417 12.6078 39.3912 12.5738 38.5247 12.4981L38.1535 13.138L38.2732 13.1443L38.7689 13.1727C38.9286 13.1813 39.1639 13.1895 39.476 13.1969C40.1194 13.2126 40.6174 13.22 40.9682 13.22C43.823 13.22 45.1417 12.927 45.1417 12.2943C45.1417 11.9135 44.5904 11.6903 43.2348 11.5221C42.1004 11.3817 41.9691 11.3505 41.9691 11.2211C41.9691 11.0716 42.419 10.9947 43.2932 10.9947C43.8249 10.9947 44.5497 11.0104 45.2373 11.0364L45.6227 10.3942C44.9225 10.3644 43.8598 10.3399 43.2421 10.3399C40.2154 10.34 39.1677 10.7662 39.1769 11.2779V11.2779ZM28.585 13.1756H26.3626L26.4144 12.888C25.7376 13.1157 24.8354 13.2235 23.6092 13.2235C22.16 13.2235 21.1653 12.9145 21.1653 12.4659C21.1653 11.79 22.8932 11.3961 25.8631 11.3961C26.1676 11.3961 26.5541 11.4036 26.9526 11.4175C27.0356 11.3263 27.0582 11.287 27.0582 11.2373C27.0582 11.0537 26.5918 10.9849 25.3429 10.9849C24.5793 10.9849 23.7163 11.015 23.1205 11.0623L22.75 11.0917L22.5101 11.1096L22.8809 10.4859C24.2142 10.379 25.0942 10.3386 26.0827 10.3386C28.3811 10.3386 29.5958 10.6204 29.5958 11.1524C29.5958 11.2892 29.5555 11.3931 29.3785 11.702L28.8196 12.6861L28.7255 12.8627L28.6572 13.0038L28.6115 13.1003L28.585 13.1756V13.1756ZM26.634 11.9396C26.4357 11.932 26.2361 11.9281 26.0363 11.9282C24.5206 11.9282 23.7528 12.0701 23.7528 12.3502C23.7528 12.5229 24.1275 12.6331 24.7122 12.6331C25.8025 12.6333 26.5879 12.3499 26.634 11.9396ZM37.3584 13.1157C36.4652 13.191 35.5436 13.2289 34.6181 13.2282C31.6282 13.2275 30.0699 12.8013 30.0699 11.9853C30.0699 11.033 32.0524 10.3319 34.7436 10.3319C36.9453 10.3319 38.3512 10.7246 38.3512 11.3403C38.3512 11.5447 38.2552 11.744 38.0229 12.0252H32.7055C32.6892 12.054 32.6806 12.0831 32.6797 12.1123C32.6797 12.4339 33.4725 12.5979 35.0258 12.5979C35.9809 12.5979 36.8443 12.5436 37.8029 12.4224L37.3584 13.1157ZM35.9341 11.465C35.9487 11.4072 35.9564 11.36 35.9564 11.3235C35.9564 11.0982 35.4876 10.966 34.6914 10.966C33.8407 10.966 33.2322 11.1433 32.9853 11.4633L35.9341 11.465ZM65.9025 11.9178C65.5021 12.8406 63.444 13.2499 60.7079 13.2499C57.6823 13.2499 56.4603 12.6753 56.4603 11.9711C56.4603 10.9879 58.53 10.3218 61.7264 10.3218C64.5008 10.3218 65.9739 10.8696 65.9739 11.5738C65.9739 11.7451 65.9731 11.7565 65.9025 11.9178ZM63.1484 11.5628C63.1484 11.2726 62.7721 10.9987 61.6757 10.9987C60.3109 10.9987 59.4652 11.5038 59.4652 11.9497C59.4652 12.3258 60.0449 12.5785 61.0008 12.5731C61.5805 12.5731 62.8167 12.3259 63.0612 11.8941C63.1184 11.7934 63.1484 11.6829 63.1484 11.5628V11.5628Z" fill="white"/>
<defs>
<linearGradient id="paint0_linear_603_239" x1="22.5756" y1="4.77197" x2="22.5756" y2="18.2284" gradientUnits="userSpaceOnUse">
<stop stop-color="white"/>
<stop offset="1" stop-color="white" stop-opacity="0.75"/>
</linearGradient>
<linearGradient id="paint1_linear_603_239" x1="51.666" y1="4.77197" x2="51.666" y2="18.2285" gradientUnits="userSpaceOnUse">
<stop stop-color="white"/>
<stop offset="1" stop-color="white" stop-opacity="0.75"/>
</linearGradient>
</defs>
</svg>
