<svg width="53" height="40" viewBox="0 0 34 28" fill="none" xmlns="http://www.w3.org/2000/svg">
<path fill-rule="evenodd" clip-rule="evenodd" d="M17.0001 20.0711C18.0248 19.3012 18.8428 18.3635 19.4017 17.318C19.9606 16.2726 20.248 15.1425 20.2455 14.0002C20.248 12.8579 19.9607 11.7278 19.4018 10.6823C18.8429 9.63684 18.0248 8.69912 17.0001 7.92927C15.2479 6.61204 12.9234 5.80933 10.3727 5.80933C4.9203 5.80933 0.5 9.47645 0.5 14.0002C0.5 18.5238 4.9203 22.191 10.3727 22.191C12.9234 22.191 15.248 21.3883 17.0001 20.0711Z" fill="url(#paint0_linear_603_239)"/>
<path fill-rule="evenodd" clip-rule="evenodd" d="M23.6278 5.80933C21.0771 5.80933 18.7522 6.61204 17.0004 7.92927C16.6431 8.19812 16.3099 8.48795 16.0036 8.79648H17.9964C18.27 9.07187 18.5216 9.36159 18.7496 9.66384H15.2509C15.0403 9.94333 14.8502 10.233 14.6817 10.5312H19.3179C19.4775 10.8135 19.6174 11.103 19.7369 11.3984H14.2637C14.1489 11.6829 14.0532 11.9724 13.9771 12.2656H20.0237C20.1717 12.8357 20.2462 13.4172 20.2459 14.0002C20.2459 14.9095 20.0667 15.7844 19.737 16.6018H14.2637C14.3827 16.8973 14.5223 17.1869 14.6817 17.4692H19.3179C19.1497 17.7674 18.9599 18.0571 18.7494 18.3365H15.2509C15.4787 18.6387 15.7301 18.9285 16.0034 19.2039H17.9964C17.6904 19.5126 17.3575 19.8024 17.0004 20.0712C18.7522 21.3885 21.0771 22.1912 23.6278 22.1912C29.08 22.1912 33.5005 18.5239 33.5005 14.0003C33.5005 9.47645 29.08 5.80933 23.6278 5.80933Z" fill="url(#paint1_linear_603_239)"/>
<path fill-rule="evenodd" clip-rule="evenodd" d="M32.1855 18.5661C32.1855 18.4199 32.3282 18.3014 32.5046 18.3014C32.6807 18.3014 32.8234 18.4199 32.8234 18.5661C32.8234 18.7119 32.6807 18.8304 32.5046 18.8304C32.4198 18.8302 32.3385 18.8022 32.2786 18.7526C32.2188 18.7031 32.1853 18.636 32.1855 18.5661V18.5661ZM32.5045 18.7668C32.6382 18.7668 32.7466 18.6772 32.7466 18.5659C32.7466 18.4546 32.6382 18.3647 32.5045 18.3647C32.3704 18.3647 32.2619 18.4546 32.2619 18.5659C32.2619 18.6772 32.3706 18.7668 32.5045 18.7668ZM32.4614 18.682H32.396V18.4493H32.5145C32.539 18.4493 32.5641 18.4498 32.5858 18.4612C32.597 18.4677 32.6062 18.4764 32.6124 18.4866C32.6187 18.4967 32.6218 18.5079 32.6216 18.5193C32.6216 18.5454 32.6031 18.5701 32.5731 18.5794L32.6248 18.6818H32.5521L32.5094 18.5899H32.4616V18.682V18.5504H32.4978C32.5108 18.5504 32.5256 18.551 32.5374 18.5456C32.5427 18.5426 32.547 18.5386 32.5498 18.5339C32.5527 18.5293 32.5542 18.5241 32.554 18.5188C32.5538 18.5142 32.5523 18.5096 32.5495 18.5055C32.5467 18.5014 32.5429 18.4979 32.5382 18.4953C32.5269 18.4897 32.5085 18.4911 32.4962 18.4911H32.4618V18.682H32.4614Z" fill="#CC2131"/>
<path fill-rule="evenodd" clip-rule="evenodd" d="M30.098 15.7754C30.098 15.6293 30.2407 15.5108 30.4167 15.5108C30.5928 15.5108 30.7355 15.6293 30.7355 15.7754C30.7355 15.9216 30.5928 16.0398 30.4167 16.0398C30.2407 16.0398 30.098 15.9214 30.098 15.7754ZM30.4166 15.9762C30.5503 15.9762 30.6587 15.8863 30.6587 15.7753C30.6587 15.664 30.5503 15.5741 30.4166 15.5741C30.2825 15.5741 30.1744 15.664 30.1744 15.7753C30.1744 15.8863 30.2827 15.9762 30.4166 15.9762ZM30.3735 15.8914H30.3081V15.6589H30.4266C30.4511 15.6589 30.4765 15.6592 30.4979 15.6709C30.5091 15.6773 30.5183 15.686 30.5245 15.6961C30.5308 15.7062 30.5339 15.7174 30.5337 15.7287C30.5337 15.7551 30.5153 15.7795 30.4852 15.7888L30.5369 15.8912H30.4645L30.4215 15.7993H30.3737V15.8914V15.7598H30.4099C30.4233 15.7598 30.4381 15.7606 30.4496 15.7552C30.4547 15.7522 30.459 15.7482 30.4618 15.7436C30.4647 15.7389 30.4662 15.7337 30.4661 15.7285C30.466 15.7238 30.4645 15.7192 30.4617 15.715C30.459 15.7109 30.455 15.7073 30.4503 15.7047C30.439 15.6993 30.4206 15.7005 30.4086 15.7005H30.3739V15.8914H30.3735ZM9.13949 16.0398H7.91077L8.64102 12.8476L6.95968 16.0398H5.83926L5.63447 12.8659L4.90193 16.0398H3.78662L4.73965 11.8872H6.657L6.75842 14.4581L8.11026 11.8872H10.1082L9.13949 16.0398V16.0398ZM22.8715 15.9984C22.5353 16.075 22.2725 16.1079 21.9885 16.1079C21.3599 16.1079 21.0166 15.8463 21.0166 15.3664C21.0166 15.2714 21.0293 15.1703 21.0528 15.0634L21.1276 14.7332L21.1851 14.4659L21.7546 11.8871H22.9767L22.7996 12.6626H23.4266L23.2582 13.4837H22.6285L22.3046 14.8927C22.2926 14.9387 22.2856 14.9855 22.2836 15.0326C22.2836 15.207 22.4108 15.2829 22.7029 15.2829C22.8428 15.2829 22.9513 15.2724 23.0343 15.2513L22.8715 15.9984ZM26.4603 12.6904C26.3573 12.6567 26.3332 12.6567 26.3212 12.6539C26.2561 12.642 26.2213 12.635 26.2153 12.6342C26.1745 12.6283 26.1331 12.6255 26.0917 12.6257C25.6883 12.6257 25.3974 12.7748 25.0214 13.1741L25.1298 12.6623H24.017L23.2681 16.0397H24.4977C24.9376 13.9742 25.126 13.6125 25.7158 13.6125C25.7603 13.6125 25.8116 13.6154 25.8712 13.6211L26.0148 13.6453L26.4603 12.6904V12.6904ZM18.0006 13.7296C18.0006 14.1562 18.2904 14.4501 18.9472 14.6709C19.4507 14.8405 19.5284 14.8902 19.5284 15.0436C19.5284 15.2538 19.3065 15.3487 18.8149 15.3487C18.4438 15.3487 18.099 15.3073 17.7009 15.215L17.5303 15.9941L17.5853 16.0018L17.8131 16.0363C17.8864 16.0468 17.9946 16.0568 18.138 16.0658C18.4336 16.0848 18.6624 16.0939 18.8236 16.0939C20.1352 16.0939 20.7411 15.7372 20.7411 14.9669C20.7411 14.5034 20.4878 14.2316 19.865 14.0269C19.3438 13.856 19.2834 13.818 19.2834 13.6604C19.2834 13.4784 19.4902 13.3849 19.8918 13.3849C20.1361 13.3849 20.4691 13.4039 20.785 13.4356L20.9621 12.6538C20.6404 12.6175 20.1521 12.5877 19.8683 12.5877C18.4777 12.5878 17.9963 13.1067 18.0006 13.7296V13.7296ZM13.134 16.0398H12.1129L12.1367 15.6897C11.8257 15.9669 11.4112 16.0982 10.8478 16.0982C10.1819 16.0982 9.72493 15.722 9.72493 15.1758C9.72493 14.353 10.5189 13.8735 11.8834 13.8735C12.0233 13.8735 12.2009 13.8827 12.384 13.8995C12.4221 13.7886 12.4325 13.7406 12.4325 13.6802C12.4325 13.4566 12.2182 13.373 11.6444 13.373C11.2936 13.373 10.897 13.4096 10.6233 13.4671L10.4531 13.503L10.3428 13.5248L10.5132 12.7655C11.1258 12.6353 11.5301 12.5861 11.9843 12.5861C13.0403 12.5861 13.5984 12.9292 13.5984 13.5768C13.5984 13.7434 13.5799 13.8699 13.4986 14.2458L13.2418 15.444L13.1985 15.6589L13.1672 15.8306L13.1462 15.9482L13.134 16.0398V16.0398ZM12.2376 14.5352C12.1465 14.5259 12.0548 14.5212 11.9629 14.5213C11.2666 14.5213 10.9138 14.694 10.9138 15.035C10.9138 15.2452 11.0859 15.3795 11.3546 15.3795C11.8555 15.3796 12.2164 15.0346 12.2376 14.5352ZM17.165 15.9669C16.7546 16.0586 16.3312 16.1047 15.9059 16.1039C14.5322 16.103 13.8163 15.5841 13.8163 14.5908C13.8163 13.4315 14.7271 12.5779 15.9636 12.5779C16.9752 12.5779 17.6211 13.056 17.6211 13.8056C17.6211 14.0544 17.577 14.297 17.4703 14.6394H15.0272C15.0197 14.6744 15.0157 14.7098 15.0154 14.7454C15.0154 15.1369 15.3796 15.3366 16.0933 15.3366C16.5321 15.3366 16.9288 15.2705 17.3693 15.1229L17.165 15.9669ZM16.5106 13.9573C16.5173 13.887 16.5208 13.8295 16.5208 13.7851C16.5208 13.5108 16.3055 13.3499 15.9396 13.3499C15.5488 13.3499 15.2692 13.5657 15.1558 13.9553L16.5106 13.9573ZM30.2799 14.5086C30.0959 15.6321 29.1503 16.1303 27.8931 16.1303C26.503 16.1303 25.9416 15.4307 25.9416 14.5735C25.9416 13.3766 26.8925 12.5656 28.3611 12.5656C29.6359 12.5656 30.3127 13.2325 30.3127 14.0898C30.3127 14.2984 30.3123 14.3122 30.2799 14.5086ZM29.0145 14.0765C29.0145 13.7232 28.8416 13.3897 28.3378 13.3897C27.7108 13.3897 27.3222 14.0046 27.3222 14.5474C27.3222 15.0053 27.5885 15.3129 28.0277 15.3064C28.2941 15.3064 28.8621 15.0054 28.9744 14.4797C29.0007 14.3571 29.0145 14.2226 29.0145 14.0765V14.0765Z" fill="#A9A9B2"/>
<defs>
<linearGradient id="paint0_linear_603_239" x1="10.3728" y1="5.80933" x2="10.3728" y2="22.191" gradientUnits="userSpaceOnUse">
<stop stop-color="white"/>
<stop offset="1" stop-color="white" stop-opacity="0.75"/>
</linearGradient>
<linearGradient id="paint1_linear_603_239" x1="23.7388" y1="5.80933" x2="23.7388" y2="22.1912" gradientUnits="userSpaceOnUse">
<stop stop-color="white"/>
<stop offset="1" stop-color="white" stop-opacity="0.75"/>
</linearGradient>
</defs>
</svg>
