<svg width="33" height="25" viewBox="0 0 1807 1162" fill="none" xmlns="http://www.w3.org/2000/svg">
<g clip-path="url(#clip0_604_188)">
<path d="M1360.88 705.251H1491.19C1494.91 705.251 1503.6 704.188 1507.32 704.188C1532.14 699.935 1553.24 680.797 1553.24 654.218C1553.24 628.701 1532.14 609.564 1507.32 604.248C1503.6 603.185 1496.15 603.185 1491.19 603.185H1360.88V705.251Z" fill="url(#paint0_linear_604_188)"/>
<path d="M1476.3 0.355469C1352.19 0.355469 1250.43 86.4739 1250.43 193.856V394.799H1569.37C1576.82 394.799 1585.51 394.799 1591.71 395.862C1663.69 399.052 1717.06 430.948 1717.06 486.233C1717.06 529.824 1681.07 567.036 1614.05 574.478V576.605C1687.27 580.857 1743.12 615.943 1743.12 670.165C1743.12 728.641 1681.07 766.916 1599.16 766.916H1249.18V1160.3H1580.54C1704.65 1160.3 1806.41 1074.18 1806.41 966.795V0.355469H1476.3Z" fill="url(#paint1_linear_604_188)"/>
<path d="M1537.11 498.992C1537.11 473.475 1516.01 456.464 1491.19 453.275C1488.71 453.275 1482.5 452.211 1478.78 452.211H1360.88V545.772H1478.78C1482.5 545.772 1489.95 545.772 1491.19 544.709C1516.01 541.519 1537.11 524.508 1537.11 498.992V498.992Z" fill="url(#paint2_linear_604_188)"/>
<path d="M227.805 0.355469C103.701 0.355469 1.93502 86.4739 1.93502 193.856V671.229C65.2283 697.808 131.004 714.819 196.779 714.819C274.965 714.819 317.16 674.418 317.16 619.132V393.736H510.763V618.069C510.763 705.251 447.47 776.484 232.769 776.484C102.46 776.484 0.69397 752.031 0.69397 752.031V1159.23H332.053C456.157 1159.23 557.923 1073.11 557.923 965.732V0.355469H227.805Z" fill="url(#paint3_linear_604_188)"/>
<path d="M852.05 0.355469C727.946 0.355469 626.18 86.4739 626.18 193.856V446.895C683.268 405.431 782.552 378.851 942.647 385.23C1028.28 388.42 1120.12 408.621 1120.12 408.621V490.486C1074.2 470.286 1019.59 452.211 948.852 447.959C827.23 440.516 754.008 491.549 754.008 580.857C754.008 671.229 827.23 722.262 948.852 713.756C1019.59 709.503 1074.2 690.366 1120.12 671.229V753.094C1120.12 753.094 1029.52 773.295 942.647 776.484C782.552 782.864 683.268 756.284 626.18 714.819V1161.36H957.539C1081.64 1161.36 1183.41 1075.24 1183.41 967.859V0.355469H852.05Z" fill="url(#paint4_linear_604_188)"/>
</g>
<defs>
<linearGradient id="paint0_linear_604_188" x1="1457.06" y1="603.185" x2="1457.06" y2="705.251" gradientUnits="userSpaceOnUse">
<stop stop-color="white"/>
<stop offset="1" stop-color="white" stop-opacity="0.75"/>
</linearGradient>
<linearGradient id="paint1_linear_604_188" x1="1527.8" y1="0.355469" x2="1527.8" y2="1160.3" gradientUnits="userSpaceOnUse">
<stop stop-color="white"/>
<stop offset="1" stop-color="white" stop-opacity="0.75"/>
</linearGradient>
<linearGradient id="paint2_linear_604_188" x1="1448.99" y1="452.211" x2="1448.99" y2="545.772" gradientUnits="userSpaceOnUse">
<stop stop-color="white"/>
<stop offset="1" stop-color="white" stop-opacity="0.75"/>
</linearGradient>
<linearGradient id="paint3_linear_604_188" x1="279.308" y1="0.355469" x2="279.308" y2="1159.23" gradientUnits="userSpaceOnUse">
<stop stop-color="white"/>
<stop offset="1" stop-color="white" stop-opacity="0.75"/>
</linearGradient>
<linearGradient id="paint4_linear_604_188" x1="904.795" y1="0.355469" x2="904.795" y2="1161.36" gradientUnits="userSpaceOnUse">
<stop stop-color="white"/>
<stop offset="1" stop-color="white" stop-opacity="0.75"/>
</linearGradient>
<clipPath id="clip0_604_188">
<rect width="1807" height="1162" fill="white"/>
</clipPath>
</defs>
</svg>
