<svg width="64" height="23" viewBox="0 0 64 23" fill="none" xmlns="http://www.w3.org/2000/svg">
<path fill-rule="evenodd" clip-rule="evenodd" d="M4.54965 0.691406L2.28782 5.82387L2.1346 6.14075L0.331055 10.1779H2.1346H4.87218L5.61428 8.48912H7.3267L8.03737 10.1779H13.366V8.0009L14.3992 10.1779H17.112L18.1124 8.03391V10.1779H31.451V7.44942H32.1289C32.4842 7.44942 32.7425 7.80561 32.7425 8.09992V10.1779H39.0073V8.71741C39.3626 9.82037 41.0081 10.1147 41.7188 10.1779H44.981L45.7559 8.32546H47.4041L48.2432 10.1779H53.442V7.38479L55.1544 10.1779H59.2544V0.691406H55.4442V3.25901L53.96 0.691406H49.793V3.64683L48.5015 0.691406H41.4605C40.1375 0.691406 39.4597 1.17962 39.0073 1.79574V0.691406H35.5524V1.63346C35.1629 0.919697 34.291 0.691406 33.6459 0.691406H17.1434L15.7549 3.71422L14.3336 0.691406H9.65277V3.74448L8.3927 0.691406H4.54965ZM58.6421 13.1705H63.4513V17.1979L62.9359 19.4986C62.9279 18.3571 62.7107 17.2768 60.5706 17.1691C60.5045 17.1691 60.2162 17.156 59.9319 17.1431C59.6635 17.1309 59.3987 17.1188 59.3283 17.1182C58.9101 17.0755 58.578 16.9861 58.578 16.5406C58.578 15.9053 59.1179 15.9062 59.6769 15.9072C59.7411 15.9073 59.8056 15.9074 59.8695 15.9066H62.5987V14.3456H58.8691C57.7061 14.3456 56.7535 15.0924 56.7535 16.4567C56.7535 17.6586 57.2114 18.6447 59.1834 18.697C59.5928 18.7139 60.0016 18.7424 60.4093 18.7822C60.9341 18.84 61.064 19.0504 61.064 19.3832C61.064 20.0846 60.3301 20.0846 59.8367 20.0846H56.9298V21.6428H60.6594C61.8124 21.6428 62.9171 20.9237 62.936 19.582L62.9359 19.4986L63.4513 17.1979C63.4513 17.1979 64.0527 18.5055 63.9964 19.3832C63.9216 20.5508 63.5525 21.3428 62.6137 22.0409C62.0683 22.4464 61.7745 22.6914 60.9996 22.6914H55.9594V21.9763C55.5726 22.3998 55.0246 22.6914 54.1513 22.6914H39.9435V20.7097C39.9381 20.6665 39.9371 20.6155 39.936 20.5604C39.9306 20.2814 39.9232 19.8969 39.3298 19.8969H38.749V22.6914H34.9702V19.4719C34.5935 20.1059 33.7934 20.1531 33.2443 20.1855L33.1949 20.1884H31.1914V22.6914H26.1538L24.6997 20.9036L23.1499 22.6914H14.5933V13.1705H23.2798L24.7968 14.8923L26.3479 13.1705H33.2263C33.7101 13.2007 34.6299 13.429 34.9702 13.9489V13.1705H40.8482C41.3648 13.1705 42.3652 13.396 42.7861 14.0782V13.1705H50.1483V14.0135C50.5351 13.4951 51.1501 13.1705 52.0849 13.1705H56.7999V13.9833C57.1552 13.462 58.0928 13.1705 58.6421 13.1705ZM62.936 19.582C62.9362 19.5703 62.9359 19.5104 62.9359 19.4986C62.9361 19.5227 62.9359 19.4745 62.9359 19.4986L62.936 19.582ZM38.1669 9.11554H36.3916V1.82805H38.1669V9.11554ZM30.5136 9.11554H28.7356V1.8363H33.3535C34.2255 1.8363 35.4869 2.22687 35.4869 3.78504C35.4869 4.66383 35.2286 5.31433 34.2596 5.80117C35.0987 5.89881 35.4227 6.45167 35.4227 7.62064L35.4869 9.11554H33.7594L33.7102 7.78292C33.6938 7.16543 33.4533 6.54931 32.8383 6.54931H30.5136V9.11554ZM30.5122 5.05441H32.7249C33.4519 5.05441 33.7089 4.72984 33.7089 4.24163C33.7089 3.88544 33.4752 3.40409 32.7317 3.40409H30.5122V5.05441ZM22.7619 14.3319L24.7312 16.6079L26.7662 14.347H32.9996C33.8701 14.347 35.1466 14.7527 35.1466 16.5722C35.1466 19.1247 33.467 19.1549 32.5472 19.1549H30.1569V21.6263H26.7498L24.6684 19.2044L22.5364 21.6084H15.7618V14.3305H22.7619V14.3319ZM28.3966 15.0457L25.8464 17.8883L28.3966 20.9276V15.0457ZM30.1583 17.6628H32.3709C33.0966 17.6628 33.3549 17.2392 33.3549 16.7523C33.3549 16.3948 33.1212 15.9176 32.3777 15.9176H30.1583V17.6628ZM21.5674 15.9011H17.5399V17.2639H21.454V18.6447H17.5399V20.086H21.633L23.5874 17.8897L21.8585 15.9079L21.5674 15.9011ZM43.6158 14.3319H49.4214V15.9011H45.3924V17.2639H49.3093V18.6447H45.3924V20.086H49.4214V21.6098H43.6158V14.3319ZM35.9871 21.6276H37.7637V19.06H40.0898C40.7021 19.06 40.9453 19.6775 40.9604 20.2936L41.0082 21.6276H42.737L42.6728 20.1327C42.6728 18.9638 42.3489 18.4109 41.5098 18.3133C42.4787 17.8251 42.737 17.1773 42.737 16.2971C42.737 14.739 41.4783 14.3484 40.605 14.3484H35.9871V21.6276ZM39.9764 17.5665H37.7637V15.9176H39.9832C40.7267 15.9176 40.9604 16.3948 40.9604 16.7523C40.9604 17.2406 40.7021 17.5665 39.9764 17.5665ZM56.2834 19.5469C56.2834 18.3779 56.1016 17.2791 53.9177 17.1691C53.8515 17.1691 53.5619 17.1559 53.2772 17.143C53.0098 17.1308 52.7462 17.1188 52.6768 17.1182C52.2558 17.0755 51.9251 16.9861 51.9251 16.5406C51.9251 15.9053 52.4639 15.9062 53.0237 15.9072C53.088 15.9073 53.1525 15.9074 53.2166 15.9066H55.9458V14.3456H52.2148C51.0532 14.3456 50.1006 15.0924 50.1006 16.4567C50.1006 17.6586 50.5584 18.6447 52.5305 18.697C52.6576 18.6997 53.5214 18.7492 53.7564 18.7822C54.2812 18.84 54.4111 19.0504 54.4111 19.3832C54.4111 20.0846 53.6744 20.0846 53.1824 20.0846H50.2755V21.6428H54.0065C55.1682 21.6428 56.2834 20.9111 56.2834 19.5469ZM21.9132 1.8363H27.7174V3.4041H23.6926V4.76973H27.6067V6.15186H23.6926V7.58901H27.7174V9.11554H21.9132V1.8363ZM12.527 9.11554H8.9504L8.2452 7.49136H4.70144L4.00854 9.11554H2.13485L5.30004 1.8363H7.64797L10.7489 8.84737V1.8363H13.5342L15.7058 6.71984L17.8856 1.8363H20.7187V9.11554H18.9434V3.80292L16.5149 9.11554H14.8995L12.527 3.71353V9.11554ZM5.39708 5.92494H7.55914L6.45761 3.37934L5.39708 5.92494ZM48.3868 7.49549H44.8444L44.1502 9.11967H41.8077C39.8383 9.11967 38.965 7.45836 39.0074 5.4436C39.0675 2.45379 40.8237 1.83218 41.6314 1.83218H43.9493V3.41647H42.8518C41.6724 3.41647 40.7526 3.54025 40.7526 5.24557V5.77366C40.7608 7.05678 41.4291 7.36071 41.8569 7.4501C41.9621 7.47486 42.1562 7.48449 42.2273 7.47898L42.9953 7.47486L45.4417 1.8363H47.7923L50.8195 8.66858V1.83218H53.4421L56.4378 6.8725V1.83218H58.2131V9.11967H55.7914L52.5948 3.78917V9.11967H49.0906L48.3868 7.49549ZM46.5965 3.38347L45.5387 5.92769H47.709L46.5965 3.38347Z" fill="url(#paint0_linear_604_202)"/>
<defs>
<linearGradient id="paint0_linear_604_202" x1="32.1656" y1="0.691406" x2="32.1656" y2="22.6914" gradientUnits="userSpaceOnUse">
<stop stop-color="white"/>
<stop offset="1" stop-color="white" stop-opacity="0.75"/>
</linearGradient>
</defs>
</svg>
