<svg width="42" height="24" viewBox="0 0 42 24" fill="none" xmlns="http://www.w3.org/2000/svg">
<path fill-rule="evenodd" clip-rule="evenodd" d="M19.3501 3.03222C19.3049 3.14137 19.3365 17.118 19.3821 17.2009C19.4092 17.2501 19.4281 17.3265 19.4281 17.3867C19.4281 17.4549 19.4473 17.5224 19.4856 17.5892C19.5172 17.6443 19.5432 17.7126 19.5432 17.741C19.5432 17.7695 19.5584 17.8045 19.5771 17.8187C19.5957 17.8331 19.6175 17.8772 19.6254 17.9166C19.6334 17.9561 19.655 17.9999 19.6734 18.014C19.6918 18.0282 19.7211 18.0715 19.7387 18.1103C19.7561 18.1491 19.7815 18.193 19.7952 18.208C19.8087 18.2229 19.8512 18.2734 19.8897 18.3203C20.0134 18.4711 20.0592 18.5226 20.1421 18.6035C20.2381 18.6972 20.3839 18.8192 20.4537 18.8642C20.6813 19.0108 20.8096 19.0852 20.9007 19.1228C20.9323 19.1359 20.9959 19.1646 21.0419 19.1866C21.0879 19.2087 21.1377 19.2267 21.1526 19.2267C21.1771 19.2267 21.2478 19.2547 21.535 19.3784C21.5864 19.4005 21.6423 19.4186 21.659 19.4186C21.6871 19.4186 21.7465 19.4414 21.9936 19.5475C22.0442 19.5692 22.1821 19.6214 22.3001 19.6635C22.4181 19.7056 22.5321 19.7494 22.5532 19.7607C22.5745 19.7721 22.6851 19.8145 22.7989 19.8548C22.9128 19.8953 23.094 19.9634 23.2016 20.0062C23.4841 20.1189 23.5927 20.1227 23.5927 20.0201C23.5927 19.9999 23.6186 19.9383 23.6503 19.8832C23.682 19.8282 23.7078 19.7687 23.7078 19.7512C23.7078 19.7337 23.7337 19.6743 23.7653 19.6191C23.797 19.564 23.8228 19.5023 23.8228 19.482C23.8228 19.4617 23.8383 19.4332 23.8573 19.4186C23.8763 19.404 23.8918 19.3755 23.8918 19.3552C23.8918 19.335 23.9161 19.2761 23.9455 19.2246C23.9751 19.1729 24.0069 19.1019 24.0164 19.0667C24.0258 19.0316 24.047 18.9884 24.0633 18.9708C24.0797 18.9532 24.0999 18.9038 24.1082 18.861C24.1164 18.8181 24.1382 18.7716 24.1564 18.7575C24.1748 18.7434 24.1964 18.6969 24.2045 18.6541C24.2125 18.6113 24.2376 18.5463 24.2601 18.5096C24.2827 18.4729 24.308 18.414 24.3164 18.3785C24.3248 18.3431 24.3518 18.2972 24.3764 18.2767C24.401 18.256 24.4211 18.2142 24.4212 18.1838C24.4213 18.1533 24.442 18.0997 24.4671 18.0645C24.4923 18.0293 24.5129 17.9867 24.5129 17.97C24.513 17.9531 24.5324 17.9003 24.5561 17.8526C24.6362 17.6908 24.6755 17.5698 24.6601 17.5326C24.6458 17.4983 24.3331 17.3503 24.2744 17.35C24.2601 17.3499 24.2174 17.3345 24.1795 17.3157C24.1415 17.297 24.0173 17.2486 23.9034 17.2083C23.6818 17.1297 23.63 17.1093 23.4294 17.0222C23.3585 16.9914 23.2871 16.9663 23.2706 16.9663C23.2542 16.9663 23.1879 16.9433 23.1234 16.9153C22.8444 16.7939 22.7941 16.7743 22.7623 16.7743C22.7438 16.7743 22.7083 16.7612 22.6833 16.7452C22.6583 16.7292 22.6119 16.7089 22.5803 16.7C22.4875 16.674 22.2252 16.5549 22.2068 16.5303C22.1975 16.5179 22.1897 13.4982 22.1895 9.81983C22.1893 6.14144 22.1828 3.10179 22.1748 3.06515L22.1605 2.99854H20.7622C19.5085 2.99854 19.3626 3.00206 19.3501 3.03222ZM9.95979 6.14725C9.93453 6.15229 9.85167 6.1699 9.77569 6.18645C9.69981 6.20301 9.5308 6.22185 9.4003 6.22842C9.25213 6.23584 9.13651 6.25297 9.09267 6.27391C9.05417 6.29237 8.94358 6.31292 8.84696 6.31949C8.72652 6.32777 8.65403 6.34395 8.61645 6.37097C8.58328 6.39486 8.52393 6.41047 8.46654 6.41047C8.41427 6.41047 8.33316 6.4295 8.28644 6.45272C8.23962 6.47603 8.15686 6.50163 8.10264 6.50962C8.04843 6.51771 7.97296 6.54179 7.93497 6.5633C7.89708 6.58471 7.84461 6.60231 7.81864 6.60231C7.79255 6.60241 7.75118 6.61668 7.72653 6.6341C7.70199 6.65142 7.64049 6.67635 7.58987 6.68938C7.53925 6.70233 7.48226 6.72526 7.46326 6.7403C7.44437 6.75533 7.38739 6.77969 7.33676 6.79444C7.28614 6.80919 7.23347 6.82946 7.21971 6.83945C7.20595 6.84954 7.11272 6.8975 7.01261 6.94613C6.9125 6.99466 6.80078 7.04891 6.76454 7.06651C6.63526 7.12922 6.15021 7.43079 5.96724 7.56202C5.89372 7.61483 5.80614 7.67659 5.77266 7.69934C5.73909 7.72208 5.69011 7.75805 5.66362 7.77927C5.63713 7.80049 5.60879 7.81791 5.60047 7.81791C5.51042 7.81791 4.33403 9.0179 4.33403 9.10973C4.33403 9.12619 4.31339 9.1517 4.28803 9.16635C4.26277 9.18101 4.24203 9.19918 4.24203 9.2067C4.24203 9.21431 4.20014 9.27864 4.14901 9.34963C4.09777 9.42072 4.02415 9.53453 3.98523 9.60267C3.94642 9.6708 3.90165 9.74084 3.88574 9.75845C3.86982 9.77605 3.83871 9.82649 3.81664 9.87045C3.79466 9.91442 3.76745 9.95039 3.75616 9.95039C3.74497 9.95039 3.73583 9.97313 3.73583 10.0008C3.73583 10.0286 3.71714 10.0742 3.69424 10.1022C3.67135 10.1301 3.61272 10.2489 3.56394 10.3662C3.51517 10.4835 3.46784 10.5891 3.4588 10.6008C3.44977 10.6125 3.43477 10.6461 3.42543 10.6754C3.41619 10.7047 3.39514 10.7576 3.37871 10.7928C3.32316 10.9116 3.1406 11.5459 3.05948 11.9016C2.92898 12.4741 2.92867 13.775 3.05897 14.3753C3.17027 14.8878 3.30406 15.3334 3.45285 15.6867C3.55275 15.9241 3.76355 16.3569 3.79651 16.3922C3.81376 16.4106 3.82783 16.4329 3.82783 16.4416C3.82783 16.4641 4.06111 16.8177 4.11389 16.8752C4.15773 16.923 4.25097 16.9406 4.27438 16.9055C4.28105 16.8956 4.3826 16.8516 4.50006 16.8077C4.61753 16.764 4.74475 16.7152 4.78274 16.6995C4.82073 16.6838 4.9191 16.6454 5.00134 16.6142C5.08359 16.583 5.20372 16.5343 5.2682 16.5059C5.33279 16.4776 5.39799 16.4544 5.41318 16.4544C5.42848 16.4544 5.47921 16.4361 5.52603 16.4137C5.71177 16.3246 5.86672 16.2626 5.90337 16.2626C5.92463 16.2626 5.94793 16.2536 5.95512 16.2428C5.96241 16.2319 6.00708 16.2117 6.05431 16.1978C6.10164 16.184 6.1921 16.1503 6.25535 16.123C6.49839 16.0182 6.58126 15.9854 6.602 15.9854C6.62202 15.9855 6.71802 15.9458 6.91106 15.8577C6.95542 15.8375 7.02185 15.8142 7.05881 15.8059C7.09578 15.7975 7.15153 15.7722 7.18275 15.7495C7.21396 15.7267 7.25924 15.7081 7.28358 15.7081C7.30781 15.7081 7.36593 15.6901 7.41275 15.668C7.45957 15.646 7.54438 15.6088 7.60137 15.5854C7.65835 15.562 7.76288 15.5176 7.83373 15.4868C7.90458 15.4561 7.9783 15.4309 7.9975 15.4309C8.0166 15.4309 8.0587 15.4117 8.09084 15.3882C8.12297 15.3648 8.16846 15.3455 8.19177 15.3455C8.21508 15.3454 8.27555 15.3217 8.32618 15.2928C8.3768 15.2639 8.43573 15.24 8.45719 15.2396C8.47876 15.2393 8.54498 15.2149 8.60443 15.1856C8.66399 15.1563 8.72765 15.1323 8.74582 15.1323C8.7641 15.1323 8.80538 15.1131 8.83762 15.0897C8.86976 15.0662 8.91596 15.0471 8.94019 15.0471C8.96443 15.0471 9.02264 15.0287 9.06936 15.0062C9.21907 14.9345 9.40759 14.8551 9.42843 14.8551C9.44701 14.8551 9.50123 14.8335 9.75269 14.7258C9.80331 14.7041 9.90691 14.6628 9.98279 14.6341C10.0588 14.6053 10.2451 14.5313 10.397 14.4695C10.5489 14.4078 10.7352 14.3358 10.8111 14.3097C10.8871 14.2836 11.0683 14.2141 11.2138 14.1554C11.3593 14.0966 11.582 14.0087 11.7085 13.96C11.835 13.9114 11.98 13.854 12.0306 13.8324C12.0812 13.8109 12.1486 13.7862 12.1802 13.7775C12.2118 13.7688 12.3221 13.7246 12.4252 13.6793C12.5284 13.634 12.6287 13.5969 12.6482 13.5969C12.6677 13.5969 12.6896 13.588 12.6969 13.5772C12.7041 13.5663 12.7487 13.5463 12.796 13.5327C12.8433 13.519 12.9389 13.4837 13.0085 13.4542C13.2414 13.3557 13.3184 13.3244 13.4457 13.2771C13.5153 13.2511 13.6251 13.2069 13.6896 13.1788C13.7542 13.1508 13.822 13.1278 13.8405 13.1278C13.859 13.1278 13.8942 13.1136 13.9188 13.0962C13.9433 13.0787 14.0038 13.054 14.0532 13.0411C14.1026 13.0283 14.1562 13.0055 14.1724 12.9904C14.1886 12.9754 14.2427 12.957 14.2925 12.9497C14.3423 12.9423 14.3961 12.9218 14.4119 12.9041C14.4277 12.8864 14.4534 12.8719 14.469 12.8719C14.4845 12.8719 14.5459 12.8479 14.6055 12.8186C14.6649 12.7893 14.7324 12.7653 14.7554 12.7653C14.7783 12.7653 14.8217 12.7473 14.8519 12.7254C14.8821 12.7035 14.943 12.6782 14.9873 12.6694C15.0316 12.6604 15.0926 12.6352 15.1228 12.6132C15.1529 12.5913 15.1964 12.5733 15.2193 12.5733C15.2422 12.5733 15.3097 12.5494 15.3692 12.52C15.4287 12.4907 15.4923 12.4668 15.5106 12.4668C15.5289 12.4668 15.5701 12.4475 15.6023 12.4241C15.6344 12.4006 15.6839 12.3814 15.7122 12.3814C15.7403 12.3814 15.7898 12.3623 15.8219 12.3388C15.8542 12.3153 15.9007 12.2961 15.9255 12.2961C15.9503 12.2961 15.9955 12.2779 16.0261 12.2555C16.0568 12.2332 16.1233 12.2046 16.1738 12.192C16.2244 12.1794 16.2861 12.1548 16.3111 12.1373C16.336 12.1199 16.3833 12.1052 16.4161 12.1049C16.4489 12.1045 16.4939 12.0855 16.5162 12.0628C16.5385 12.04 16.5893 12.0149 16.6291 12.0071C16.6689 11.9993 16.7338 11.9749 16.7732 11.9526C16.8127 11.9304 16.8593 11.912 16.8768 11.9116C16.8943 11.9113 16.9603 11.8873 17.0237 11.8585C17.0869 11.8296 17.1555 11.8059 17.1761 11.8059C17.1967 11.8058 17.2265 11.7913 17.2423 11.7737C17.258 11.7561 17.2835 11.7417 17.2992 11.7417C17.3147 11.7417 17.3761 11.7177 17.4356 11.6883C17.4951 11.659 17.5619 11.635 17.5841 11.635C17.6712 11.635 17.8464 11.5088 17.8297 11.4582C17.8211 11.4323 17.7995 11.3535 17.7817 11.2832C17.7252 11.0589 17.5575 10.6042 17.5146 10.5592C17.504 10.5481 17.4954 10.5215 17.4954 10.5003C17.4954 10.479 17.486 10.4449 17.4745 10.4246C17.3546 10.2106 17.2192 9.94906 17.2192 9.93155C17.2192 9.91956 17.1933 9.87426 17.1617 9.83106C17.13 9.78785 17.1042 9.73466 17.1042 9.71287C17.1042 9.69107 17.0947 9.67318 17.0831 9.67318C17.0716 9.67318 17.0245 9.61076 16.9784 9.53453C16.8752 9.36343 16.676 9.08299 16.6505 9.0729C16.6402 9.06881 16.5973 9.01542 16.5555 8.95424C16.5136 8.89314 16.4413 8.80635 16.3948 8.76144C16.3483 8.71652 16.269 8.6323 16.2184 8.57435C16.0403 8.37051 15.6477 8.02279 15.239 7.70704C15.115 7.61122 14.7348 7.34876 14.72 7.34876C14.7141 7.34876 14.6813 7.33097 14.647 7.30927C14.4587 7.18984 14.2555 7.07136 14.205 7.05148C14.1734 7.03901 14.0819 6.99523 14.0017 6.95422C13.9215 6.91321 13.8426 6.87961 13.8263 6.87961C13.8098 6.87961 13.7841 6.86572 13.7689 6.84878C13.7536 6.83175 13.7031 6.80653 13.6567 6.79273C13.6102 6.77893 13.5567 6.75514 13.5377 6.74001C13.5187 6.72478 13.4721 6.70566 13.4342 6.69747C13.3962 6.68929 13.3436 6.67016 13.3171 6.65494C13.2906 6.63971 13.2233 6.61592 13.1675 6.60222C13.1117 6.58842 13.0505 6.56482 13.0315 6.54969C13.0125 6.53465 12.9479 6.51581 12.888 6.50782C12.828 6.49982 12.7643 6.47965 12.7463 6.46299C12.7283 6.44625 12.6532 6.42645 12.5792 6.41884C12.5053 6.41123 12.4086 6.38782 12.3643 6.36679C12.32 6.34566 12.2125 6.32311 12.1253 6.31664C12.0381 6.31026 11.9428 6.29037 11.9135 6.27258C11.8774 6.25069 11.7722 6.23594 11.5888 6.22699C11.4395 6.21976 11.2403 6.19569 11.1462 6.17351C10.9841 6.13535 10.1177 6.11623 9.95979 6.14725ZM32.2212 6.14801C32.1896 6.15296 32.1171 6.16999 32.0601 6.18598C32.0032 6.20197 31.8472 6.21948 31.7133 6.225C31.5491 6.23166 31.4459 6.2465 31.3958 6.27048C31.3535 6.29075 31.238 6.31159 31.1276 6.31882C30.98 6.32844 30.9245 6.3409 30.8951 6.37097C30.8699 6.39686 30.8249 6.41047 30.7646 6.41047C30.6604 6.41047 30.4265 6.51 30.4265 6.55445C30.4265 6.57005 30.4463 6.61887 30.4706 6.66293C30.4949 6.70699 30.5223 6.78093 30.5315 6.82727C30.5409 6.87371 30.5617 6.93081 30.5779 6.95431C30.594 6.97772 30.6147 7.0353 30.6239 7.08221C30.6331 7.12913 30.6591 7.20107 30.6817 7.24218C30.7042 7.28319 30.73 7.35514 30.7392 7.40205C30.7482 7.44897 30.7684 7.50654 30.784 7.53004C30.7996 7.55345 30.8196 7.60998 30.8282 7.65556C30.8368 7.70114 30.8639 7.77299 30.8884 7.81515C30.9127 7.8574 30.9327 7.91497 30.9327 7.94305C30.9327 7.97112 30.9521 8.02403 30.9759 8.06067C30.9997 8.09721 31.0264 8.16439 31.0351 8.20997C31.0438 8.25556 31.071 8.3274 31.0954 8.36966C31.1198 8.41181 31.1398 8.47062 31.1398 8.50031C31.1398 8.53 31.1591 8.58767 31.1827 8.62859C31.2063 8.66942 31.2329 8.73651 31.2418 8.77752C31.2505 8.81863 31.2725 8.88096 31.2904 8.91617C31.3084 8.95138 31.3341 9.02094 31.3474 9.07081L31.3717 9.1615L31.5376 9.14827C31.6289 9.14104 31.7294 9.11991 31.761 9.10145C31.7975 9.08013 31.907 9.06196 32.0601 9.05159C32.193 9.04264 32.3432 9.02094 32.3938 9.00334C32.5251 8.95766 33.0558 8.95747 33.2006 9.00305C33.2593 9.02151 33.4072 9.04426 33.5292 9.05358C33.6575 9.06329 33.7805 9.08518 33.8203 9.10516C33.8583 9.12419 33.9287 9.1399 33.9767 9.1399C34.0255 9.13999 34.1117 9.16359 34.1721 9.19338C34.2316 9.22269 34.3061 9.24676 34.3378 9.24686C34.3696 9.24686 34.4267 9.26608 34.4646 9.2893C34.5025 9.31261 34.5549 9.33174 34.581 9.33184C34.607 9.33193 34.6633 9.35601 34.7062 9.38532C34.7491 9.41463 34.7981 9.43861 34.8152 9.43861C34.8322 9.43861 34.8741 9.45583 34.9084 9.47677C35.0143 9.54157 35.0603 9.56632 35.1324 9.59724C35.1706 9.61361 35.2214 9.64701 35.2452 9.67137C35.269 9.69583 35.3007 9.71581 35.3153 9.71581C35.3982 9.71581 36.2315 10.4266 36.3529 10.6007C36.3773 10.6358 36.4474 10.7261 36.5084 10.8012C36.6403 10.9635 36.9807 11.5932 37.0478 11.799C37.0739 11.8789 37.1194 12.0163 37.149 12.1042L37.2027 12.2642L37.3063 12.262C37.3632 12.2607 37.4512 12.2444 37.5018 12.2255C37.5524 12.2068 37.6508 12.1906 37.7204 12.1897C37.795 12.1888 37.8848 12.1712 37.939 12.1468C37.9978 12.1206 38.0812 12.1054 38.17 12.1049C38.2625 12.1045 38.3392 12.0899 38.3997 12.0613C38.4581 12.0337 38.5606 12.0135 38.6865 12.0046C38.803 11.9965 38.9051 11.9772 38.9385 11.9572C38.9704 11.9379 39.0743 11.9174 39.1801 11.9093C39.2821 11.9015 39.3966 11.8808 39.4346 11.8634C39.4726 11.846 39.5761 11.8257 39.6647 11.8182C39.8466 11.8029 40.1833 11.7132 40.1818 11.6804C40.1799 11.6436 40.0655 11.2397 40.0116 11.0806C39.978 10.9809 39.936 10.8561 39.9182 10.8034C39.9004 10.7506 39.8402 10.6067 39.7843 10.4835C39.7285 10.3603 39.6654 10.2212 39.6444 10.1743C39.6233 10.1274 39.5959 10.0746 39.5836 10.0571C39.5712 10.0395 39.5512 10.0043 39.5393 9.97884C39.5196 9.93678 39.3613 9.67661 39.216 9.44765C39.1456 9.3366 38.9882 9.11963 38.9465 9.07604C38.9132 9.0414 38.8177 8.92616 38.7443 8.83214C38.564 8.60138 38.0239 8.07504 37.791 7.90327C37.7354 7.86216 37.6527 7.79926 37.6073 7.76338C37.5619 7.7275 37.4628 7.6548 37.3868 7.60189C37.3109 7.54908 37.2086 7.47761 37.1597 7.44326C37.0542 7.36922 36.9747 7.3204 36.8806 7.27178C36.8426 7.25227 36.8063 7.22933 36.8001 7.22086C36.7937 7.21239 36.7575 7.18927 36.7195 7.16938C36.6816 7.14959 36.5987 7.10619 36.5355 7.07298C36.3444 6.97259 35.9125 6.77303 35.8866 6.77303C35.8732 6.77303 35.8504 6.75971 35.8358 6.74344C35.8212 6.72707 35.763 6.70299 35.7064 6.68977C35.6499 6.67654 35.6036 6.65789 35.6036 6.64818C35.6036 6.63847 35.5474 6.61887 35.4788 6.60469C35.4102 6.59042 35.3423 6.56577 35.3281 6.54978C35.3138 6.53389 35.2515 6.51438 35.1895 6.50648C35.1275 6.49859 35.0539 6.47375 35.026 6.45129C34.9907 6.42284 34.9406 6.41047 34.8607 6.41047C34.7896 6.41047 34.719 6.39533 34.6744 6.37059C34.6309 6.34633 34.5379 6.32587 34.4375 6.31863C34.3468 6.31197 34.2419 6.29199 34.2047 6.2741C34.1633 6.2543 34.039 6.23632 33.8866 6.22814C33.7489 6.22062 33.5631 6.19626 33.4737 6.17389C33.3191 6.13526 32.4231 6.1167 32.2212 6.14801ZM27.6272 8.04887C27.4722 8.16249 26.9758 8.65295 26.8464 8.82015C26.7874 8.89647 26.7196 8.97803 26.6958 9.00144C26.6719 9.02494 26.6144 9.09688 26.5679 9.1614C26.5214 9.22592 26.4698 9.29139 26.4532 9.30681C26.4365 9.32232 26.4229 9.3463 26.4228 9.3602C26.4228 9.37399 26.3816 9.43556 26.3313 9.49713C26.281 9.55861 26.2334 9.63226 26.2257 9.66081C26.218 9.68936 26.1919 9.72923 26.1677 9.7496C26.1436 9.76987 26.1238 9.79965 26.1238 9.81593C26.1238 9.8321 26.0761 9.93383 26.0179 10.0418C25.9597 10.1498 25.8914 10.2815 25.866 10.3343C25.8408 10.387 25.8103 10.4475 25.7983 10.4687C25.7794 10.5022 25.6108 10.9679 25.5149 11.2512C25.497 11.304 25.4754 11.3904 25.4669 11.4431C25.4583 11.4959 25.4361 11.5727 25.4176 11.6137C25.3991 11.6548 25.3752 11.77 25.3647 11.8696C25.3541 11.9693 25.3267 12.0989 25.3038 12.1575C25.2332 12.3377 25.2406 13.9479 25.313 14.1722C25.3413 14.26 25.3645 14.3761 25.3645 14.4301C25.3645 14.4843 25.3852 14.5843 25.4105 14.6525C25.4358 14.7207 25.4566 14.7988 25.4566 14.826C25.4566 14.904 25.705 15.639 25.7378 15.6577C25.7475 15.6633 25.7557 15.695 25.7557 15.728C25.7557 15.7612 25.7712 15.8001 25.7902 15.8147C25.8092 15.8293 25.8247 15.8498 25.8247 15.8602C25.8247 15.9002 26.1297 16.4863 26.2284 16.6357C26.2593 16.6826 26.3214 16.7786 26.3664 16.849C26.4114 16.9194 26.4943 17.0345 26.5508 17.1048C26.6073 17.1753 26.671 17.2568 26.6925 17.2861C26.714 17.3154 26.7527 17.3646 26.7785 17.3954C26.8044 17.4262 26.8463 17.4784 26.8716 17.5113C26.9979 17.6755 27.5764 18.2314 27.6938 18.3014L27.7799 18.3525L27.8434 18.2902C27.8783 18.2559 27.9398 18.1911 27.98 18.1462C28.0689 18.0467 28.2415 17.8622 28.4681 17.6244C28.5616 17.5263 28.6644 17.4173 28.6967 17.382C28.7289 17.3469 28.8958 17.1735 29.0674 16.9968C29.7219 16.3232 29.7674 16.2733 29.7553 16.2433C29.7512 16.2331 29.6561 16.1357 29.5441 16.0271C29.3119 15.8022 29.0584 15.4943 28.9123 15.2602C28.7849 15.0561 28.6088 14.723 28.6088 14.6862C28.6088 14.6706 28.5841 14.6039 28.5542 14.5379C28.478 14.3707 28.4301 14.2099 28.4022 14.027C28.3891 13.9411 28.3654 13.8499 28.3497 13.8244C28.3013 13.746 28.31 12.5691 28.3599 12.4454C28.3811 12.3926 28.4048 12.2967 28.4124 12.2322C28.4254 12.1208 28.4529 12.0231 28.5327 11.8057C28.755 11.1996 29.1584 10.603 29.6096 10.2132L29.7846 10.062L29.6519 9.91556C29.5789 9.83505 29.5133 9.76435 29.5061 9.75845C29.499 9.75264 29.4324 9.68061 29.3582 9.59858C29.284 9.51645 29.1015 9.32936 28.9527 9.18272C28.8037 9.03607 28.6581 8.88734 28.6289 8.85222C28.5997 8.81701 28.5702 8.78342 28.5632 8.77752C28.5562 8.77171 28.521 8.73327 28.4849 8.69225C28.4487 8.65114 28.3387 8.536 28.2405 8.43636C28.1421 8.33664 28.023 8.21188 27.9757 8.15916C27.7804 7.94133 27.7758 7.93991 27.6272 8.04887ZM10.9665 9.00762C10.9852 9.02209 11.1081 9.04188 11.2396 9.05149C11.3837 9.06205 11.5076 9.08308 11.552 9.1045C11.5926 9.1241 11.6651 9.14009 11.7131 9.14018C11.7656 9.14028 11.8373 9.16131 11.8926 9.19281C11.9432 9.22173 12.0141 9.24562 12.05 9.246C12.086 9.24638 12.1417 9.26589 12.174 9.2893C12.2061 9.31281 12.2549 9.33203 12.2824 9.33203C12.3098 9.33203 12.3674 9.35601 12.4103 9.38532C12.4531 9.41463 12.5056 9.43861 12.5267 9.43861C12.5478 9.43861 12.5898 9.45574 12.62 9.47677C12.6502 9.4978 12.7008 9.52692 12.7324 9.54157C12.8392 9.59106 12.895 9.62436 12.9476 9.67023C12.9764 9.69526 13.0079 9.71581 13.0175 9.71581C13.0388 9.71581 13.3704 9.94554 13.3807 9.96752C13.3848 9.97618 13.4442 10.0262 13.5128 10.0788C13.8869 10.3659 13.973 10.538 13.7634 10.5802C13.7215 10.5886 13.6511 10.6131 13.6067 10.6347C13.4878 10.6926 13.26 10.782 13.2301 10.7826C13.2158 10.7828 13.1783 10.8018 13.1466 10.8247C13.1149 10.8477 13.0722 10.8666 13.0515 10.8669C13.0096 10.8675 12.7564 10.966 12.4563 11.0989C12.3993 11.1241 12.3369 11.1447 12.3176 11.1447C12.2983 11.1446 12.2598 11.1593 12.2322 11.1772C12.2044 11.1952 12.1399 11.2237 12.0885 11.2404C12.0372 11.2572 11.9566 11.2866 11.9093 11.3055C11.8621 11.3245 11.7874 11.3547 11.743 11.3726C11.3542 11.5296 11.0253 11.6564 11.0069 11.6564C10.9947 11.6564 10.925 11.682 10.852 11.7133C10.6984 11.7789 10.5941 11.8212 10.3855 11.9023C10.3033 11.9341 10.21 11.9723 10.1784 11.9869C10.1468 12.0015 10.0797 12.0257 10.0294 12.0407C9.9791 12.0557 9.9066 12.0857 9.86831 12.1073C9.83001 12.129 9.78144 12.1467 9.76039 12.1468C9.73924 12.1468 9.69262 12.1606 9.65679 12.1775C9.62095 12.1943 9.52957 12.2336 9.45359 12.2649C9.37771 12.2962 9.26271 12.3448 9.19822 12.373C9.13364 12.4011 9.05858 12.4241 9.03137 12.4241C9.00416 12.4241 8.96124 12.4432 8.93588 12.4668C8.91062 12.4902 8.86555 12.5094 8.83587 12.5094C8.8062 12.5094 8.75927 12.5276 8.73165 12.5497C8.70393 12.572 8.64335 12.5967 8.59704 12.6048C8.55063 12.6129 8.48748 12.6379 8.45658 12.6604C8.42577 12.6829 8.37238 12.7013 8.33809 12.7013C8.30379 12.7013 8.25707 12.7205 8.23407 12.744C8.21118 12.7674 8.16959 12.7866 8.14166 12.7866C8.11363 12.7866 8.06547 12.805 8.03467 12.8275C8.00376 12.85 7.94021 12.8751 7.89328 12.8832C7.84646 12.8914 7.78321 12.9161 7.75282 12.9383C7.72253 12.9604 7.68474 12.9785 7.66903 12.9785C7.64213 12.9785 7.48647 13.0427 7.29908 13.131C7.25308 13.1527 7.20328 13.1705 7.18839 13.1705C7.17351 13.1705 7.10245 13.1949 7.03047 13.2249C6.9585 13.2548 6.86855 13.2922 6.83056 13.3078C6.79257 13.3235 6.70457 13.3604 6.63496 13.3898C6.56534 13.4193 6.48258 13.4502 6.45096 13.4587C6.41923 13.4671 6.37785 13.4862 6.35885 13.5012C6.28677 13.5577 6.10575 13.5756 6.05749 13.5309C5.95759 13.4383 6.02197 12.4492 6.15165 12.0829C6.16202 12.0536 6.19898 11.9432 6.23369 11.8376C6.3298 11.5457 6.52109 11.1831 6.77306 10.8149C6.94361 10.5659 7.4686 10.0416 7.6792 9.91023C7.72838 9.87949 7.79502 9.83819 7.82716 9.8183C7.8594 9.79841 7.89472 9.7672 7.90571 9.74903C7.9168 9.73075 7.93631 9.71581 7.94914 9.71581C7.96208 9.71581 8.00551 9.69421 8.04586 9.66776C8.15902 9.59363 8.20347 9.56927 8.30636 9.5254C8.35872 9.50303 8.40801 9.47515 8.41592 9.46335C8.42382 9.45155 8.46376 9.43528 8.50473 9.42709C8.5457 9.41901 8.59776 9.39426 8.62045 9.37219C8.64304 9.35001 8.69068 9.33203 8.72611 9.33203C8.76164 9.33203 8.80825 9.31404 8.82961 9.29215C8.85107 9.27017 8.91545 9.24629 8.97315 9.23896C9.03065 9.23163 9.10417 9.20641 9.13651 9.18291C9.17512 9.15474 9.22995 9.14009 9.29649 9.14009C9.35235 9.14009 9.42401 9.1241 9.45646 9.1044C9.49651 9.08004 9.596 9.06329 9.76881 9.05168C9.90835 9.04235 10.0342 9.0258 10.0486 9.01476C10.1151 8.96423 10.902 8.95814 10.9665 9.00762ZM37.1475 14.1994C37.0245 14.5836 37.0094 14.6209 36.8481 14.9404C36.6135 15.4047 36.146 15.9805 35.7744 16.2626C35.7512 16.2802 35.6668 16.3445 35.5867 16.4055C35.3199 16.6091 34.8291 16.8844 34.5681 16.9769C34.5239 16.9926 34.4152 17.0313 34.3265 17.0628C34.2379 17.0943 34.0864 17.137 33.9897 17.1578C33.893 17.1785 33.8043 17.2009 33.7927 17.2075C33.7449 17.2349 32.9576 17.3288 32.7757 17.3288C32.5515 17.3288 32.0711 17.2658 31.7107 17.1892C31.3714 17.117 31.3783 17.1159 31.3366 17.2463C31.3173 17.3064 31.2924 17.3663 31.2812 17.3795C31.27 17.3926 31.2534 17.4418 31.2442 17.4887C31.2351 17.5356 31.2079 17.6142 31.1838 17.6634C31.1595 17.7126 31.1398 17.7706 31.1398 17.7922C31.1398 17.8139 31.1202 17.8671 31.0964 17.9105C31.0725 17.9539 31.0459 18.0244 31.0372 18.0671C31.0286 18.1099 31.0015 18.1794 30.9771 18.2217C30.9526 18.2639 30.9327 18.3225 30.9326 18.352C30.9326 18.3815 30.9131 18.4353 30.8893 18.4715C30.8655 18.5076 30.8387 18.5796 30.8296 18.6313C30.8206 18.6832 30.8003 18.7448 30.7844 18.7682C30.7685 18.7917 30.7481 18.8493 30.7389 18.8962C30.7297 18.9431 30.7039 19.0106 30.6817 19.046C30.6594 19.0816 30.6338 19.1527 30.625 19.2041C30.6162 19.2554 30.5952 19.3223 30.5785 19.3527C30.5279 19.4443 30.4442 19.7079 30.4529 19.7479C30.4612 19.7863 30.6958 19.8878 30.7763 19.8878C30.7998 19.8878 30.8571 19.9024 30.9035 19.9204C31.1289 20.0077 32.2708 20.1436 32.7788 20.1436C33.3185 20.1436 34.2809 20.0307 34.7028 19.9177C35.1142 19.8076 35.2431 19.7698 35.4195 19.7069C35.5271 19.6684 35.6409 19.63 35.6726 19.6212C35.7337 19.6044 36.1895 19.4096 36.2479 19.3755C36.2668 19.3644 36.3147 19.3417 36.3543 19.3252C36.3939 19.3086 36.4328 19.2852 36.4409 19.2731C36.4489 19.2611 36.4853 19.2452 36.5218 19.2378C36.5584 19.2304 36.6064 19.2056 36.6287 19.1828C36.6509 19.1601 36.6783 19.1414 36.6895 19.1414C36.7007 19.1414 36.7379 19.1235 36.7722 19.1016C36.8065 19.0797 36.8915 19.0271 36.9611 18.9846C37.1423 18.874 37.2946 18.7749 37.3764 18.7142C37.5092 18.6158 37.7088 18.4599 37.7573 18.4167C37.784 18.393 37.8123 18.3737 37.8201 18.3737C37.8393 18.3737 38.4788 17.7735 38.5373 17.7007C38.5625 17.6692 38.6148 17.6085 38.6534 17.5661C38.759 17.4496 38.8921 17.2855 39.0204 17.1135C39.0837 17.0287 39.1459 16.9489 39.1585 16.9361C39.1711 16.9234 39.1998 16.8793 39.2221 16.8383C39.2443 16.7973 39.2832 16.7349 39.3085 16.6997C39.3337 16.6645 39.3759 16.5973 39.4023 16.5504C39.4285 16.5035 39.4811 16.4123 39.5191 16.3478C39.5786 16.2468 39.6488 16.105 39.7774 15.8266C39.8649 15.6371 39.9074 15.5322 39.9594 15.3776C40.246 14.5241 40.262 14.581 39.7107 14.4911C39.5548 14.4657 39.2284 14.4019 38.9448 14.3413C38.84 14.319 38.7179 14.3006 38.6737 14.3006C38.6295 14.3006 38.5341 14.2822 38.4617 14.2597C38.3893 14.2372 38.2525 14.2086 38.1576 14.196C38.0627 14.1835 37.9342 14.1587 37.872 14.141C37.8099 14.1232 37.721 14.1088 37.6744 14.1088C37.6278 14.1088 37.5388 14.0944 37.4767 14.077C37.4146 14.0595 37.3262 14.0451 37.2804 14.045L37.1969 14.0447L37.1475 14.1994ZM13.5621 16.2063C13.5312 16.2194 13.4842 16.2494 13.4579 16.2729C13.3399 16.3788 13.1942 16.4878 13.0778 16.5574C13.0084 16.5989 12.9411 16.6408 12.9282 16.6505C12.7919 16.7544 12.0907 17.0729 11.9985 17.0729C11.9775 17.0729 11.9399 17.0861 11.915 17.1023C11.89 17.1184 11.8075 17.143 11.7315 17.1569C11.6556 17.1708 11.5573 17.1947 11.5129 17.2101C11.4687 17.2255 11.3599 17.245 11.2713 17.2536C11.1828 17.2621 11.0343 17.2825 10.9414 17.299C10.7506 17.3327 10.2605 17.3379 10.1198 17.3078C10.0684 17.2968 9.91318 17.273 9.77456 17.255C9.50585 17.2199 9.22369 17.1565 9.10499 17.1047C9.06515 17.0871 9.0172 17.0729 8.99851 17.0729C8.94605 17.0729 8.4729 16.8759 8.40668 16.8264C8.38768 16.8123 8.3463 16.7937 8.31468 16.785C8.28305 16.7763 8.2389 16.7545 8.21662 16.7363C8.14834 16.6808 8.05623 16.7521 7.93333 16.9556C7.91916 16.979 7.8749 17.0462 7.83506 17.1048C7.79512 17.1635 7.74707 17.2421 7.72828 17.2794C7.70949 17.3167 7.683 17.3536 7.66934 17.3614C7.65568 17.3692 7.63464 17.3962 7.62252 17.4214C7.6104 17.4468 7.56995 17.5106 7.53268 17.5633C7.47292 17.6478 7.44252 17.6943 7.33471 17.8646C7.32095 17.8864 7.29405 17.9211 7.27505 17.9417C7.25596 17.9623 7.20739 18.032 7.16704 18.0964C7.12668 18.1609 7.05101 18.2761 6.99885 18.3523C6.54214 19.02 6.51349 19.0823 6.62921 19.1547C6.76916 19.2423 7.56379 19.6105 7.61266 19.6105C7.62262 19.6105 7.67335 19.6289 7.7254 19.6513C7.89339 19.7238 8.04381 19.7699 8.60228 19.9204C9.20603 20.0831 10.6363 20.1973 11.1306 20.1223C11.2081 20.1105 11.4163 20.0816 11.5935 20.0581C12.0559 19.9965 12.1705 19.9773 12.3643 19.9288C12.6132 19.8665 12.9102 19.7826 13.043 19.7371C13.3806 19.6215 13.4968 19.5778 13.6643 19.5032C13.7656 19.4582 13.8742 19.4109 13.9059 19.3982C13.9561 19.3781 14.0435 19.3342 14.3916 19.1544C14.4584 19.1199 14.5749 19.0475 14.9758 18.7911C15.095 18.715 15.5672 18.3479 15.6472 18.2693C15.7294 18.1885 15.7401 18.1522 15.6949 18.1079C15.679 18.0925 15.3071 17.7405 14.8682 17.3258C14.4294 16.9111 13.9894 16.4938 13.8903 16.3985C13.6799 16.1961 13.6406 16.1731 13.5621 16.2063Z" fill="url(#paint0_linear_614_925)"/>
<defs>
<linearGradient id="paint0_linear_614_925" x1="21.5716" y1="2.99854" x2="21.5716" y2="20.1459" gradientUnits="userSpaceOnUse">
<stop stop-color="white"/>
<stop offset="1" stop-color="white" stop-opacity="0.75"/>
</linearGradient>
</defs>
</svg>
