<svg width="20" height="24" viewBox="0 0 20 24" fill="none" xmlns="http://www.w3.org/2000/svg">
<path fill-rule="evenodd" clip-rule="evenodd" d="M2.30884 16.5249L2.30505 16.53L2.30137 16.5352C2.09648 16.8253 1.6375 16.9105 1.27856 16.657C0.991233 16.4541 0.904859 16.0019 1.14953 15.6445C1.51459 15.1792 1.77971 14.6352 1.95385 14.1033C2.13514 13.5497 2.21945 12.9205 2.21616 12.3035C2.21288 11.6864 2.12187 11.0582 1.9347 10.5065C1.75491 9.97653 1.484 9.43535 1.11401 8.97392C0.865546 8.61918 0.9471 8.1661 1.23225 7.96012C1.58847 7.70281 2.04833 7.78316 2.2563 8.07107L2.26003 8.07623L2.26388 8.08131C2.7244 8.68857 3.10211 9.36326 3.32783 10.0252C3.56543 10.8039 3.71677 11.5571 3.72071 12.2954C3.72484 13.0724 3.6506 13.8078 3.36549 14.5317C3.05499 15.3201 2.75431 15.9243 2.30884 16.5249ZM5.6385 17.9669L5.6475 17.9542L5.65576 17.9409C6.67644 16.3056 7.26516 14.3323 7.25421 12.2766C7.24327 10.2214 6.63387 8.25498 5.5963 6.63087C5.37146 6.27431 5.47246 5.85272 5.85145 5.57895C6.10599 5.39508 6.58384 5.46018 6.86736 5.84015C8.0388 7.69875 8.74638 9.9455 8.75875 12.2686C8.77154 14.671 8.08846 16.8449 6.93582 18.717C6.66918 19.084 6.26097 19.1869 5.90897 18.9789C5.52735 18.6993 5.45759 18.2231 5.6385 17.9669ZM11.6135 3.39719L11.6235 3.41705L11.6352 3.43602C13.2225 6.02393 14.1046 9.00901 14.1218 12.2401C14.139 15.4696 13.2895 18.4626 11.7312 21.0665C11.4923 21.4506 11.089 21.5589 10.6801 21.3686C10.3079 21.1261 10.2079 20.7241 10.4023 20.3182C11.7276 17.9646 12.5517 15.1911 12.536 12.2485C12.5204 9.31904 11.7544 6.54998 10.3137 4.19619C10.1188 3.79429 10.2153 3.39402 10.583 3.14871C11.0267 2.93676 11.4589 3.09211 11.6135 3.39719ZM16.3135 0.934329L16.3204 0.947894L16.328 0.961057C18.2515 4.28604 19.3817 8.08746 19.4036 12.2119C19.4256 16.3322 18.3382 20.1418 16.4538 23.4846C16.2145 23.8643 15.813 23.9707 15.406 23.7813C15.0351 23.5395 14.9345 23.1393 15.1265 22.7347C16.9419 19.6363 17.9195 16.0467 17.8991 12.2199C17.8786 8.38331 16.7768 4.80759 15.0168 1.7398C14.7963 1.29197 14.9517 0.853359 15.2595 0.697397C15.7114 0.468472 16.1562 0.62387 16.3135 0.934329Z" fill="white"/>
</svg>
