<svg width="33" height="21" viewBox="0 0 33 21" fill="none" xmlns="http://www.w3.org/2000/svg">
<path d="M21.1214 18.5682H12.3721V2.84435H21.1216L21.1214 18.5682Z" fill="#EEEEEE"/>
<path d="M32.9244 10.7064C32.9244 16.2293 28.448 20.7064 22.9257 20.7064C20.6836 20.7097 18.5061 19.9563 16.7454 18.5683C19.0716 16.7372 20.565 13.8961 20.565 10.7064C20.565 7.51664 19.0716 4.67552 16.7454 2.84447C18.506 1.45646 20.6835 0.703132 22.9255 0.706386C28.4478 0.706386 32.9242 5.18347 32.9242 10.7064" fill="white"/>
<path d="M12.9266 10.7064C12.9266 7.5168 14.42 4.67552 16.7456 2.84447C14.9852 1.45642 12.808 0.703074 10.5662 0.706386C5.04394 0.706386 0.567505 5.18347 0.567505 10.7064C0.567505 16.2293 5.04394 20.7064 10.5662 20.7064C12.808 20.7097 14.9853 19.9564 16.7457 18.5683C14.4203 16.7376 12.9266 13.8961 12.9266 10.7064Z" fill="#9E9E9E"/>
</svg>
