<svg width="23" height="24" viewBox="0 0 23 24" fill="none" xmlns="http://www.w3.org/2000/svg">
<g clip-path="url(#clip0_611_597)">
<path d="M18.5589 0.638933L15.5214 0.196118C15.4315 0.178405 15.3417 0.213828 15.3057 0.249253L14.0116 1.91424C13.9217 2.02051 13.9038 2.16222 13.9397 2.28621C13.9757 2.4102 13.8678 2.51647 13.742 2.49876L12.6816 2.26849C12.5198 2.23307 12.34 2.28621 12.2322 2.42791L8.02637 7.7417C7.95453 7.84797 7.81071 7.88342 7.68489 7.83025L6.08525 7.12178C5.94146 7.05089 5.7797 7.06861 5.65389 7.15716L4.84508 7.70625C4.71926 7.7948 4.53952 7.81252 4.39573 7.7417L4.00031 7.54687C3.74869 7.42288 3.44314 7.5646 3.37125 7.83025L3.08367 9.08787C3.01177 9.38897 3.13759 9.69007 3.40719 9.84951L4.01829 10.2214L5.97741 11.4082L6.93001 11.9927C7.19959 12.1522 7.54114 12.1167 7.77479 11.9219L9.37444 10.5403C9.5002 10.434 9.69793 10.3986 9.84175 10.4872L10.327 10.7351C10.4888 10.8237 10.6865 10.7883 10.8123 10.6643L11.6211 9.92034C11.7469 9.79634 11.9446 9.77862 12.0884 9.84951L13.2926 10.3986C13.4724 10.4872 13.6881 10.434 13.8139 10.2746L14.3711 9.56607L18.5949 4.2346C18.7925 3.98662 18.6667 3.61465 18.3432 3.5438L17.4086 3.33125C17.2109 3.29582 17.1211 3.04785 17.2648 2.90615L18.7207 1.11717C18.8644 0.904623 18.7746 0.674359 18.5589 0.638933Z" fill="black" fill-opacity="0.8"/>
<path d="M18.5589 0.638933L15.5214 0.196118C15.4315 0.178405 15.3417 0.213828 15.3057 0.249253L14.0116 1.91424C13.9217 2.02051 13.9038 2.16222 13.9397 2.28621C13.9757 2.4102 13.8678 2.51647 13.742 2.49876L12.6816 2.26849C12.5198 2.23307 12.34 2.28621 12.2322 2.42791L8.02637 7.7417C7.95453 7.84797 7.81071 7.88342 7.68489 7.83025L6.08525 7.12178C5.94146 7.05089 5.7797 7.06861 5.65389 7.15716L4.84508 7.70625C4.71926 7.7948 4.53952 7.81252 4.39573 7.7417L4.00031 7.54687C3.74869 7.42288 3.44314 7.5646 3.37125 7.83025L3.08367 9.08787C3.01177 9.38897 3.13759 9.69007 3.40719 9.84951L4.01829 10.2214L5.97741 11.4082L6.93001 11.9927C7.19959 12.1522 7.54114 12.1167 7.77479 11.9219L9.37444 10.5403C9.5002 10.434 9.69793 10.3986 9.84175 10.4872L10.327 10.7351C10.4888 10.8237 10.6865 10.7883 10.8123 10.6643L11.6211 9.92034C11.7469 9.79634 11.9446 9.77862 12.0884 9.84951L13.2926 10.3986C13.4724 10.4872 13.6881 10.434 13.8139 10.2746L14.3711 9.56607L18.5949 4.2346C18.7925 3.98662 18.6667 3.61465 18.3432 3.5438L17.4086 3.33125C17.2109 3.29582 17.1211 3.04785 17.2648 2.90615L18.7207 1.11717C18.8644 0.904623 18.7746 0.674359 18.5589 0.638933Z" fill="url(#paint0_linear_611_597)"/>
<path d="M4.62896 11.3728C4.53909 11.3197 4.44922 11.4083 4.48517 11.4968L4.93451 12.6658C4.97045 12.7544 4.97045 12.843 4.95248 12.9316L4.55706 14.4548C4.53909 14.5611 4.57504 14.6674 4.64693 14.7206L5.77926 15.5885C5.88711 15.6593 6.0309 15.6593 6.12076 15.5707L7.30703 14.5434C7.37893 14.4903 7.46877 14.4548 7.54068 14.4371L8.88868 14.2954C8.97858 14.2777 9.0145 14.1537 8.92467 14.1006L4.62896 11.3728Z" fill="black" fill-opacity="0.8"/>
<path d="M4.62896 11.3728C4.53909 11.3197 4.44922 11.4083 4.48517 11.4968L4.93451 12.6658C4.97045 12.7544 4.97045 12.843 4.95248 12.9316L4.55706 14.4548C4.53909 14.5611 4.57504 14.6674 4.64693 14.7206L5.77926 15.5885C5.88711 15.6593 6.0309 15.6593 6.12076 15.5707L7.30703 14.5434C7.37893 14.4903 7.46877 14.4548 7.54068 14.4371L8.88868 14.2954C8.97858 14.2777 9.0145 14.1537 8.92467 14.1006L4.62896 11.3728Z" fill="url(#paint1_linear_611_597)"/>
<path d="M4.23358 15.3049C4.16169 15.2518 4.05385 15.2341 3.96398 15.2695L3.01138 15.73C2.95746 15.7477 2.92151 15.8009 2.88557 15.854L0.854558 20.7958C0.854558 20.8136 0.854558 20.8136 0.854558 20.8313C0.872532 20.849 0.890506 20.8667 0.926447 20.8667L1.39377 20.6896C1.41174 20.6896 1.42971 20.6896 1.44768 20.6896C1.46565 20.7073 1.48363 20.7427 1.46565 20.7605L0.00979699 23.1162C-0.0261502 23.1694 0.0457457 23.2225 0.0816926 23.1694L5.34795 17.9618C5.40187 17.9087 5.41984 17.8556 5.43782 17.7847L5.54566 16.4386C5.54566 16.35 5.50971 16.2791 5.45579 16.226L4.23358 15.3049Z" fill="black" fill-opacity="0.8"/>
<path d="M4.23358 15.3049C4.16169 15.2518 4.05385 15.2341 3.96398 15.2695L3.01138 15.73C2.95746 15.7477 2.92151 15.8009 2.88557 15.854L0.854558 20.7958C0.854558 20.8136 0.854558 20.8136 0.854558 20.8313C0.872532 20.849 0.890506 20.8667 0.926447 20.8667L1.39377 20.6896C1.41174 20.6896 1.42971 20.6896 1.44768 20.6896C1.46565 20.7073 1.48363 20.7427 1.46565 20.7605L0.00979699 23.1162C-0.0261502 23.1694 0.0457457 23.2225 0.0816926 23.1694L5.34795 17.9618C5.40187 17.9087 5.41984 17.8556 5.43782 17.7847L5.54566 16.4386C5.54566 16.35 5.50971 16.2791 5.45579 16.226L4.23358 15.3049Z" fill="url(#paint2_linear_611_597)"/>
</g>
<defs>
<linearGradient id="paint0_linear_611_597" x1="17.2919" y1="-1.9775" x2="13.1266" y2="15.7072" gradientUnits="userSpaceOnUse">
<stop stop-color="white"/>
<stop offset="1" stop-color="#C2B9B9" stop-opacity="0.9"/>
</linearGradient>
<linearGradient id="paint1_linear_611_597" x1="8.54793" y1="10.5763" x2="6.71876" y2="16.7512" gradientUnits="userSpaceOnUse">
<stop stop-color="white"/>
<stop offset="1" stop-color="#C2B9B9" stop-opacity="0.9"/>
</linearGradient>
<linearGradient id="paint2_linear_611_597" x1="5.01721" y1="13.8041" x2="0.387303" y2="24.1939" gradientUnits="userSpaceOnUse">
<stop stop-color="white"/>
<stop offset="1" stop-color="#C2B9B9" stop-opacity="0.9"/>
</linearGradient>
<clipPath id="clip0_611_597">
<rect width="23" height="23" fill="white" transform="translate(0 0.191406)"/>
</clipPath>
</defs>
</svg>
