<svg width="51" height="16" viewBox="0 0 51 16" fill="none" xmlns="http://www.w3.org/2000/svg">
<path d="M18.6781 15.7382L21.2044 0.91757H25.2438L22.7167 15.7382H18.6781ZM37.2923 1.2427C36.1331 0.822787 34.9086 0.612078 33.6757 0.620388C29.6892 0.620388 26.8809 2.628 26.8567 5.50593C26.8347 7.63299 28.862 8.81937 30.3924 9.52713C31.963 10.253 32.4908 10.7158 32.4832 11.3638C32.4734 12.3559 31.2288 12.8088 30.0696 12.8088C28.4544 12.8088 27.5969 12.582 26.2714 12.0323L25.7519 11.7971L25.1856 15.1106C26.1277 15.5235 27.8707 15.8819 29.6794 15.9C33.9207 15.9 36.6738 13.9158 36.7056 10.8428C36.7207 9.15888 35.647 7.8772 33.318 6.82085C31.9078 6.14032 31.0443 5.67906 31.0533 4.98567C31.0533 4.37091 31.7845 3.71309 33.3641 3.71309C34.3991 3.68992 35.4275 3.88308 36.3835 4.2802L36.7449 4.45108L37.2923 1.2427ZM47.6698 0.91757H44.562C43.5994 0.91757 42.8788 1.18073 42.4561 2.14104L36.4825 15.6626H40.7344C40.7344 15.6626 41.4149 13.8644 41.5714 13.4697L46.6657 13.4758C46.7844 13.9869 47.1496 15.6626 47.1496 15.6626H50.9243L47.6698 0.91757ZM42.7283 10.4451C43.0618 9.59217 44.3359 6.30742 44.3359 6.30742C44.3117 6.34674 44.6671 5.44995 44.8705 4.89417L45.1435 6.17059C45.1435 6.17059 45.9163 9.70408 46.0774 10.4451H42.7283ZM15.2504 0.91757L11.3094 10.9888L10.8897 8.94189C10.1562 6.58269 7.87038 4.02689 5.31458 2.74748L8.91842 15.6626L13.1771 15.658L19.5144 0.91757H15.2308" fill="url(#paint0_linear_48_48)"/>
<path d="M7.45446 0.917185H0.976487L0.924316 1.22493C5.98601 2.45065 9.33499 5.41176 10.7256 8.96871L9.3108 2.16333C9.06656 1.22645 8.35883 0.946672 7.48244 0.914158" fill="url(#paint1_linear_48_48)"/>
<defs>
<linearGradient id="paint0_linear_48_48" x1="28.1194" y1="0.620152" x2="28.1194" y2="15.9" gradientUnits="userSpaceOnUse">
<stop stop-color="white"/>
<stop offset="1" stop-color="white" stop-opacity="0.75"/>
</linearGradient>
<linearGradient id="paint1_linear_48_48" x1="5.82494" y1="0.914158" x2="5.82494" y2="8.96871" gradientUnits="userSpaceOnUse">
<stop stop-color="white"/>
<stop offset="1" stop-color="white" stop-opacity="0.75"/>
</linearGradient>
</defs>
</svg>
